<svg width="107" height="92" viewBox="0 0 107 92" fill="none" xmlns="http://www.w3.org/2000/svg">
<path d="M53.5264 10.0937H72.0316C79.2243 10.0937 86.4222 10.0937 93.6201 10.0885C94.417 10.0885 95.1982 10.1302 95.8337 10.7031C96.5524 11.3489 96.8232 12.4323 96.4899 13.3385C96.1201 14.3385 95.2087 14.8802 93.8493 14.901C91.8493 14.9323 91.8493 14.9323 91.8493 16.9375C91.8493 19.8541 91.8493 19.8541 94.7868 19.651C98.8805 19.3646 101.959 15.5521 101.349 11.526C100.771 7.71873 97.8441 5.30206 93.7816 5.30206C66.9847 5.29686 40.1878 5.29686 13.391 5.29686C13.1514 5.29686 12.9118 5.29686 12.6722 5.30727C9.46908 5.4479 6.74512 7.6354 5.95866 10.7083C5.16178 13.7969 6.51074 16.9844 9.26595 18.6614C11.042 19.7448 12.9847 19.6979 14.9378 19.6666C15.4535 19.6562 15.3128 19.276 15.3128 19C15.3232 17.8698 15.2816 16.7344 15.3337 15.6094C15.3597 14.9844 15.1097 14.875 14.5628 14.8854C13.8128 14.901 13.0524 14.9896 12.3128 14.7812C11.1618 14.4583 10.4847 13.5208 10.5524 12.3333C10.6097 11.2187 11.3805 10.3437 12.5107 10.1666C12.9482 10.0937 13.4014 10.0937 13.8441 10.0937H53.5264ZM20.0785 50.8177V56.3646C20.0785 66.1302 20.0889 75.8958 20.0628 85.6614C20.0628 86.4323 20.2035 86.7552 21.0524 86.6875C22.0732 86.6042 23.1097 86.6302 24.1357 86.6771C24.7451 86.7083 24.891 86.4792 24.8701 85.9167C24.8389 85.026 24.8389 84.1406 24.9639 83.25C25.443 79.8437 28.2451 77.2864 31.7503 77.0833C35.042 76.8906 38.1618 79.2239 38.9951 82.4583C39.292 83.6094 39.1982 84.7708 39.2087 85.9323C39.2087 86.4062 39.2451 86.6875 39.8493 86.6771C41.8389 86.6458 43.8232 86.6562 45.8128 86.6771C46.2503 86.6771 46.4274 86.5573 46.4066 86.0989C46.3753 85.4167 46.3857 84.7292 46.4066 84.0469C46.5368 80.3073 49.4118 77.3698 53.1982 77.0885C56.7139 76.8281 59.943 79.4062 60.6305 82.9792C60.818 83.9375 60.792 84.8958 60.7503 85.8489C60.7191 86.5521 60.9691 86.7083 61.6201 86.6823C62.818 86.6302 64.016 86.6875 65.2139 86.6614C66.0993 86.6354 67.2139 87.0312 67.792 86.4948C68.3285 85.9948 67.9274 84.875 67.9535 84.026C68.0732 80.4531 70.667 77.6406 74.3441 77.1302C77.6097 76.6771 80.9378 78.8542 81.9587 82.1042C82.3545 83.3698 82.3337 84.6719 82.3024 85.9739C82.2868 86.5 82.4326 86.6979 82.9899 86.6771C84.0107 86.6354 85.0472 86.5989 86.068 86.6875C86.9691 86.7656 87.1045 86.4219 87.1045 85.6042C87.0837 62.375 87.0837 39.1458 87.1097 15.9166C87.1097 15.0312 86.8597 14.8802 86.0316 14.8802C64.417 14.9062 42.7972 14.9062 21.1774 14.8802C20.3024 14.8802 20.0524 15.0469 20.0576 15.9739C20.0941 27.5885 20.0785 39.2031 20.0785 50.8177ZM106.219 14.3229C105.844 14.8281 105.86 15.4583 105.683 16.026C104.089 21.0573 99.6045 24.3698 94.2607 24.4323C91.8493 24.4583 91.8493 24.4583 91.8493 26.8906V88.2552C91.8493 90.6875 91.1097 91.4271 88.667 91.4271C85.8597 91.4271 83.0524 91.4323 80.2399 91.4271C78.4482 91.4219 77.5264 90.5156 77.5003 88.7135C77.4743 87.3073 77.5107 85.901 77.4899 84.5C77.4639 82.8958 76.5055 81.8802 75.0837 81.8906C73.6774 81.9062 72.7347 82.9531 72.7191 84.5521C72.7087 85.9948 72.7295 87.4323 72.7139 88.8698C72.693 90.4687 71.7503 91.4167 70.1462 91.4219C66.2764 91.4375 62.4066 91.4375 58.5316 91.4219C56.9639 91.4167 56.0368 90.5104 56.0003 88.9479C55.9691 87.5104 56.0055 86.0677 55.9899 84.6302C55.9639 82.9323 55.0472 81.8958 53.5837 81.8958C52.1305 81.8958 51.2035 82.9323 51.1826 84.625C51.1618 86.0312 51.1982 87.4375 51.1722 88.8437C51.141 90.5364 50.2399 91.4219 48.5368 91.4271C44.6982 91.4375 40.8597 91.4375 37.0212 91.4219C35.4222 91.4167 34.4743 90.4687 34.4587 88.875C34.4378 87.4323 34.4639 85.9948 34.4482 84.5573C34.4326 82.9531 33.4951 81.9062 32.0837 81.8906C30.6618 81.875 29.7035 82.8958 29.6826 84.4948C29.6618 85.901 29.693 87.3073 29.6722 88.7135C29.641 90.5156 28.7191 91.4219 26.9326 91.4271C24.0524 91.4323 21.1722 91.4323 18.2972 91.4271C16.1357 91.4271 15.318 90.6146 15.318 88.4583V26.7864C15.318 24.4531 15.318 24.4531 13.0107 24.4323C8.89616 24.3906 5.61491 22.7135 3.1722 19.4062C2.14095 18.0104 1.50553 16.4323 1.16178 14.7344C1.13053 14.5729 1.16178 14.3854 0.948242 14.3229V10.4114C1.31282 10.1823 1.26074 9.76561 1.34928 9.43227C2.66699 4.31769 7.41178 0.546856 12.7087 0.546856C39.9535 0.526023 67.193 0.531232 94.4326 0.546856C99.6566 0.546856 104.375 4.1979 105.771 9.20831C105.922 9.74477 105.875 10.3385 106.219 10.8229V14.3229Z" fill="#048BFF"/>
<path d="M53.5836 67.5364C60.6409 67.5364 67.6982 67.5312 74.7503 67.5364C76.4221 67.5364 77.4273 68.3958 77.4742 69.8073C77.5211 71.0937 76.6409 72.125 75.3648 72.2812C75.1305 72.3073 74.8857 72.2969 74.6461 72.2969C60.6044 72.2969 46.5628 72.3021 32.5211 72.2969C30.7763 72.2969 29.7399 71.4479 29.693 70.0104C29.6461 68.6666 30.5576 67.6198 31.9065 67.5573C32.9638 67.5052 34.0315 67.5364 35.0888 67.5364H53.5836ZM53.5836 29.2396C60.6044 29.2396 67.6253 29.2344 74.6461 29.2448C76.3648 29.2448 77.3753 30.0416 77.469 31.4219C77.5576 32.6875 76.8128 33.6979 75.568 33.9635C75.2711 34.026 74.9534 34.0312 74.6461 34.0312C60.6044 34.0312 46.5628 34.0364 32.5211 34.0312C30.6565 34.0312 29.5888 33.0312 29.6982 31.4271C29.7711 30.3646 30.5419 29.4791 31.5992 29.3125C32.0315 29.2396 32.4846 29.2396 32.9273 29.2396H53.5836ZM53.5836 43.5677C46.5263 43.5677 39.4742 43.5677 32.4169 43.5625C31.0419 43.5625 30.1617 43.026 29.8023 42.0052C29.3023 40.5937 30.1982 39.0937 31.6982 38.8333C31.9638 38.7864 32.2451 38.7969 32.5159 38.7969C46.5628 38.7916 60.6044 38.7916 74.6461 38.7969C76.3857 38.7969 77.4273 39.6562 77.4742 41.0885C77.5211 42.4323 76.6148 43.4687 75.2659 43.5469C74.443 43.5937 73.6201 43.5677 72.7971 43.5677H53.5836ZM53.5836 48.401C60.6409 48.401 67.6982 48.3958 74.7503 48.401C76.1721 48.401 77.0784 48.9844 77.3961 50.0573C77.8128 51.4687 76.9326 52.875 75.469 53.1302C75.1669 53.1823 74.8544 53.1719 74.5471 53.1719H32.6201C30.7919 53.1719 29.7398 52.3437 29.6878 50.875C29.6461 49.5312 30.5576 48.4844 31.9013 48.4219C32.9638 48.3698 34.0263 48.401 35.0888 48.401H53.5836ZM53.4794 62.7239C46.4899 62.7239 39.5055 62.7291 32.5159 62.7239C30.7971 62.7187 29.7919 61.9219 29.6982 60.5364C29.6096 59.276 30.3596 58.2604 31.5992 58C31.8961 57.9375 32.2138 57.9375 32.5211 57.9375C46.5628 57.9323 60.6044 57.9323 74.6513 57.9323C76.5107 57.9375 77.5836 58.9375 77.469 60.5416C77.3961 61.6041 76.6253 62.4844 75.568 62.651C75.1305 62.7239 74.6826 62.7239 74.2346 62.7239C67.318 62.7291 60.3961 62.7239 53.4794 62.7239ZM44.0107 24.4271C40.0419 24.4271 36.0732 24.4427 32.0992 24.4219C30.818 24.4166 29.8857 23.6041 29.719 22.4583C29.5367 21.2031 30.2034 20.1198 31.4065 19.7708C31.693 19.6875 32.0107 19.6719 32.318 19.6719C40.1201 19.6666 47.9221 19.6719 55.7242 19.6614C56.8596 19.6614 57.7294 20.0833 58.1669 21.1614C58.5315 22.0573 58.3857 22.9114 57.7399 23.6458C57.1773 24.2969 56.4326 24.4375 55.6096 24.4375C51.7451 24.4219 47.8753 24.4323 44.0107 24.4323V24.4271Z" fill="#048BFF"/>
</svg>
