<svg width="34" height="34" viewBox="0 0 34 34" fill="none" xmlns="http://www.w3.org/2000/svg">
<path d="M26.9115 26.9115C24.1927 29.6302 20.5781 31.1302 16.7344 31.1302C12.8906 31.1302 9.27604 29.6302 6.55729 26.9115C3.83854 24.1927 2.33854 20.5781 2.33854 16.7344C2.33854 12.8906 3.83854 9.27604 6.55729 6.55729C9.27604 3.83854 12.8906 2.34375 16.7344 2.34375C20.5781 2.34375 24.1927 3.83854 26.9115 6.55729C29.6302 9.27604 31.125 12.8906 31.125 16.7344C31.125 20.5781 29.6302 24.1927 26.9115 26.9115ZM32.1562 10.2188C31.3125 8.22917 30.1042 6.4375 28.5677 4.90104C27.0313 3.36458 25.2396 2.16146 23.25 1.31771C21.1823 0.442711 18.9948 0 16.7344 0C14.474 0 12.2812 0.442711 10.2188 1.31771C8.22917 2.16146 6.4375 3.36458 4.90104 4.90104C3.36458 6.4375 2.15625 8.22917 1.31771 10.2188C0.442708 12.2865 0 14.4792 0 16.7344C0 18.9948 0.442708 21.1875 1.31771 23.25C2.15625 25.2448 3.36458 27.0313 4.90104 28.5677C6.4375 30.1042 8.22917 31.3125 10.2188 32.1563C12.2812 33.0261 14.474 33.4688 16.7344 33.4688C18.9948 33.4688 21.1823 33.0261 23.25 32.1563C25.2396 31.3125 27.0313 30.1042 28.5677 28.5677C30.1042 27.0313 31.3125 25.2448 32.1562 23.25C33.026 21.1875 33.4688 18.9948 33.4688 16.7344C33.4688 14.4792 33.026 12.2865 32.1562 10.2188Z" fill="#FBBC04"/>
<path d="M20.1045 8L24.3471 11.1419L13.2422 26.1371L8.99965 22.9953L20.1045 8Z" fill="#FBBC04"/>
<path d="M13.2422 8L8.99962 11.1419L20.1045 26.1371L24.347 22.9953L13.2422 8Z" fill="#FBBC04"/>
</svg>
