
<svg width="155" height="62" viewBox="0 0 155 62" fill="none" xmlns="http://www.w3.org/2000/svg">
    <g clip-path="url(#clip0_958_7120)">
        <path d="M30.9487 61.0002H21.5637C16.1099 61.0002 10.8794 58.8167 7.02301 54.93C3.16658 51.0433 1.00006 45.7718 1.00006 40.2752V30.8216C0.988823 26.1829 2.52624 21.6752 5.36492 18.0237C8.2036 14.3723 12.1785 11.7894 16.6502 10.6907C16.7735 10.6607 16.8994 10.6436 17.0262 10.6395L34.6478 10.4653C34.762 10.4654 34.8759 10.4757 34.9882 10.4961C39.6418 11.4492 43.8262 13.9924 46.8341 17.6958C49.8421 21.3992 51.4892 26.0357 51.497 30.8216V40.2752C51.497 45.7691 49.3326 51.0383 45.4795 54.9245C41.6263 58.8108 36.3999 60.9961 30.9487 61.0002V61.0002ZM21.5434 15.8937C17.573 15.9195 13.767 17.4949 10.9246 20.2889C8.0822 23.0829 6.42455 26.8783 6.29978 30.878C6.29978 31.006 6.29978 31.134 6.29978 31.2621V39.8604C6.29911 41.9402 6.70503 43.9998 7.49428 45.9215C8.28354 47.8432 9.44068 49.5894 10.8997 51.0603C12.3586 52.5312 14.0908 53.698 15.9973 54.4941C17.9038 55.2901 19.9472 55.6999 22.0109 55.6999H30.5422C32.6058 55.6999 34.6493 55.2901 36.5557 54.4941C38.4622 53.698 40.1944 52.5312 41.6534 51.0603C43.1124 49.5894 44.2695 47.8432 45.0588 45.9215C45.848 43.9998 46.2539 41.9402 46.2533 39.8604V31.2621C46.2487 28.221 45.3776 25.2453 43.7436 22.6888C42.1096 20.1323 39.7814 18.1026 37.036 16.8411C35.4518 16.1244 33.7317 15.7644 31.9954 15.7861L21.5434 15.8937Z" fill="#048FFF"/>
        <path d="M25.0188 53.0571C22.0893 53.0947 19.2115 52.2785 16.7314 50.7065C16.2008 50.361 15.6917 49.9831 15.2071 49.5747L15.0394 49.4365C14.8044 49.2741 14.6125 49.0561 14.4806 48.8017C14.3486 48.5472 14.2805 48.2641 14.2823 47.977C14.2828 47.6492 14.3724 47.3278 14.5415 47.0478C14.7106 46.7677 14.9527 46.5398 15.2414 46.3888C15.5301 46.2378 15.8543 46.1695 16.1788 46.1913C16.5034 46.213 16.8157 46.3241 17.082 46.5123C17.1684 46.5738 17.2954 46.6762 17.458 46.8094C20.8777 49.6413 25.2526 50.2354 30.4608 48.571L30.725 48.4891C35.1761 46.9886 38.6365 43.8033 39.9576 40.0239C40.044 39.7781 40.1202 39.5118 40.1913 39.2762C40.3031 38.8576 40.5621 38.4942 40.92 38.2537C41.278 38.0133 41.7104 37.9121 42.1369 37.9691C42.5633 38.0261 42.9546 38.2374 43.238 38.5636C43.5213 38.8898 43.6773 39.3087 43.677 39.7423C43.6771 39.9013 43.6566 40.0597 43.616 40.2134C42.173 45.5598 37.5186 50.0664 31.533 51.9919C29.4276 52.6773 27.2312 53.0365 25.0188 53.0571V53.0571Z" fill="#048FFF"/>
        <path d="M25.9792 5.96372C26.9362 5.94348 27.8802 6.18943 28.7075 6.67457C29.5349 7.15971 30.2136 7.86526 30.6691 8.71374C30.8401 9.06945 31.1062 9.37005 31.4374 9.58174C31.7686 9.79343 32.1519 9.90783 32.5441 9.91208H34.3174C34.4619 9.9121 34.6044 9.87875 34.7341 9.81457C34.8638 9.7504 34.9772 9.6571 35.0655 9.54187C35.1539 9.42664 35.2148 9.29254 35.2437 9.14987C35.2725 9.00719 35.2685 8.85975 35.232 8.71886C34.2666 4.87293 30.4913 2 25.9792 2C21.2638 2 17.3412 5.1341 16.6095 9.24121C16.5946 9.32309 16.5977 9.40727 16.6186 9.48779C16.6396 9.56831 16.6778 9.64322 16.7307 9.70721C16.7835 9.7712 16.8496 9.82272 16.9244 9.85812C16.9991 9.89352 17.0807 9.91194 17.1633 9.91208H19.4142C19.8064 9.90783 20.1897 9.79343 20.5209 9.58174C20.8521 9.37005 21.1182 9.06945 21.2892 8.71374C21.7447 7.86526 22.4234 7.15971 23.2508 6.67457C24.0782 6.18943 25.0222 5.94348 25.9792 5.96372V5.96372Z" fill="#048FFF"/>
        <path d="M105.271 14.3112C105.271 11.8889 107.217 9.98389 109.844 9.98389C112.471 9.98389 114.418 11.7711 114.418 14.1371C114.428 14.7404 114.316 15.3395 114.088 15.8977C113.86 16.4558 113.522 16.9613 113.094 17.3832C112.666 17.805 112.157 18.1344 111.598 18.3512C111.039 18.5679 110.443 18.6674 109.844 18.6436C107.217 18.6436 105.271 16.7386 105.271 14.3112ZM107.583 23.7238H112.065C112.241 23.7238 112.416 23.7587 112.578 23.8267C112.741 23.8946 112.889 23.9942 113.013 24.1197C113.138 24.2453 113.237 24.3943 113.304 24.5583C113.372 24.7224 113.406 24.8982 113.406 25.0757V53.2007C113.406 53.3783 113.372 53.5541 113.304 53.7181C113.237 53.8821 113.138 54.0312 113.013 54.1567C112.889 54.2822 112.741 54.3818 112.578 54.4498C112.416 54.5177 112.241 54.5527 112.065 54.5527H107.604C107.249 54.5513 106.909 54.4083 106.658 54.1549C106.408 53.9015 106.267 53.5584 106.267 53.2007V25.0757C106.267 24.718 106.408 24.3749 106.658 24.1215C106.909 23.8681 107.249 23.7251 107.604 23.7238H107.583Z" fill="#048FFF"/>
        <path d="M135.001 42.1699L130.901 46.0773C130.791 46.183 130.703 46.3101 130.642 46.4509C130.582 46.5917 130.551 46.7433 130.55 46.8967V53.4261C130.55 53.7249 130.433 54.0114 130.223 54.2227C130.013 54.434 129.729 54.5527 129.432 54.5527H124.514C124.217 54.5527 123.932 54.4342 123.722 54.223C123.511 54.0119 123.392 53.7253 123.391 53.4261V12.8415C123.392 12.5422 123.511 12.2557 123.722 12.0445C123.932 11.8334 124.217 11.7148 124.514 11.7148H129.453C129.749 11.7148 130.034 11.8335 130.243 12.0448C130.453 12.2561 130.571 12.5427 130.571 12.8415V34.9953C130.572 35.2148 130.636 35.4291 130.756 35.6123C130.877 35.7955 131.047 35.9395 131.247 36.0269C131.446 36.1142 131.667 36.1412 131.882 36.1044C132.096 36.0677 132.296 35.9688 132.456 35.8198L145.088 24.0413C145.295 23.847 145.567 23.7391 145.85 23.7392H151.302C151.524 23.7383 151.741 23.8039 151.925 23.9276C152.11 24.0513 152.254 24.2276 152.339 24.434C152.424 24.6404 152.446 24.8677 152.403 25.0868C152.359 25.306 152.252 25.5071 152.095 25.6647L141.932 35.9632C141.739 36.159 141.624 36.419 141.608 36.6944C141.593 36.9698 141.677 37.2415 141.846 37.4585L153.782 52.7398C153.913 52.906 153.995 53.1061 154.018 53.3172C154.041 53.5283 154.005 53.7417 153.913 53.9328C153.821 54.1239 153.677 54.2849 153.499 54.3973C153.32 54.5097 153.113 54.5689 152.903 54.5681H147.039C146.871 54.5682 146.706 54.5306 146.555 54.4579C146.403 54.3853 146.27 54.2794 146.165 54.1481L136.668 42.298C136.572 42.172 136.451 42.0678 136.312 41.9922C136.173 41.9166 136.02 41.8713 135.863 41.8592C135.706 41.8471 135.548 41.8685 135.399 41.9221C135.251 41.9756 135.115 42.0601 135.001 42.1699Z" fill="#048FFF"/>
        <path d="M98.7623 45.9953C98.2643 45.4935 98.1119 45.0121 98.3049 44.5512C99.0729 42.9964 99.6955 41.3728 100.165 39.7015C100.647 37.9734 100.888 36.1861 100.881 34.391C100.901 31.5643 100.346 28.7636 99.2501 26.1614C97.1375 21.1147 93.1487 17.102 88.1375 14.9821C85.5619 13.8983 82.7986 13.3403 80.0075 13.3403C77.2165 13.3403 74.4532 13.8983 71.8776 14.9821C66.8626 17.1068 62.8732 21.1275 60.765 26.1819C59.6695 28.784 59.1144 31.5848 59.134 34.4115C59.1132 37.2266 59.6684 40.0159 60.765 42.6052C62.8871 47.643 66.8732 51.6494 71.8776 53.7743C74.4394 54.8743 77.1976 55.4338 79.9822 55.4181C82.0146 55.4287 84.0362 55.1177 85.9729 54.4963C87.8423 53.8909 89.6386 53.0767 91.3285 52.0689C91.6021 51.8882 91.9169 51.7807 92.2431 51.7566C92.4174 51.757 92.5895 51.7957 92.7475 51.8699C92.9055 51.9442 93.0454 52.0523 93.1577 52.1867L95.3934 54.44C95.6671 54.7061 96.0295 54.8596 96.4097 54.8702C96.6111 54.8828 96.8128 54.8509 97.0006 54.7766C97.1885 54.7023 97.358 54.5874 97.497 54.44L101.277 50.5685C101.419 50.4393 101.53 50.2808 101.605 50.104C101.679 49.9272 101.715 49.7363 101.709 49.5443C101.697 49.1741 101.542 48.8234 101.277 48.5661L98.7623 45.9953ZM92.2329 37.4483C92.0805 37.9604 91.8569 38.2215 91.5723 38.2574C91.4029 38.2656 91.2341 38.2333 91.0795 38.163C90.9249 38.0926 90.789 37.9863 90.6831 37.8528L84.8804 32.025C84.203 31.3695 83.5255 31.3695 82.848 32.025L79.0015 35.8351C78.8574 35.9725 78.7427 36.138 78.6642 36.3216C78.5858 36.5052 78.5453 36.703 78.5453 36.9029C78.5453 37.1027 78.5858 37.3005 78.6642 37.4841C78.7427 37.6677 78.8574 37.8333 79.0015 37.9706L85.4902 44.4949C86.1406 45.1504 85.7578 45.7461 84.3418 46.2821C82.9247 46.7971 81.4275 47.0521 79.9212 47.0349C78.2154 47.0535 76.524 46.7188 74.9518 46.0517C73.4797 45.4217 72.1373 44.5203 70.9935 43.3938C69.8508 42.2645 68.9514 40.91 68.3513 39.4148C67.0844 36.1979 67.0844 32.6148 68.3513 29.3979C68.9505 27.8826 69.8495 26.5061 70.9935 25.3523C72.1322 24.213 73.4755 23.3024 74.9518 22.6688C76.524 22.0016 78.2154 21.667 79.9212 21.6856C81.5849 21.6672 83.2356 21.9818 84.7777 22.6112C86.3198 23.2407 87.7226 24.1723 88.9047 25.3523C90.0481 26.5128 90.956 27.887 91.5774 29.3979C92.2326 30.9792 92.5644 32.6774 92.553 34.391C92.5658 35.4192 92.4584 36.4454 92.2329 37.4483V37.4483Z" fill="#048FFF"/>
    </g>
    <defs>
        <clipPath id="clip0_958_7120">
            <rect width="153" height="59" fill="white" transform="translate(1 2)"/>
        </clipPath>
    </defs>
</svg>
