<svg id="Capa_1" data-name="Capa 1" xmlns="http://www.w3.org/2000/svg" viewBox="0 0 95 100"><defs><style>.cls-1{fill:#040404;}.cls-2{fill:#4a4a4a;}.cls-3{fill:#7d7d7d;}.cls-4{fill:#787878;}.cls-5{fill:#777;}.cls-6{fill:#050505;}</style></defs><path class="cls-1" d="M87.15,46.74v1.09c-.33.32-.08.71-.13,1.07V51c0,.3-.19.64.13.91v1.4c-.3.17-.15.46-.17.69a68.87,68.87,0,0,1-1.85,12.86C82.54,77,76.47,84,66.27,87.17a59.76,59.76,0,0,1-12.51,2.27,11.92,11.92,0,0,0-2.86.29h-7c-.21-.29-.52-.14-.78-.15a63.73,63.73,0,0,1-13.72-2.19,27.1,27.1,0,0,1-14.31-9.24,32.08,32.08,0,0,1-5.89-13.9A72.69,72.69,0,0,1,8,45.34,62.22,62.22,0,0,1,10.3,31.46c2.63-8.72,8-14.86,16.65-18a54.28,54.28,0,0,1,14.2-2.86,8.24,8.24,0,0,0,2.47-.3h.93a.7.7,0,0,0,.93,0h5.57c.12.27.36.14.54.15a65.65,65.65,0,0,1,12.84,1.87c10.18,2.63,17.07,8.77,20.18,19A63,63,0,0,1,87,46.05C87,46.28,86.85,46.57,87.15,46.74ZM47.34,87.47a69.68,69.68,0,0,0,17-2.08C72.88,83.07,79,78,82,69.53a52.77,52.77,0,0,0,2.61-13.1,71.24,71.24,0,0,0-1.15-20.76,30,30,0,0,0-4.73-11.59,24.65,24.65,0,0,0-13.84-9.31,59.86,59.86,0,0,0-13.5-2.08,66.56,66.56,0,0,0-20.71,1.94Q16,18.51,12.16,33.21A62.73,62.73,0,0,0,10.26,46a66.9,66.9,0,0,0,1.93,20.91c2.42,9.14,8,15.29,17.13,18.1A66.18,66.18,0,0,0,47.34,87.47Z"/><path class="cls-2" d="M87,51V48.9h.13v2Z"/><path class="cls-3" d="M87.15,48.91H87c0-.36-.2-.75.13-1.07Z"/><path class="cls-4" d="M45.48,10.27a.7.7,0,0,1-.93,0Z"/><path class="cls-5" d="M87,51l.13,0v.93C86.83,51.59,87.06,51.25,87,51Z"/><path class="cls-6" d="M47.5,75.29H33.56a7.55,7.55,0,0,1-7.92-7.94,20.06,20.06,0,0,1,.4-5.78,15,15,0,0,1,7.12-8.63,27.78,27.78,0,0,1,17-3.64,25,25,0,0,1,13.09,4.61,13.67,13.67,0,0,1,5.8,8.32,18.6,18.6,0,0,1,0,7.17,7.43,7.43,0,0,1-7.38,5.88C57,75.3,52.25,75.29,47.5,75.29Zm0-2.28v0c4.88,0,9.76,0,14.63,0a5.1,5.1,0,0,0,5-4.74c.09-1.16,0-2.33,0-3.49a9.2,9.2,0,0,0-1.4-5A15.26,15.26,0,0,0,59.11,54a26.29,26.29,0,0,0-14.45-2.45,23.28,23.28,0,0,0-11.39,4A12.29,12.29,0,0,0,28,68.86,5.31,5.31,0,0,0,33.44,73C38.11,73,42.78,73,47.45,73Z"/><path class="cls-1" d="M58.1,35.53A10.8,10.8,0,1,1,47.26,24.71,10.83,10.83,0,0,1,58.1,35.53Zm-19.31-.06A8.53,8.53,0,1,0,47.41,27,8.55,8.55,0,0,0,38.79,35.47Z"/></svg>