<svg id="Capa_1" data-name="Capa 1" xmlns="http://www.w3.org/2000/svg" viewBox="0 0 95 100"><defs><style>.cls-1{fill:none;}.cls-2{fill:#080703;}.cls-3{fill:#fcdd80;}.cls-4{fill:#eeaf6d;}.cls-5{fill:#edaf6d;}.cls-6{fill:#19cdb9;}.cls-7{fill:#c79c8c;}</style></defs><path class="cls-1" d="M48.39,84.23c0,1.24,0,2.49,0,3.73,0,.55,0,1.11,0,1.66,0-.55,0-1.11,0-1.66C48.4,86.72,48.42,85.47,48.39,84.23Z"/><path class="cls-2" d="M47.46,5.32A44.68,44.68,0,1,0,92.07,49.85,44.75,44.75,0,0,0,47.46,5.32Zm.92,3.25c0-.94.21-1.39,1.21-1.19a7.53,7.53,0,0,0,.83.07C64.55,8.73,75.6,15.23,83.47,27.1c.38.57.4.84-.27,1.21q-3.32,1.83-6.54,3.79c-.72.44-1,.31-1.47-.36A32.79,32.79,0,0,0,54.66,17.55a22,22,0,0,0-5-.69c-.93,0-1.29-.24-1.26-1.24Q48.47,12.1,48.38,8.57ZM11.52,27.12A42.48,42.48,0,0,1,39.91,8a41,41,0,0,1,5.74-.64c.72,0,1,.16,1,.9,0,1.29,0,2.58,0,3.87s0,2.49,0,3.73c0,.7-.21.94-.93,1-11,.75-19.62,5.76-25.85,14.85-.51.74-.86.78-1.58.35-2.11-1.29-4.26-2.52-6.43-3.72C11.23,28,11.1,27.75,11.52,27.12ZM9.63,69.68A42.21,42.21,0,0,1,4.86,49.93,41.43,41.43,0,0,1,9.63,30.46c.18-.32.17-.84.71-.84l.39.22c2.3,1.33,4.59,2.68,6.92,4,.63.35.51.68.25,1.19a32.57,32.57,0,0,0-3.55,16.51,31.75,31.75,0,0,0,3.46,13.34c.39.79.33,1.12-.46,1.55-2.14,1.15-4.23,2.39-6.31,3.65C10.34,70.49,10.05,70.49,9.63,69.68Zm35.82,23a42.06,42.06,0,0,1-21.86-7.32,43.63,43.63,0,0,1-11.9-12.13c-.57-.87-.49-1.21.43-1.69,2.11-1.12,4.16-2.34,6.2-3.57.66-.4,1-.43,1.48.3A32.69,32.69,0,0,0,40.44,82.53a21.88,21.88,0,0,0,5.16.69c.79,0,1,.27,1,1,0,.62,0,1.24,0,1.87s0,1.24,0,1.86,0,1.2,0,1.8,0,1.2,0,1.79C46.68,92.51,46.38,92.75,45.45,92.7Zm2-11.44A31.26,31.26,0,1,1,78.76,50,31.27,31.27,0,0,1,47.5,81.26ZM83.44,73A42.62,42.62,0,0,1,56.6,91.77a45.58,45.58,0,0,1-6.8.93c-1.22.09-1.51-.3-1.42-1.42,0-.55,0-1.1,0-1.66s0-1.11,0-1.66c0-1.24,0-2.49,0-3.73,0-.66.14-1,.9-1,11.07-.75,19.7-5.8,25.95-15,.41-.6.66-.78,1.36-.35q3.23,2,6.54,3.79C83.86,72.1,83.86,72.39,83.44,73Zm.46-3c-2.09-1.32-4.26-2.52-6.43-3.71-.64-.35-.67-.66-.37-1.27a32.81,32.81,0,0,0,0-30c-.33-.69-.25-1,.4-1.36,2.13-1.18,4.25-2.37,6.32-3.65.8-.49,1.12-.48,1.59.44a42.84,42.84,0,0,1,0,39C85.06,70.29,84.81,70.59,83.9,70Z"/><path class="cls-3" d="M83.14,71.71q-3.31-1.81-6.54-3.79c-.7-.43-.95-.25-1.36.35-6.25,9.15-14.88,14.2-25.95,15-.76,0-.92.35-.9,1,0,1.24,0,2.49,0,3.73,0,.55,0,1.11,0,1.66s0,1.11,0,1.66c-.09,1.12.2,1.51,1.42,1.42a45.58,45.58,0,0,0,6.8-.93A42.62,42.62,0,0,0,83.44,73C83.86,72.39,83.86,72.1,83.14,71.71Z"/><path class="cls-3" d="M11.83,28.33c2.17,1.2,4.32,2.43,6.43,3.72.72.43,1.07.39,1.58-.35,6.23-9.09,14.83-14.1,25.85-14.85.72-.05,1-.29.93-1,0-1.24,0-2.49,0-3.73s0-2.58,0-3.87c0-.74-.25-.94-1-.9A41,41,0,0,0,39.91,8,42.48,42.48,0,0,0,11.52,27.12C11.1,27.75,11.23,28,11.83,28.33Z"/><path class="cls-3" d="M49.63,16.86a22,22,0,0,1,5,.69A32.79,32.79,0,0,1,75.19,31.74c.45.67.75.8,1.47.36q3.23-2,6.54-3.79c.67-.37.65-.64.27-1.21C75.6,15.23,64.55,8.73,50.42,7.45a7.53,7.53,0,0,1-.83-.07c-1-.2-1.24.25-1.21,1.19q.09,3.52,0,7C48.34,16.62,48.7,16.86,49.63,16.86Z"/><path class="cls-3" d="M46.6,88c0-.62,0-1.24,0-1.86s0-1.25,0-1.87c0-.77-.23-1.05-1-1a21.88,21.88,0,0,1-5.16-.69A32.69,32.69,0,0,1,19.8,68.29c-.49-.73-.82-.7-1.48-.3-2,1.23-4.09,2.45-6.2,3.57-.92.48-1,.82-.43,1.69a43.63,43.63,0,0,0,11.9,12.13A42.06,42.06,0,0,0,45.45,92.7c.93,0,1.23-.19,1.17-1.12,0-.59,0-1.19,0-1.79S46.6,88.59,46.6,88Z"/><path class="cls-3" d="M46.59,89.79c0-.6,0-1.2,0-1.8s0-1.24,0-1.86c0,.62,0,1.24,0,1.86S46.59,89.19,46.59,89.79Z"/><path class="cls-3" d="M17.81,64.86a31.75,31.75,0,0,1-3.46-13.34A32.57,32.57,0,0,1,17.9,35c.26-.51.38-.84-.25-1.19-2.33-1.3-4.62-2.65-6.92-4l-.39-.22c-.54,0-.53.52-.71.84A41.43,41.43,0,0,0,4.86,49.93,42.21,42.21,0,0,0,9.63,69.68c.42.81.71.81,1.41.38,2.08-1.26,4.17-2.5,6.31-3.65C18.14,66,18.2,65.65,17.81,64.86Z"/><path class="cls-3" d="M85.44,30.51c-.47-.92-.79-.93-1.59-.44-2.07,1.28-4.19,2.47-6.32,3.65-.65.36-.73.67-.4,1.36a32.81,32.81,0,0,1,0,30c-.3.61-.27.92.37,1.27C79.64,67.5,81.81,68.7,83.9,70c.91.57,1.16.27,1.56-.53a42.84,42.84,0,0,0,0-39Z"/><path class="cls-2" d="M34.26,47.46a4.38,4.38,0,0,1-1.9-3.11,4.24,4.24,0,0,1,8.43-.94,4.16,4.16,0,0,1-1.53,3.76c-.31.26-.19.38.06.5,1.23.59,2.47,1.18,3.72,1.74.3.14.61-.06.91-.11s.82-.18,1.23-.25.34-.13.22-.41c-.3-.72-.56-1.46-.83-2.19-.2-.53,0-.92.39-1.07s.74.06.94.59c.34.87.67,1.75,1,2.63a.9.9,0,0,0,.49.56,2.4,2.4,0,0,1,1.15,3.07.79.79,0,0,0,0,.64q2.07,5.48,4.13,11l.08.14c.13,0,.17-.09.24-.16l4.54-4.55a.77.77,0,0,0,.28-.58q0-6.06,0-12.12a1.38,1.38,0,0,0,0-.2c-.2,0-.27.16-.37.26-1,1-1.93,2-2.89,2.95-.5.51-.9.58-1.24.23s-.27-.71.22-1.21c1.34-1.37,2.67-2.74,4-4.11a.84.84,0,0,0,.3-.62q0-3,0-6.07a1.93,1.93,0,0,0,0-.24c-.46.45-.89.86-1.31,1.29-.69.69-1.37,1.39-2,2.09-.38.38-.8.43-1.11.15s-.31-.72.09-1.14c1.38-1.41,2.75-2.82,4.13-4.22a.78.78,0,0,0,.29-.58c0-2,0-4.11,0-6.16a.31.31,0,0,0,0-.1l-2.28,2.17c-.41.41-.79.84-1.21,1.23a.68.68,0,0,1-1,0,.65.65,0,0,1,0-1q2.34-2.41,4.71-4.82a.68.68,0,0,1,1,0q2.37,2.4,4.71,4.82a.67.67,0,0,1,0,1,.68.68,0,0,1-1-.06l-3-3.06a3.72,3.72,0,0,1-.33-.45l-.15.08v1.39c0,1.6,0,3.2,0,4.8a.9.9,0,0,0,.3.73c1.35,1.36,2.68,2.74,4,4.11l.18.18a.73.73,0,0,1,0,1,.71.71,0,0,1-1,0c-1-1-2-2.06-3-3.09a3.56,3.56,0,0,1-.32-.42.56.56,0,0,0-.13.52c0,1.91,0,3.83,0,5.75a.93.93,0,0,0,.3.73c1.38,1.39,2.75,2.8,4.13,4.22a.73.73,0,0,1,.09,1.1c-.31.3-.72.26-1.1-.12l-.3-.3-2.66-2.73c-.12-.12-.22-.26-.42-.48V57.45c.19-.05.28-.2.39-.32l5.24-5.26a2.5,2.5,0,0,1,.38-.35.66.66,0,0,1,.9.13.64.64,0,0,1,0,.86,2.66,2.66,0,0,1-.32.35Q59,59.75,52.15,66.65a1.61,1.61,0,0,1-1.24.51c-2.91,0-5.82,0-8.73,0a.94.94,0,0,0-.83.39c-1.32,1.65-2.66,3.27-4,4.91a1.24,1.24,0,0,1-1.07.5c-3.69,0-7.38,0-11.08,0-.15,0-.31,0-.47,0a.65.65,0,0,1-.7-.68.66.66,0,0,1,.72-.71c1,0,2,0,3,0,1.31,0,2.61,0,3.92,0,.32,0,.4-.05.24-.38a3,3,0,0,1-.13-2.43c.28-.8.46-1.64.81-2.42a5.89,5.89,0,0,0,.22-3.22c0-.36,0-.86-.17-1.05s-.68,0-1,0H29.93a1.65,1.65,0,0,1-1.73-1.75c0-3.17,0-6.34,0-9.51a2.7,2.7,0,0,1,1.57-2.57,2.74,2.74,0,0,1,3,.33c.14.11.25.27.41,0A5,5,0,0,1,34.26,47.46Zm7.65,5.83c1.53-.28,3.17-.59,4.78-1a1,1,0,0,0,.57-1.16,1,1,0,0,0-1-.78,1.5,1.5,0,0,0-.56.09,5.45,5.45,0,0,1-5.1-.55c-.63-.41-1.43-.56-2-1a2.84,2.84,0,0,0-4.67,2.38c0,2.49,0,5,0,7.48,0,.87,0,.9.87,1.16,2.25.67,4.55,1.14,6.84,1.66a1.88,1.88,0,0,1,1,.58c.91,1,1.82,1.92,2.74,2.88a1.65,1.65,0,1,0,2.36-2.28c-1.17-1.24-2.35-2.47-3.52-3.72a1.32,1.32,0,0,0-.71-.39c-1.07-.25-2.13-.53-3.19-.77a.82.82,0,0,1-.76-.94c0-.63,0-1.26,0-1.88,0-.43-.15-.55-.53-.57s-.8-.07-1.19-.11c-.56-.05-.9-.36-.86-.79s.44-.69,1-.62ZM49.1,65.71c.66,0,1.24,0,1.82,0a.7.7,0,0,0,.55-.94L51,63.55c-1.2-3.18-2.41-6.36-3.59-9.55-.12-.32-.24-.43-.58-.3a10.14,10.14,0,0,1-1.12.26c-1.19.25-2.37.5-3.57.73-.41.08-1-.29-1.21.06s-.05.87-.05,1.33v.05c-.07.31.1.42.38.48,1,.22,1.95.48,2.94.7a1.42,1.42,0,0,1,.66.38q1.93,2.06,3.89,4.08a3.17,3.17,0,0,1,.86,1.81A3.26,3.26,0,0,1,49.1,65.71ZM34.63,71.45a1.61,1.61,0,0,0,1.61-1.23c.55-1.63,1.08-3.27,1.61-4.9a.86.86,0,0,0,.08-.41c-.1-.84-.24-1.69-.34-2.53a.42.42,0,0,0-.37-.41c-.93-.24-1.86-.48-2.78-.74-.32-.09-.4,0-.36.32.07.59.09,1.18.18,1.76a6.1,6.1,0,0,1-.3,3.38c-.35.83-.59,1.7-.86,2.57A1.63,1.63,0,0,0,34.63,71.45Zm2-24.73a2.81,2.81,0,1,0,0-5.62,2.81,2.81,0,0,0,0,5.62Zm-4.17,7.34c0-1.11,0-2.22,0-3.33a1.43,1.43,0,0,0-1.37-1.43,1.41,1.41,0,0,0-1.44,1.41c0,2.23,0,4.45,0,6.68,0,.31.1.38.39.38.68,0,1.36,0,2,0,.33,0,.41-.11.41-.42C32.41,56.25,32.42,55.16,32.42,54.06ZM38.14,69l.11.07.34-.38c.65-.79,1.32-1.57,1.94-2.38a1.32,1.32,0,0,1,1.23-.6c.74,0,1.47,0,2.3,0-.65-.68-1.25-1.24-1.76-1.87a3.28,3.28,0,0,0-2.09-1.19c-1.2-.21-1.22-.25-1,.94a5.22,5.22,0,0,1-.28,3C38.6,67.4,38.4,68.21,38.14,69ZM31,59.2c-.19,0-.38,0-.57,0-1,0-.85-.23-.87.93,0,.33.11.47.45.46s.94,0,1.4,0c1,0,1,0,1-1,0-.31-.13-.38-.4-.37S31.37,59.2,31,59.2Z"/><path class="cls-2" d="M44.59,36.23a4.77,4.77,0,0,1,3.63-2.17c.41,0,.78,0,1,.45s-.14.94-.79,1a3.16,3.16,0,0,0-2.7,1.68,3.36,3.36,0,0,0-.41,1.45c0,.5-.29.83-.69.81s-.68-.33-.73-.79a3.2,3.2,0,0,0-2.56-3.08,4.2,4.2,0,0,0-.62-.07c-.5-.05-.77-.33-.75-.76a.7.7,0,0,1,.83-.67,4.63,4.63,0,0,1,3.58,1.86Z"/><path class="cls-2" d="M37.52,29.17a4.7,4.7,0,0,1,3.11-2.09,3.82,3.82,0,0,1,.83-.06.63.63,0,0,1,.7.67.64.64,0,0,1-.67.71,3.49,3.49,0,0,0-1.64.46,3.17,3.17,0,0,0-1.6,2.49c0,.09,0,.17,0,.26-.06.51-.34.79-.76.75a.71.71,0,0,1-.67-.78,3.16,3.16,0,0,0-.91-2.17,3.39,3.39,0,0,0-2.33-1,.7.7,0,1,1,0-1.39h.21A4.73,4.73,0,0,1,37.52,29.17Z"/><path class="cls-4" d="M41.91,53.29l-4-.39c-.58-.07-1,.16-1,.62s.3.74.86.79c.39,0,.79.09,1.19.11s.56.14.53.57c0,.62,0,1.25,0,1.88a.82.82,0,0,0,.76.94c1.06.24,2.12.52,3.19.77a1.32,1.32,0,0,1,.71.39c1.17,1.25,2.35,2.48,3.52,3.72A1.65,1.65,0,1,1,45.31,65c-.92-1-1.83-1.91-2.74-2.88a1.88,1.88,0,0,0-1-.58c-2.29-.52-4.59-1-6.84-1.66-.84-.26-.87-.29-.87-1.16,0-2.5,0-5,0-7.48a2.84,2.84,0,0,1,4.67-2.38c.61.46,1.41.61,2,1a5.45,5.45,0,0,0,5.1.55,1.5,1.5,0,0,1,.56-.09,1,1,0,0,1,1,.78,1,1,0,0,1-.57,1.16C45.08,52.7,43.44,53,41.91,53.29Z"/><path class="cls-5" d="M34.63,71.45a1.63,1.63,0,0,1-1.53-2.19c.27-.87.51-1.74.86-2.57a6.1,6.1,0,0,0,.3-3.38c-.09-.58-.11-1.17-.18-1.76,0-.31,0-.41.36-.32.92.26,1.85.5,2.78.74a.42.42,0,0,1,.37.41c.1.84.24,1.69.34,2.53a.86.86,0,0,1-.08.41c-.53,1.63-1.06,3.27-1.61,4.9A1.61,1.61,0,0,1,34.63,71.45Z"/><path class="cls-4" d="M36.59,46.72a2.81,2.81,0,0,1,0-5.62,2.81,2.81,0,1,1,0,5.62Z"/><path class="cls-6" d="M32.42,54.06c0,1.1,0,2.19,0,3.29,0,.31-.08.43-.41.42-.67,0-1.35,0-2,0-.29,0-.4-.07-.39-.38,0-2.23,0-4.45,0-6.68a1.41,1.41,0,0,1,1.44-1.41,1.43,1.43,0,0,1,1.37,1.43C32.43,51.84,32.42,53,32.42,54.06Z"/><path class="cls-7" d="M31,59.2c.33,0,.66,0,1,0s.39.06.4.37c0,1,0,1-1,1-.46,0-.93,0-1.4,0s-.46-.13-.45-.46c0-1.16-.12-.9.87-.93C30.66,59.19,30.85,59.2,31,59.2Z"/></svg>