<svg xmlns="http://www.w3.org/2000/svg" width="150" height="48" fill="none" id="calendly">
  <path fill="#006BFF" d="M88.548 20.924c2.314 0 4.505 1.416 4.967 4.474H83.211c.432-2.684 2.438-4.474 5.337-4.474m4.638 8.998c-.787 1.227-2.308 2.17-4.39 2.17-2.87 0-5.06-1.572-5.585-4.35h12.927q.094-.597.095-1.203c0-4.318-3.02-8.145-7.683-8.145-4.812 0-8.082 3.548-8.082 8.115 0 4.624 3.302 8.115 8.267 8.115 3.086 0 5.43-1.389 6.787-3.491zM79.197 11.7h-2.683v22.522h2.683zM111.165 24.75v9.471h-2.684v-9.317c0-2.53-1.449-3.949-3.825-3.949-2.469 0-4.474 1.45-4.474 5.091v8.175h-2.684V18.797h2.684v2.222c1.142-1.82 2.838-2.623 5.001-2.623 3.609 0 5.985 2.406 5.985 6.356M125.965 26.508c0-3.146-2.376-5.523-5.491-5.523-3.086 0-5.461 2.377-5.461 5.523s2.375 5.523 5.461 5.523c3.113 0 5.491-2.376 5.491-5.523m2.684-14.808v22.522h-2.684v-2.654c-1.234 1.887-3.208 3.055-5.831 3.055-4.289 0-7.805-3.549-7.805-8.115s3.516-8.114 7.805-8.114c2.622 0 4.597 1.171 5.831 3.054V11.7zM133.497 11.7h-2.684v22.522h2.684zM71.73 26.508c0-3.146-2.375-5.522-5.492-5.522-3.084 0-5.46 2.375-5.46 5.522s2.376 5.523 5.46 5.523c3.114 0 5.492-2.376 5.492-5.523m2.684-7.71V34.22H71.73v-2.653c-1.234 1.887-3.208 3.055-5.83 3.055-4.29 0-7.807-3.549-7.807-8.115s3.518-8.114 7.806-8.114c2.623 0 4.597 1.172 5.83 3.054v-2.65z"></path>
  <path fill="#006BFF" d="M54.112 31.253a8.353 8.353 0 1 1 2.416-14.288c.471.389.898.83 1.272 1.313l2.322-1.698a11.245 11.245 0 1 0-2.05 15.725l-1.545-2.444a8.4 8.4 0 0 1-2.415 1.392M146.452 18.797v8.755c0 2.83-1.646 4.624-4.16 4.624s-4.334-1.793-4.334-4.624v-8.755h-2.715v8.493c0 4.45 2.773 7.339 7.049 7.339 3.699 0 4.277-2.34 4.277-2.399v3.15c0 3.12-1.358 4.883-4.19 4.883a4.17 4.17 0 0 1-4.152-3.605l-2.428.85a6.75 6.75 0 0 0 6.585 5.211c4.391 0 6.794-2.89 6.794-7.34V18.798zM21.848 27.783c-1.031.916-2.32 2.054-4.655 2.054h-1.396c-1.69 0-3.227-.614-4.327-1.727-1.075-1.088-1.667-2.577-1.667-4.193v-1.911c0-1.617.592-3.106 1.667-4.193 1.1-1.114 2.637-1.727 4.327-1.727h1.396c2.339 0 3.624 1.138 4.655 2.053 1.071.944 1.995 1.768 4.459 1.768q.563 0 1.122-.09l-.009-.021a8.4 8.4 0 0 0-.518-1.064l-1.647-2.853a8.46 8.46 0 0 0-7.326-4.23h-3.294a8.46 8.46 0 0 0-7.326 4.23l-1.646 2.853a8.46 8.46 0 0 0 0 8.459l1.646 2.852a8.46 8.46 0 0 0 7.326 4.23h3.294a8.46 8.46 0 0 0 7.326-4.23l1.647-2.847q.296-.514.518-1.065l.008-.02a7 7 0 0 0-1.121-.095c-2.464 0-3.388.82-4.459 1.768"></path>
  <path fill="#006BFF" d="M17.193 17.817h-1.397c-2.572 0-4.262 1.837-4.262 4.189v1.91c0 2.352 1.69 4.19 4.262 4.19h1.397c3.748 0 3.453-3.823 9.113-3.823a8.7 8.7 0 0 1 1.598.148 8.5 8.5 0 0 0 0-2.94 8.7 8.7 0 0 1-1.598.148c-5.661 0-5.365-3.822-9.113-3.822"></path>
  <path fill="#006BFF" d="M31.156 25.827a7.9 7.9 0 0 0-3.25-1.397v.028a8.5 8.5 0 0 1-.472 1.647c.97.15 1.892.53 2.687 1.107q-.002.012-.007.025a14.491 14.491 0 1 1 0-8.552q.001.014.007.026a6.2 6.2 0 0 1-2.687 1.106c.212.532.37 1.084.472 1.648v.027a7.9 7.9 0 0 0 3.25-1.397c.927-.686.748-1.46.607-1.92a16.241 16.241 0 1 0 0 9.572c.14-.459.32-1.234-.607-1.92"></path>
  <path fill="#0AE8F0" d="M27.429 19.817q-.556.092-1.122.094c-2.464 0-3.387-.82-4.457-1.768-1.033-.916-2.318-2.055-4.656-2.055h-1.397c-1.69 0-3.227.615-4.327 1.728-1.075 1.088-1.666 2.577-1.666 4.193v1.911c0 1.616.591 3.105 1.666 4.193 1.1 1.114 2.637 1.727 4.327 1.727h1.397c2.338 0 3.623-1.138 4.656-2.053 1.07-.944 1.993-1.768 4.457-1.768q.565 0 1.122.09a8.4 8.4 0 0 0 .472-1.647v-.029a8.7 8.7 0 0 0-1.599-.146c-5.661 0-5.365 3.823-9.113 3.823h-1.396c-2.573 0-4.262-1.838-4.262-4.19v-1.914c0-2.352 1.69-4.189 4.262-4.189h1.396c3.748 0 3.454 3.82 9.113 3.82a8.7 8.7 0 0 0 1.599-.146v-.026a8.5 8.5 0 0 0-.472-1.648"></path>
  <path fill="#0AE8F0" d="M27.429 19.817q-.556.092-1.122.094c-2.464 0-3.387-.82-4.457-1.768-1.033-.916-2.318-2.055-4.656-2.055h-1.397c-1.69 0-3.227.615-4.327 1.728-1.075 1.088-1.666 2.577-1.666 4.193v1.911c0 1.616.591 3.105 1.666 4.193 1.1 1.114 2.637 1.727 4.327 1.727h1.397c2.338 0 3.623-1.138 4.656-2.053 1.07-.944 1.993-1.768 4.457-1.768q.565 0 1.122.09a8.4 8.4 0 0 0 .472-1.647v-.029a8.7 8.7 0 0 0-1.599-.146c-5.661 0-5.365 3.823-9.113 3.823h-1.396c-2.573 0-4.262-1.838-4.262-4.19v-1.914c0-2.352 1.69-4.189 4.262-4.189h1.396c3.748 0 3.454 3.82 9.113 3.82a8.7 8.7 0 0 0 1.599-.146v-.026a8.5 8.5 0 0 0-.472-1.648"></path>
</svg>
