<svg id="Capa_1" data-name="Capa 1" xmlns="http://www.w3.org/2000/svg" viewBox="0 0 95 100"><defs><style>.cls-1{fill:#9333e9;}.cls-2{fill:#fff;}.cls-3{fill:#fefefe;}</style></defs><path class="cls-1" d="M7.75,54.37V41.54c0-4,2.45-6.43,6.39-6.44,2.48,0,5,0,7.45,0a2.88,2.88,0,0,0,2.39-1c1.18-1.31,2.38-2.61,3.6-3.88a10.26,10.26,0,0,1,6-3.23c1-.15,1.45.19,1.47,1.15q.06,1.86,0,3.72c0,.53.11.73.69.73q7.59,0,15.18,0c.56,0,.72-.15.7-.7,0-1.24,0-2.48,0-3.72,0-1,.5-1.33,1.45-1.18a10,10,0,0,1,5.72,3c1.3,1.33,2.56,2.7,3.8,4.08a3.09,3.09,0,0,0,2.56,1.13c2.51-.06,5,0,7.54,0a5.86,5.86,0,0,1,6.19,6.21c0,6.17,0,12.34,0,18.51A1,1,0,0,0,79.69,61a11,11,0,1,1-14,13.58c-.22-.75-.54-.9-1.26-.9q-25.18,0-50.36,0A5.94,5.94,0,0,1,8,69.52a7.57,7.57,0,0,1-.29-2.22Zm68.46,8.12a8.92,8.92,0,1,0,8.93,8.85A8.9,8.9,0,0,0,76.21,62.49Z"/><path class="cls-1" d="M43.33,31.2H41.47c-1.4,0-1.61-.23-1.62-1.67s0-2.61,0-3.92c0-.55-.14-.74-.71-.71-.81.05-1.63,0-2.44,0a1,1,0,0,1-1.15-.71,1.08,1.08,0,0,1,.49-1.27c2.15-1.65,4.3-3.3,6.43-5a1.22,1.22,0,0,1,1.68,0c2.14,1.67,4.28,3.32,6.42,5a1.07,1.07,0,0,1,.52,1.25,1.08,1.08,0,0,1-1.24.73,1.41,1.41,0,0,0-.29,0c-.91.06-2.15-.4-2.62.18s-.13,1.75-.14,2.66,0,1.57,0,2.35a1,1,0,0,1-1.11,1.08Z"/><path class="cls-2" d="M18.14,43.48a2,2,0,0,1-2,2,2,2,0,0,1-2.06-2,2.11,2.11,0,0,1,2-2.06A2.05,2.05,0,0,1,18.14,43.48Z"/><path class="cls-1" d="M77.28,68.05c0,2.31,0,2.31,2.3,2.31h1.86a1,1,0,1,1,0,2c-1.14,0-2.29,0-3.43,0-.58,0-.81.1-.77.74,0,1.07,0,2.15,0,3.23,0,.71-.27,1.24-1,1.24s-1-.56-1-1.26c0-1.08,0-2.15,0-3.23,0-.54-.13-.74-.7-.72-1.08,0-2.16,0-3.23,0-.71,0-1.26-.23-1.25-1s.54-1,1.25-1c1.08,0,2.16,0,3.23,0,.58,0,.72-.18.7-.72,0-1.08,0-2.16,0-3.23,0-.72.29-1.27,1-1.28s1.07.52,1.06,1.25Z"/><path class="cls-3" d="M31.21,53.08A12.14,12.14,0,1,1,43.34,65.23,12.11,12.11,0,0,1,31.21,53.08ZM43.48,43a10.05,10.05,0,1,0,9.9,10.44A10.09,10.09,0,0,0,43.48,43Z"/><path class="cls-3" d="M68.16,39c1.47,0,2.94,0,4.41,0A2.27,2.27,0,0,1,75,41.32c.06,2.77,0,5.55,0,8.32,0,.67-.32,1.16-1.06,1.14s-1-.5-1-1.18c0-2.48,0-5,0-7.45,0-.87-.18-1.18-1.12-1.16-2.75.07-5.49,0-8.23,0-.72,0-1.25-.22-1.25-1s.46-1,1.15-1Z"/><path class="cls-3" d="M18.46,69.8c-1.4,0-2.8,0-4.21,0a2.36,2.36,0,0,1-2.62-2.58c0-2.65,0-5.29,0-7.93,0-.7.18-1.26,1-1.29s1.07.58,1.07,1.31c0,2.48,0,5,0,7.44,0,.75.17,1,1,1,2.74-.05,5.48,0,8.22,0,.62,0,1.2.06,1.39.79s-.3,1.25-1.19,1.26C21.53,69.81,20,69.8,18.46,69.8Z"/><path class="cls-3" d="M34.89,53a8.49,8.49,0,0,1,.62-3.14c.27-.66.62-1.22,1.43-.94s.8,1,.52,1.69a6.35,6.35,0,0,0,4.46,8.68,6.07,6.07,0,0,0,3.38-.14c.76-.26,1.34-.09,1.54.68s-.33,1.1-1,1.32A8.45,8.45,0,0,1,34.89,53Z"/></svg>