<svg id="Capa_1" data-name="Capa 1" xmlns="http://www.w3.org/2000/svg" viewBox="0 0 95 100"><defs><style>.cls-1{fill:#848484;}</style></defs><path class="cls-1" d="M84.78,45.12v2s-.13.07-.15.13a5.05,5.05,0,0,1-3.32,3.29A4.11,4.11,0,0,0,79,53a4.53,4.53,0,0,0,1.57,5.43,4.37,4.37,0,0,1,1.83,4.72c-.58,2.54-2.76,3.95-5.57,3.61a5,5,0,0,0-2,.12A4.63,4.63,0,0,0,71.7,73.2a4.54,4.54,0,0,1-.18,4.12,5,5,0,0,1-7.33,1.4,4.84,4.84,0,0,0-7.82,3.21,4.92,4.92,0,0,1-9.32,1,4.88,4.88,0,0,0-5.72-2.89,5.56,5.56,0,0,0-2.9,2,4.8,4.8,0,0,1-5.76,1.21,4.54,4.54,0,0,1-2.75-4.68,4.77,4.77,0,0,0-6.56-5.25,5.31,5.31,0,0,1-2.49.36,4.68,4.68,0,0,1-3.95-2.92,4.2,4.2,0,0,1,.73-4.62,3.86,3.86,0,0,0,.55-.85c1.47-3-.42-6.25-3.87-6.73a4.51,4.51,0,0,1-3.53-2.39,4.57,4.57,0,0,1,2.39-6.5A4.81,4.81,0,0,0,16,47a4.54,4.54,0,0,0-1.53-5.45,4.39,4.39,0,0,1-1.84-4.84c.62-2.5,2.81-3.85,5.58-3.52a4.42,4.42,0,0,0,1.15.06,4.67,4.67,0,0,0,3.92-6.52A4.7,4.7,0,0,1,23,24.18a4.86,4.86,0,0,1,7.72-2.95,5,5,0,0,0,8-3.23,4.35,4.35,0,0,1,3.25-3.65c.16,0,.4,0,.48-.25h1.9a6,6,0,0,1,4,3.52,4.42,4.42,0,0,0,4.17,2.44,5,5,0,0,0,4.07-2,4.41,4.41,0,0,1,4.76-1.56A4.6,4.6,0,0,1,64.9,19.9a7.5,7.5,0,0,1,0,2.17A4.73,4.73,0,0,0,68.73,27,5.9,5.9,0,0,0,72,26.57a4.81,4.81,0,0,1,5.54,1.78,4.41,4.41,0,0,1-.1,5.4C75,37,76.66,41,80.75,41.47a4.52,4.52,0,0,1,3.69,2.81C84.57,44.56,84.54,44.89,84.78,45.12Zm-17.8-4a3.38,3.38,0,0,0-.27-.36c-1-1.16-2-2.31-2.94-3.51-.39-.48-.61-.46-1.06-.07Q52.36,46,42,54.81c-.49.41-.71.4-1.14-.07-2.71-3-5.47-5.92-8.18-8.89-.35-.38-.54-.39-.9,0-1,1-2.11,2-3.2,3-.46.4-.53.62-.07,1.12q6,6.42,12,12.92c.33.37.51.41.91.08,2.53-2.19,5.09-4.34,7.65-6.51L66.54,41.53Z"/></svg>