<svg id="Capa_1" data-name="Capa 1" xmlns="http://www.w3.org/2000/svg" viewBox="0 0 95 100"><defs><style>.cls-1{fill:#9333e9;}.cls-2{fill:#fff;}</style></defs><path class="cls-1" d="M82.82,45.38v1.93s-.13.07-.15.12a4.77,4.77,0,0,1-3.15,3.12,3.9,3.9,0,0,0-2.23,2.32A4.31,4.31,0,0,0,78.78,58a4.11,4.11,0,0,1,1.73,4.46,4.48,4.48,0,0,1-5.27,3.43,4.91,4.91,0,0,0-1.91.1,4.39,4.39,0,0,0-2.91,6,4.28,4.28,0,0,1-.17,3.91,4.72,4.72,0,0,1-6.94,1.32,4.58,4.58,0,0,0-7.4,3,4.55,4.55,0,0,1-5.28,3.69,4.59,4.59,0,0,1-3.56-2.72,4.62,4.62,0,0,0-5.42-2.73,5.17,5.17,0,0,0-2.74,1.85,4.57,4.57,0,0,1-5.46,1.14A4.31,4.31,0,0,1,30.85,77a4.52,4.52,0,0,0-6.21-5,5.06,5.06,0,0,1-2.37.35,4.47,4.47,0,0,1-3.74-2.78,4,4,0,0,1,.7-4.37,4.22,4.22,0,0,0,.52-.8c1.39-2.81-.4-5.93-3.67-6.38A4.37,4.37,0,0,1,15,49.67a4.55,4.55,0,0,0,2.69-2.5A4.29,4.29,0,0,0,16.24,42a4.16,4.16,0,0,1-1.74-4.59c.59-2.37,2.66-3.65,5.28-3.33a5,5,0,0,0,1.1.06A4.44,4.44,0,0,0,24.58,28a4.36,4.36,0,0,1-.33-2.42,4.6,4.6,0,0,1,7.31-2.79,4.71,4.71,0,0,0,7.58-3.06,4.13,4.13,0,0,1,3.07-3.46c.16-.05.38,0,.46-.23h1.8a5.65,5.65,0,0,1,3.79,3.33,4.2,4.2,0,0,0,4,2.31,4.74,4.74,0,0,0,3.85-1.94,4.2,4.2,0,0,1,4.51-1.47A4.35,4.35,0,0,1,64,21.48,7.11,7.11,0,0,1,64,23.54a4.47,4.47,0,0,0,3.58,4.65,5.48,5.48,0,0,0,3.09-.38A4.56,4.56,0,0,1,76,29.49a4.18,4.18,0,0,1-.1,5.12c-2.33,3.12-.73,6.82,3.14,7.31a4.26,4.26,0,0,1,3.5,2.67C82.61,44.85,82.59,45.16,82.82,45.38Z"/><path class="cls-2" d="M66,41.6c-.1-.13-.17-.24-.26-.34-.93-1.11-1.89-2.19-2.79-3.32-.36-.46-.57-.44-1-.08C55.37,43.44,48.81,49,42.27,54.56c-.46.39-.68.37-1.08-.07-2.57-2.82-5.18-5.6-7.75-8.42-.33-.36-.51-.37-.85,0-1,1-2,1.9-3,2.81-.43.37-.49.59-.06,1Q35.19,56,40.82,62.15c.32.34.49.39.86.07,2.4-2.07,4.83-4.11,7.25-6.16Q57.23,49,65.54,42Z"/></svg>