<svg id="Capa_1" data-name="Capa 1" xmlns="http://www.w3.org/2000/svg" viewBox="0 0 95 100"><defs><style>.cls-1{fill:none;}.cls-2{fill:#080703;}.cls-3{fill:#fcdd80;}.cls-4{fill:#e3e3e3;}.cls-5{fill:#6a342e;}.cls-6{fill:#8befea;}.cls-7{fill:#c4ca49;}</style></defs><path class="cls-1" d="M48.39,84.23c0,1.24,0,2.49,0,3.73,0,.55,0,1.11,0,1.66,0-.55,0-1.11,0-1.66C48.4,86.72,48.42,85.47,48.39,84.23Z"/><path class="cls-2" d="M47.46,5.32A44.68,44.68,0,1,0,92.07,49.85,44.75,44.75,0,0,0,47.46,5.32Zm.92,3.25c0-.94.21-1.39,1.21-1.19a7.53,7.53,0,0,0,.83.07C64.55,8.73,75.6,15.23,83.47,27.1c.38.57.4.84-.27,1.21q-3.32,1.83-6.54,3.79c-.72.44-1,.31-1.47-.36A32.79,32.79,0,0,0,54.66,17.55a22,22,0,0,0-5-.69c-.93,0-1.29-.24-1.26-1.24Q48.47,12.1,48.38,8.57ZM11.52,27.12A42.48,42.48,0,0,1,39.91,8a41,41,0,0,1,5.74-.64c.72,0,1,.16,1,.9,0,1.29,0,2.58,0,3.87s0,2.49,0,3.73c0,.7-.21.94-.93,1-11,.75-19.62,5.76-25.85,14.85-.51.74-.86.78-1.58.35-2.11-1.29-4.26-2.52-6.43-3.72C11.23,28,11.1,27.75,11.52,27.12ZM9.63,69.68A42.21,42.21,0,0,1,4.86,49.93,41.43,41.43,0,0,1,9.63,30.46c.18-.32.17-.84.71-.84l.39.22c2.3,1.33,4.59,2.68,6.92,4,.63.35.51.68.25,1.19a32.57,32.57,0,0,0-3.55,16.51,31.75,31.75,0,0,0,3.46,13.34c.39.79.33,1.12-.46,1.55-2.14,1.15-4.23,2.39-6.31,3.65C10.34,70.49,10.05,70.49,9.63,69.68Zm35.82,23a42.06,42.06,0,0,1-21.86-7.32,43.63,43.63,0,0,1-11.9-12.13c-.57-.87-.49-1.21.43-1.69,2.11-1.12,4.16-2.34,6.2-3.57.66-.4,1-.43,1.48.3A32.69,32.69,0,0,0,40.44,82.53a21.88,21.88,0,0,0,5.16.69c.79,0,1,.27,1,1,0,.62,0,1.24,0,1.87s0,1.24,0,1.86,0,1.2,0,1.8,0,1.2,0,1.79C46.68,92.51,46.38,92.75,45.45,92.7Zm2-11.44A31.26,31.26,0,1,1,78.76,50,31.27,31.27,0,0,1,47.5,81.26ZM83.44,73A42.62,42.62,0,0,1,56.6,91.77a45.58,45.58,0,0,1-6.8.93c-1.22.09-1.51-.3-1.42-1.42,0-.55,0-1.1,0-1.66s0-1.11,0-1.66c0-1.24,0-2.49,0-3.73,0-.66.14-1,.9-1,11.07-.75,19.7-5.8,25.95-15,.41-.6.66-.78,1.36-.35q3.23,2,6.54,3.79C83.86,72.1,83.86,72.39,83.44,73Zm.46-3c-2.09-1.32-4.26-2.52-6.43-3.71-.64-.35-.67-.66-.37-1.27a32.81,32.81,0,0,0,0-30c-.33-.69-.25-1,.4-1.36,2.13-1.18,4.25-2.37,6.32-3.65.8-.49,1.12-.48,1.59.44a42.84,42.84,0,0,1,0,39C85.06,70.29,84.81,70.59,83.9,70Z"/><path class="cls-3" d="M83.14,71.71q-3.31-1.81-6.54-3.79c-.7-.43-.95-.25-1.36.35-6.25,9.15-14.88,14.2-25.95,15-.76,0-.92.35-.9,1,0,1.24,0,2.49,0,3.73,0,.55,0,1.11,0,1.66s0,1.11,0,1.66c-.09,1.12.2,1.51,1.42,1.42a45.58,45.58,0,0,0,6.8-.93A42.62,42.62,0,0,0,83.44,73C83.86,72.39,83.86,72.1,83.14,71.71Z"/><path class="cls-3" d="M11.83,28.33c2.17,1.2,4.32,2.43,6.43,3.72.72.43,1.07.39,1.58-.35,6.23-9.09,14.83-14.1,25.85-14.85.72-.05,1-.29.93-1,0-1.24,0-2.49,0-3.73s0-2.58,0-3.87c0-.74-.25-.94-1-.9A41,41,0,0,0,39.91,8,42.48,42.48,0,0,0,11.52,27.12C11.1,27.75,11.23,28,11.83,28.33Z"/><path class="cls-3" d="M49.63,16.86a22,22,0,0,1,5,.69A32.79,32.79,0,0,1,75.19,31.74c.45.67.75.8,1.47.36q3.23-2,6.54-3.79c.67-.37.65-.64.27-1.21C75.6,15.23,64.55,8.73,50.42,7.45a7.53,7.53,0,0,1-.83-.07c-1-.2-1.24.25-1.21,1.19q.09,3.52,0,7C48.34,16.62,48.7,16.86,49.63,16.86Z"/><path class="cls-3" d="M46.6,88c0-.62,0-1.24,0-1.86s0-1.25,0-1.87c0-.77-.23-1.05-1-1a21.88,21.88,0,0,1-5.16-.69A32.69,32.69,0,0,1,19.8,68.29c-.49-.73-.82-.7-1.48-.3-2,1.23-4.09,2.45-6.2,3.57-.92.48-1,.82-.43,1.69a43.63,43.63,0,0,0,11.9,12.13A42.06,42.06,0,0,0,45.45,92.7c.93,0,1.23-.19,1.17-1.12,0-.59,0-1.19,0-1.79S46.6,88.59,46.6,88Z"/><path class="cls-3" d="M46.59,89.79c0-.6,0-1.2,0-1.8s0-1.24,0-1.86c0,.62,0,1.24,0,1.86S46.59,89.19,46.59,89.79Z"/><path class="cls-3" d="M17.81,64.86a31.75,31.75,0,0,1-3.46-13.34A32.57,32.57,0,0,1,17.9,35c.26-.51.38-.84-.25-1.19-2.33-1.3-4.62-2.65-6.92-4l-.39-.22c-.54,0-.53.52-.71.84A41.43,41.43,0,0,0,4.86,49.93,42.21,42.21,0,0,0,9.63,69.68c.42.81.71.81,1.41.38,2.08-1.26,4.17-2.5,6.31-3.65C18.14,66,18.2,65.65,17.81,64.86Z"/><path class="cls-3" d="M85.44,30.51c-.47-.92-.79-.93-1.59-.44-2.07,1.28-4.19,2.47-6.32,3.65-.65.36-.73.67-.4,1.36a32.81,32.81,0,0,1,0,30c-.3.61-.27.92.37,1.27C79.64,67.5,81.81,68.7,83.9,70c.91.57,1.16.27,1.56-.53a42.84,42.84,0,0,0,0-39Z"/><path class="cls-4" d="M47.5,26.18A23.82,23.82,0,1,0,71.27,49.85,23.85,23.85,0,0,0,47.5,26.18Z"/><path class="cls-5" d="M47.5,26.18a23.82,23.82,0,0,1-.07,47.64,23.82,23.82,0,0,1,.07-47.64Zm7.32,43.93c.53.28.93-.12,1.35-.3a21.2,21.2,0,0,0,7.35-5.29,22.07,22.07,0,0,0,5.22-10c.24-1,.06-1.45-1.11-1.37a5.3,5.3,0,0,0-3.84,1.6,8,8,0,0,1-3.38,2.56,3.19,3.19,0,0,1-3.22-.79,2.62,2.62,0,0,1-.65-2.85c.13-.52.33-1,.5-1.53.48-1.43.33-1.76-1.1-2.32a24.15,24.15,0,0,1-2.49-1c-2.27-1.18-2.81-3-1.64-5.27.37-.71.78-1.41,1.18-2.11.49-.89.19-1.45-.73-1.74-.42-.14-.86-.24-1.29-.37a6.79,6.79,0,0,1-5-5.76,9.17,9.17,0,0,1,.28-4.13c.29-1,.09-1.2-.94-1.12-8.16.58-16.45,7.45-18.53,15.37-.17.63,0,.86.5,1.12A8.82,8.82,0,0,1,31.92,50a8.56,8.56,0,0,0,.66,1.32c.92,1.54,1.7,1.68,3.16.65a13.09,13.09,0,0,1,3-2,6.24,6.24,0,0,1,8,8.07,5.47,5.47,0,0,1-5.53,3.72c-3-.1-5,1.06-6,3.84a2.87,2.87,0,0,1-.49.8c-.37.44-.32.74.16,1.08A23.76,23.76,0,0,0,40,70.28c.54.21.91.19,1.2-.41a8.64,8.64,0,0,1,4.66-4c3.48-1.54,4.58-3.49,4.42-7.3,0-1.2.4-1.62,1.6-1.49a6,6,0,0,1,5,8.39,34.83,34.83,0,0,0-2,4.66l-.13.16h.12ZM69.13,48.7c-.35-10.38-8.89-19.27-19.42-20.22-.66-.06-.93.14-1.12.8-1.21,4.34.31,7.71,4.29,8.37C55,38,55.72,39.78,55,41.77a11.52,11.52,0,0,1-.88,1.8c-1.23,2.1-1,2.7,1.31,3.5l.5.18c3.46,1.19,4.17,2.79,2.69,6.11-.27.59-.56,1.18.08,1.7A1.39,1.39,0,0,0,60.57,55a18.62,18.62,0,0,0,2.2-2.15A5.48,5.48,0,0,1,67.05,51c2.15,0,2.15-.06,2.09-2.18A.62.62,0,0,0,69.13,48.7Zm-43.27.94a22.22,22.22,0,0,0,5.52,14.69c1.59,1.82,1.41,1.52,2.37-.32,1.17-2.25,2.79-3.78,5.47-3.92a16.86,16.86,0,0,0,2.9-.47,4.08,4.08,0,0,0,3-4.73c-.6-2.92-4.44-4.4-6.51-2.47a8.14,8.14,0,0,1-3.44,2c-1.92.5-3.42-.39-4.45-2.71a7.71,7.71,0,0,0-2.12-3.35c-.71-.53-1.49-1.55-2.21-1.24S25.94,48.73,25.86,49.64Zm21,22.1c1.33-.12,2.66-.22,4-.36a1.66,1.66,0,0,0,1.52-1.08c.86-2.06,1.85-4.07,2.73-6.12a3.62,3.62,0,0,0-1.77-4.53c-.48-.21-.79-.34-.88.41a9,9,0,0,1-6.21,8,5.82,5.82,0,0,0-2.85,2.14c-.52.74-.54,1.22.53,1.3A28.67,28.67,0,0,0,46.87,71.74Z"/><path class="cls-6" d="M54.84,70.12a34.83,34.83,0,0,1,2-4.66,6,6,0,0,0-5-8.39c-1.2-.13-1.65.29-1.6,1.49.16,3.81-.94,5.76-4.42,7.3a8.64,8.64,0,0,0-4.66,4c-.29.6-.66.62-1.2.41a23.76,23.76,0,0,1-5.17-2.81c-.48-.34-.53-.64-.16-1.08a2.87,2.87,0,0,0,.49-.8c1.06-2.78,3-3.94,6-3.84A5.47,5.47,0,0,0,46.73,58a6.24,6.24,0,0,0-8-8.07,13.09,13.09,0,0,0-3,2c-1.46,1-2.24.89-3.16-.65A8.56,8.56,0,0,1,31.92,50a8.82,8.82,0,0,0-4.61-5.17c-.54-.26-.67-.49-.5-1.12,2.08-7.92,10.37-14.79,18.53-15.37,1-.08,1.23.15.94,1.12A9.17,9.17,0,0,0,46,33.61a6.79,6.79,0,0,0,5,5.76c.43.13.87.23,1.29.37.92.29,1.22.85.73,1.74-.4.7-.81,1.4-1.18,2.11-1.17,2.26-.63,4.09,1.64,5.27a24.15,24.15,0,0,0,2.49,1c1.43.56,1.58.89,1.1,2.32-.17.51-.37,1-.5,1.53a2.62,2.62,0,0,0,.65,2.85,3.19,3.19,0,0,0,3.22.79,8,8,0,0,0,3.38-2.56,5.3,5.3,0,0,1,3.84-1.6c1.17-.08,1.35.36,1.11,1.37a22.07,22.07,0,0,1-5.22,10,21.2,21.2,0,0,1-7.35,5.29c-.42.18-.82.58-1.35.3ZM42.58,38.79c0-2.36-1-3.51-2.78-3.69-.89-.09-1.79.11-2.67,0-3.29-.33-4.39,2.79-3,5.06a1.42,1.42,0,0,1-.13,2.08c-1.1,1.25-.89,2.56.53,3.22,2.65,1.23,5.38,1.24,5.71-2.85a1.7,1.7,0,0,1,.86-1.51A2.91,2.91,0,0,0,42.58,38.79Z"/><path class="cls-7" d="M69.14,48.7v.13C69.2,51,69.2,51,67.05,51a5.48,5.48,0,0,0-4.28,1.84A18.62,18.62,0,0,1,60.57,55a1.39,1.39,0,0,1-1.85.06c-.64-.52-.35-1.11-.08-1.7,1.48-3.32.77-4.92-2.69-6.11l-.5-.18c-2.32-.8-2.54-1.4-1.31-3.5a11.52,11.52,0,0,0,.88-1.8c.7-2-.07-3.78-2.14-4.12-4-.66-5.5-4-4.29-8.37.19-.66.46-.86,1.12-.8C60.24,29.43,68.78,38.32,69.14,48.7Z"/><path class="cls-7" d="M25.86,49.64c.08-.91-.29-2.17.49-2.5s1.5.71,2.21,1.24a7.71,7.71,0,0,1,2.12,3.35c1,2.32,2.53,3.21,4.45,2.71a8.14,8.14,0,0,0,3.44-2c2.07-1.93,5.91-.45,6.51,2.47a4.08,4.08,0,0,1-3,4.73,16.86,16.86,0,0,1-2.9.47c-2.68.14-4.3,1.67-5.47,3.92-1,1.84-.78,2.14-2.37.32A22.22,22.22,0,0,1,25.86,49.64Z"/><path class="cls-7" d="M46.87,71.74a28.67,28.67,0,0,1-2.94-.27c-1.07-.08-1-.56-.53-1.3A5.82,5.82,0,0,1,46.25,68a9,9,0,0,0,6.21-8c.09-.75.4-.62.88-.41a3.62,3.62,0,0,1,1.77,4.53c-.88,2-1.87,4.06-2.73,6.12a1.66,1.66,0,0,1-1.52,1.08C49.53,71.52,48.2,71.62,46.87,71.74Z"/><path class="cls-6" d="M54.82,70.11v.17h-.12l.13-.16Z"/><path class="cls-5" d="M42.58,38.79a2.91,2.91,0,0,1-1.43,2.33,1.7,1.7,0,0,0-.86,1.51c-.33,4.09-3.06,4.08-5.71,2.85-1.42-.66-1.63-2-.53-3.22a1.42,1.42,0,0,0,.13-2.08c-1.44-2.27-.34-5.39,3-5.06.88.09,1.78-.11,2.67,0C41.62,35.28,42.58,36.43,42.58,38.79ZM39.21,37c-.61.09-1.23.2-1.85.28-1.55.18-1.84.74-1,2.09a3,3,0,0,1,.06,3.29c-.18.33-.76.59-.46,1s.88.32,1.38.24c.92-.14,1-.79,1.1-1.57.07-1.14.3-2.29,1.49-2.78a1.28,1.28,0,0,0,.9-1.67C40.62,37,39.92,37,39.21,37Z"/><path class="cls-7" d="M39.21,37c.71,0,1.41,0,1.62.88a1.28,1.28,0,0,1-.9,1.67c-1.19.49-1.42,1.64-1.49,2.78,0,.78-.18,1.43-1.1,1.57-.5.08-1.07.17-1.38-.24s.28-.67.46-1a3,3,0,0,0-.06-3.29c-.84-1.35-.55-1.91,1-2.09C38,37.18,38.6,37.07,39.21,37Z"/></svg>