<svg xmlns="http://www.w3.org/2000/svg" viewBox="0 0 250 250"><defs><style>.cls-1{isolation:isolate;}.cls-2,.cls-5{fill:#ededed;}.cls-2,.cls-8{mix-blend-mode:multiply;}.cls-3{fill:#646464;}.cls-4{fill:none;stroke:#c5c5c5;stroke-linecap:round;stroke-linejoin:round;stroke-width:1.5px;stroke-dasharray:5;}.cls-6{fill:#aaa;}.cls-7{fill:#a7a7a7;}.cls-10,.cls-8{opacity:0.3;}.cls-9{fill:#1b1b1b;}.cls-11{fill:#7f7f7f;}.cls-12{fill:#4d4d4d;}.cls-13{opacity:0.5;}.cls-14{fill:#0f0f0f;}.cls-15{fill:#fff;}.cls-16{opacity:0.2;}.cls-17{fill:#7b7b7b;}.cls-18{fill:#464646;}.cls-19{fill:#afafaf;}.cls-20{opacity:0.4;}</style></defs><g class="cls-1"><g id="Capa_1" data-name="Capa 1"><path class="cls-2" d="M113.38,28.13a11.17,11.17,0,0,1-3.18-.91c-1.42-.53-3-.72-6.22-.15s-35.28,11.82-36,12-1.46-.17-2.9.17A6.39,6.39,0,0,0,62.37,41s-3.93,1.5-5.34,1.89-4-.52-6-1.8-12.1-7-12.1-7l-4.5,1.49s6.35,9.07,7.13,10.3a7.82,7.82,0,0,1,.86,3.23l-1.17.3L39,50.17l.71.36-1,.35.43,1.32c0,.06,2.12.34,11.43-.38a161,161,0,0,0,30.11-6.17c1.47-.51,3.58-1.29,5.87-2.14a8.08,8.08,0,0,0,.76,1.58s7.66-1.76,9.83-2.55,2.65-1,2.27-3.43c0-.16,0-.31-.08-.44l.13-.05s10.59-4,12.51-4.87,3.85-2.81,3.86-3.91S114.6,28.26,113.38,28.13Z"/><path class="cls-3" d="M168.83,54c-3.88,0-4.69,5.85-4.69,5.85S163.33,54,159.45,54c0,0,4.69-.42,4.69-5.86C164.14,53.58,168.83,54,168.83,54Z"/><path class="cls-3" d="M81.34,91.84c-5.84,0-7.06,8.1-7.06,8.1s-1.23-8.1-7.07-8.1c0,0,7.07-.58,7.07-8.11A7.8,7.8,0,0,0,81.34,91.84Z"/><path class="cls-4" d="M145.37,115s15.93,3.73,26.92-12.34c9.18-13.41,7.64-35.08-3.11-29.78-7.75,3.82,5.14,22.06,19.49,11.31,11.65-8.74,5.87-21.39,5.87-21.39"/><ellipse class="cls-2" cx="122.68" cy="214.82" rx="113.66" ry="8.45"/><rect class="cls-5" x="8.49" y="165.93" width="233.01" height="12.27"/><rect class="cls-2" x="8.49" y="174.43" width="233.01" height="3.78"/><path class="cls-5" d="M82.46,165.93H28.83V119.46a4,4,0,0,1,4-4H78.46a4,4,0,0,1,4,4Z"/><path class="cls-2" d="M77.16,162.77h-43V121.68a1.94,1.94,0,0,1,1.94-1.94H75.22a1.94,1.94,0,0,1,1.94,1.94Z"/><rect class="cls-5" x="25.35" y="152.9" width="60.59" height="13.03" rx="1.55"/><rect class="cls-5" x="25.35" y="151.78" width="60.59" height="13.03" rx="1.55"/><path class="cls-2" d="M84.2,163.45H27.09a1.74,1.74,0,0,1-1.74-1.74v2.48a1.73,1.73,0,0,0,1.74,1.74H84.2a1.73,1.73,0,0,0,1.74-1.74v-2.48A1.74,1.74,0,0,1,84.2,163.45Z"/><path class="cls-5" d="M151.82,165.93H98.18V119.46a4,4,0,0,1,4-4h45.64a4,4,0,0,1,4,4Z"/><path class="cls-2" d="M146.52,162.77h-43V121.68a1.94,1.94,0,0,1,2-1.94h39.14a1.94,1.94,0,0,1,2,1.94Z"/><rect class="cls-5" x="94.7" y="152.9" width="60.59" height="13.03" rx="1.55"/><rect class="cls-5" x="94.7" y="151.78" width="60.59" height="13.03" rx="1.55"/><path class="cls-2" d="M153.55,163.45H96.45a1.74,1.74,0,0,1-1.75-1.74v2.48a1.74,1.74,0,0,0,1.75,1.74h57.1a1.74,1.74,0,0,0,1.75-1.74v-2.48A1.74,1.74,0,0,1,153.55,163.45Z"/><path class="cls-5" d="M221.17,165.93H167.54V119.46a4,4,0,0,1,4-4h45.63a4,4,0,0,1,4,4Z"/><path class="cls-2" d="M215.87,162.77h-43V121.68a1.94,1.94,0,0,1,1.94-1.94h39.15a1.94,1.94,0,0,1,1.94,1.94Z"/><rect class="cls-5" x="164.06" y="152.9" width="60.59" height="13.03" rx="1.55"/><rect class="cls-5" x="164.06" y="151.78" width="60.59" height="13.03" rx="1.55"/><path class="cls-2" d="M222.91,163.45H165.8a1.74,1.74,0,0,1-1.74-1.74v2.48a1.73,1.73,0,0,0,1.74,1.74h57.11a1.73,1.73,0,0,0,1.74-1.74v-2.48A1.74,1.74,0,0,1,222.91,163.45Z"/><rect class="cls-5" x="36.81" y="178.21" width="6.04" height="33.6"/><rect class="cls-5" x="207.14" y="178.21" width="6.04" height="33.6"/><path class="cls-6" d="M129.57,217.33a23.68,23.68,0,0,1,4.68.63,31.88,31.88,0,0,0,5.16.7,13.32,13.32,0,0,0,1.09-4.79C140.58,211.24,129.57,217.33,129.57,217.33Z"/><path class="cls-7" d="M139.06,217.22l.35,1.44s.51,1.06,5,2a144.62,144.62,0,0,0,17,2.27c4.57.27,7,.51,8.6-1.6s1.71-6,1.32-10-1.56-7.23-3-7.11-5.55,2.3-9.14,4.26-19.74,7.28-19.74,7.28S139.06,216,139.06,217.22Z"/><g class="cls-8"><path class="cls-7" d="M163,221.7a6.74,6.74,0,0,0,4.65-5.07c.77-4-1-10.59-1-10.59a23.87,23.87,0,0,0-4.74,1.72c-1.89,1-1.29,5.76-1.29,8.09S163,221.7,163,221.7Z"/></g><g class="cls-8"><path class="cls-7" d="M158.92,219.78c-.16-.09-4.11-2.1-5.34-4.62-1.34-2.72,3.15-7.28,4.06-8.16l1.25,1.28c-1.9,1.85-4.25,5-3.71,6.1.81,1.64,3.56,3.3,4.55,3.8Z"/></g><g class="cls-8"><path class="cls-7" d="M156.63,220.17A25.33,25.33,0,0,1,156.1,207l1.75.38a24.07,24.07,0,0,0,.46,12.22Z"/></g><g class="cls-8"><path class="cls-7" d="M154.57,219.36c-.17-.08-4.11-2.09-5.35-4.61-1.33-2.73,3.15-7.28,4.06-8.17l1.25,1.29c-1.9,1.84-4.24,5-3.7,6.09.81,1.64,3.56,3.3,4.55,3.8Z"/></g><g class="cls-8"><path class="cls-7" d="M152.27,219.75a25.56,25.56,0,0,1-.53-13.22l1.75.38a24.05,24.05,0,0,0,.46,12.22Z"/></g><g class="cls-8"><path class="cls-7" d="M149.24,219.2c-.16-.08-4.11-2.09-5.34-4.61-1.34-2.72,3.15-7.28,4.06-8.16l1.25,1.28c-1.9,1.85-4.25,5-3.71,6.09.81,1.65,3.56,3.31,4.55,3.81Z"/></g><g class="cls-8"><path class="cls-7" d="M147,219.6a25.35,25.35,0,0,1-.53-13.22l1.75.37a24,24,0,0,0,.46,12.22Z"/></g><path class="cls-9" d="M182.84,183.9c-1.17-4.77-5.62-9.06-10.78-9a24,24,0,0,0-10.39,2.5c-1.56.79-3.59,2.11-5.62,2.5s-4.22.79-4.22.79l-1.54-.32s-.94-4.39-1.11-6.62-.77-6.62-1.88-6.62-6,.94-9.43.71-17.81-1.2-17.81-1.2-4-.08-6.62,0-4.22-.21-6.27-.27-4.46-.35-5.86,0-2.78-.66-3.11.59c0,0-.76,3-1,3.63a28.39,28.39,0,0,1-1.7,4.28c-1.06,2.05-2.76,4.62-2.76,4.62s-10.37-4.39-15.4-5.68-15-2.11-17.93,1.64a14.48,14.48,0,0,0-2.82,9.73c.12,1.64,2.7,7.5,4,10.07s8.08,6.74,8.67,7,12.13,5.27,15.41,5.74,20.15,2.58,24.49,3.16a57.27,57.27,0,0,0,7.42.25,11.1,11.1,0,0,1,.55,1.27,26.93,26.93,0,0,0,3.45,7c.24.05,6.12-1.33,6.12-1.33s12.1-2.11,16.87-3.91,24.84-8.83,27.58-10.47,7.42-5.62,8.9-8.43S184,188.66,182.84,183.9Z"/><path class="cls-6" d="M90.33,222.45s5.41.2,7.76.27a9.7,9.7,0,0,0,6.17-1.4c2.89-1.49,16.32-3,16.32-3s-6.56-12.81-8-13.36c0,0-6.27,3.16-8.56,3.63s-3.8-.06-5.92.41a23.3,23.3,0,0,0-5.09,2.23,50.22,50.22,0,0,0-2.41,4.86C89.65,218.52,90.33,222.45,90.33,222.45Z"/><g class="cls-10"><path class="cls-11" d="M95.61,210.85s3.26-1.38,3.25-1.8c0,0-.08-.07-.21-.1a4.88,4.88,0,0,0-.51.08,23.3,23.3,0,0,0-5.09,2.23,50.22,50.22,0,0,0-2.41,4.86c-1,2.4-.31,6.33-.31,6.33l3.55.13c.69-1.56,2.15-5.13,2.73-6.94C97.35,213.29,95.8,211.41,95.61,210.85Z"/></g><path class="cls-9" d="M112.94,46.38s-.09-4,2.8-5.84,7.61-1.23,9.18-.25,3.44.93,6.09,1,6.43,2.9,6.38,5.94-1,5.89,2.36,6.48,6.57.39,7.85,4.32-.2,5.7.93,8.1,4.22,3.29,4,11-2.11,11.24.93,13.35,4.62,10.45.44,12.37-55.34,0-55.34,0-6.7-1.47-4.64-9.33,2.55-6.87,1.18-12S92.28,71.17,95,68.22s6-3.92,7-5.5c1.52-2.5-.13-6.29.78-9.67C103.86,48.88,107.1,45.59,112.94,46.38Z"/><path class="cls-9" d="M137.21,104.63c-15.18,0-35.29-.73-38.65-.86l-.16,0a7.89,7.89,0,0,1-4.68-3.37,8.89,8.89,0,0,1-.64-7.06c.44-1.67.81-2.95,1.11-4,1.07-3.71,1.09-3.78.07-7.6l-.09-.35c-1.39-5.18-2.82-10.54.15-13.78a20.47,20.47,0,0,1,4.56-3.57,7.8,7.8,0,0,0,2.3-1.79c.69-1.13.58-2.76.46-4.48a14.85,14.85,0,0,1,.23-5c1.36-5,5.15-7.75,10.24-7.42a7.58,7.58,0,0,1,3.15-5.62c3.12-2,8.17-1.48,10.14-.25,1.2.75,2.72.8,4.83.87l.81,0c3.24.12,7.3,3.37,7.24,6.85,0,.56,0,1.11-.08,1.65-.19,2.71-.1,3.61,1.7,3.93.49.09,1,.16,1.45.22,2.87.41,5.84.83,7.1,4.7a12.72,12.72,0,0,1,.56,5.11,5.44,5.44,0,0,0,.33,2.89,8.13,8.13,0,0,0,1.1,1.56c1.34,1.62,3.17,3.84,3,9.84-.06,2.46-.3,4.53-.49,6.2-.43,3.74-.54,5.3,1,6.39,2.14,1.49,3.63,5.49,3.33,8.94-.22,2.42-1.29,4.19-3,5C152.78,104.39,145.78,104.63,137.21,104.63ZM98.72,102c20.49.76,51.93,1.41,54.84.07a4,4,0,0,0,2-3.51c.25-2.77-.95-6.19-2.56-7.31-2.53-1.75-2.24-4.26-1.8-8.07.2-1.71.42-3.65.48-6,.14-5.32-1.32-7.09-2.6-8.65a9.31,9.31,0,0,1-1.34-1.94,7.16,7.16,0,0,1-.5-3.75,10.89,10.89,0,0,0-.47-4.45c-.91-2.81-2.9-3.09-5.65-3.48l-1.51-.24c-3.53-.62-3.33-3.5-3.17-5.82,0-.5.07-1,.07-1.55,0-2.4-3.17-5-5.51-5l-.81,0c-2.3-.07-4.11-.13-5.72-1.14-1.22-.76-5.59-1.46-8.22.24-2.43,1.56-2.39,5-2.39,5.07l0,1-1-.13c-6.61-.9-8.65,3.91-9.22,6a13.56,13.56,0,0,0-.17,4.37c.13,1.93.27,3.91-.72,5.53a8.54,8.54,0,0,1-2.88,2.38,18.79,18.79,0,0,0-4.19,3.26c-2.31,2.51-1,7.39.25,12.11l.1.35c1.12,4.2,1.06,4.6-.08,8.55-.29,1-.66,2.28-1.1,3.94a7.19,7.19,0,0,0,.43,5.65A6.2,6.2,0,0,0,98.72,102Z"/><path class="cls-6" d="M138.83,67.32s4.42.44,4.58,4.27-6.11,3.53-6.11,3.53Z"/><path class="cls-12" d="M142.26,72.37s-1.87-1.72-3.76-1.54c.08-.7.14-1.41.19-2.14A4.09,4.09,0,0,1,142.26,72.37Z"/><path class="cls-6" d="M141.77,97s-12.7-2.39-13.28-3.3c-1.24-1.94-.45-12.14-.45-12.14l-4.78-.14-4.77.17s.46,10-.36,12.14c-.37,1-9.9,3.64-9.9,3.64-4,1.9,1.56,15.3,15.47,14.35a.29.29,0,0,1,.16,0,.53.53,0,0,1,.17,0C134.17,110.62,146.38,99.94,141.77,97Z"/><g class="cls-13"><path class="cls-11" d="M128.21,93.27c-.75-3.37-.29-11.67-.29-11.67l-4.78-.15-4.77.18s.3,5.71.12,9.76A23.53,23.53,0,0,0,128.21,93.27Z"/></g><path class="cls-6" d="M136.57,52.76c-1.54-2.39-4.52-3.9-7.16-4.81a19,19,0,0,0-11.58-.32,14.16,14.16,0,0,0-6.68,4.42c-2.06,2.49-2.52,5.19-2.8,8.32-.65,7.57,1.48,17.44,2.2,19.49,2.29,6.55,9.26,10.8,13,10.92,3.73-.12,10.71-4.37,13-10.92a46.15,46.15,0,0,0,1.86-9.47c.51-4.21,1-8.65,0-12.87A14.75,14.75,0,0,0,136.57,52.76Z"/><g class="cls-13"><circle class="cls-11" cx="113.87" cy="78.54" r="2.92"/></g><g class="cls-13"><circle class="cls-11" cx="133.23" cy="79.17" r="2.92"/></g><path class="cls-11" d="M118.87,82a6.73,6.73,0,0,0,4.74,1.71c3.7,0,4.61-1.74,4.61-1.74"/><path class="cls-9" d="M117.51,64.07s.12,1.5.09,1.67-6.2,2.19-7.64,2.93A15.43,15.43,0,0,1,112.75,66l4.38-1.93.07,1.22Z"/><path class="cls-9" d="M129.58,64.07s-.12,1.5-.09,1.67,6.2,2.19,7.64,2.93A15.43,15.43,0,0,0,134.34,66L130,64.07l-.06,1.22Z"/><path class="cls-11" d="M121,76.08s1.46-.68,5.15-.11c0,0-1,1.22-1.57,1.41l-1.42,0a2.51,2.51,0,0,1-.83-.07C122.1,77.28,121,76.48,121,76.08Z"/><path class="cls-12" d="M122.29,73.86A4.53,4.53,0,0,0,121.23,76l0-.2a4.44,4.44,0,0,0,1.22,1.54.07.07,0,0,1-.07.11,4.76,4.76,0,0,1-1.74-1.37.24.24,0,0,1,0-.2,3.66,3.66,0,0,1,.68-1.21c.08-.1,1.13-1.29,1-.83Z"/><path class="cls-12" d="M125.35,74.2a4.18,4.18,0,0,1,1.15,1.7.25.25,0,0,1,0,.19,4.15,4.15,0,0,1-1.56,1.19c-.07,0-.13-.06-.08-.11a3.8,3.8,0,0,0,1-1.35l0,.2a3.76,3.76,0,0,0-.61-1.73c0-.06,0-.14.1-.09Z"/><path class="cls-12" d="M121.88,76.05a5.09,5.09,0,0,1,3.09,0c-.9.07-2.18,0-3.09,0Z"/><path class="cls-9" d="M119.44,71.39a3.41,3.41,0,0,0-4-2,4.67,4.67,0,0,0-2.82,2.69c.53.43,1.1-.89,3.15-1.17C118.06,70.61,119.72,72,119.44,71.39Z"/><path class="cls-9" d="M127.66,71.39a3.4,3.4,0,0,1,4-2,4.67,4.67,0,0,1,2.81,2.69c-.53.43-1.09-.89-3.15-1.17C129,70.61,127.38,72,127.66,71.39Z"/><g class="cls-10"><path class="cls-11" d="M123.7,111.75a.29.29,0,0,1,.16,0,.53.53,0,0,1,.17,0c10.14-1.13,22.35-11.81,17.74-14.72l-2.89-.57a22,22,0,0,1-7.23,4.86,34,34,0,0,1-15.65.6,14.76,14.76,0,0,1-7.73-4.53h0C104.25,99.3,109.79,112.7,123.7,111.75Z"/></g><path class="cls-7" d="M66.85,222.32c-1.07-.16-2.12-.46-3.21-.61-2.19-.31-7.66-1.46-9.38-7.84s5.2-12.94,15.06-11.57c0,0,7.36,3.2,10.51,4.26s16.31,2.76,16.3,3.15-3.08,1.55-3.08,1.55c.15.53,1.52,2.32.74,4.47a75.16,75.16,0,0,1-3.16,7c-.12.05-3.72-.18-7.74-.18-4.93,0-9.87-.12-14.81-.15A8.5,8.5,0,0,1,66.85,222.32Z"/><path class="cls-14" d="M91.06,181.85a48.55,48.55,0,0,1,9.9,4c3.92,2.35,9.43,6.39,11.19,7.5s5.74,3.22,5.74,3.22a3.07,3.07,0,0,1,1.7-.23,37.52,37.52,0,0,1,3.81,1.58s6.44-4.28,10.31-6.62S147,185.83,147,185.83s-12.54,4.63-15.53,5.86-2.69-.53-.23-1.82,9.31-5,9.31-5-5,1.64-9.43,3.51-10.84,5-12.07,5-13-8.5-13.94-8.73,7.44,5.68,8.55,7.32-16.52-10.31-17.81-10.6,2.12,1.83,2,2.34S94,181.85,91.06,181.85Z"/><path class="cls-14" d="M100.5,182.26s14.67,3,16.81,3.22,21.92-3.22,21.92-3.22-15.59,1.44-20.19,1.62S100.85,182.17,100.5,182.26Z"/><path class="cls-3" d="M142.77,97.07s7,1.67,9,2.61,5.8,2.27,7.74,5.9,4.27,6.2,5.39,11.64,2.46,16.82,3.63,20.54,1.76,11.75,1.87,13.21-1.37,6.68-1.37,6.68L151.34,139.2s-.35-8.38-.23-9.44a57.49,57.49,0,0,0,.82-6.74c.06-2.69-6.74-14.88-7.09-16.11S142.77,97.07,142.77,97.07Z"/><path class="cls-3" d="M153.86,123.49l-4.92-15.41-5.83-11-2.41-.42s-.2-.11-1.13,1.41-5.43,4.38-7.66,5.08a34,34,0,0,1-15.66.2,14.25,14.25,0,0,1-8.54-6L94.8,123.49l1.58,6h.46c.32,4.8.64,10.78.46,12.57C97,145.23,97.15,153,97.15,153s-.7,7.15-.76,8,0,2.44,0,4,1,2.8,1.62,2.8,19.36-.26,20.06-.31,8-.46,9.85,0,10.08.93,14.12,1,6.27-.35,7.09-1.11.17-2.57,0-5,.58-6.68.4-8.5-.11-6.5-.23-9.37,1.82-14.71,1.82-14.71Z"/><rect class="cls-15" x="115.66" y="113.73" width="19.12" height="37.72" rx="1.83" transform="translate(-41.65 59) rotate(-22.84)"/><g class="cls-16"><path class="cls-9" d="M120.14,116.46l13,31a.91.91,0,0,0,1.18.48.9.9,0,0,0,.48-1.18l-13-31a.9.9,0,1,0-1.66.7Z"/></g><g class="cls-16"><path class="cls-9" d="M117.53,117.56l4.31,10.24a.9.9,0,0,0,1.66-.7l-4.31-10.24a.9.9,0,0,0-1.18-.48A.89.89,0,0,0,117.53,117.56Z"/></g><g class="cls-16"><path class="cls-9" d="M132.24,147.86l-6.77-16.09a.91.91,0,1,0-1.67.7l6.78,16.09a.91.91,0,0,0,1.18.48A.9.9,0,0,0,132.24,147.86Z"/></g><g class="cls-16"><path class="cls-9" d="M127.06,145.74a.89.89,0,0,0,.48-1.18l-11.17-26.51a.91.91,0,0,0-1.18-.49.92.92,0,0,0-.48,1.19l11.17,26.51A.89.89,0,0,0,127.06,145.74Z"/></g><g class="cls-16"><path class="cls-9" d="M126.62,150.23l-11.17-26.52a.9.9,0,1,0-1.66.7L125,150.93a.91.91,0,0,0,1.67-.7Z"/></g><path class="cls-17" d="M140.69,144.7l-13.32-31.63a1.69,1.69,0,0,0-2.23-.91l-2.35,1,14.64,34.76,2.36-1A1.69,1.69,0,0,0,140.69,144.7Z"/><path class="cls-6" d="M107.71,97.4s-1.93.59-4.62,1.62-5.79,1.56-6.8,2-1.8,1.25-2.62,1.65-4.14.82-7.11,5.78A34.87,34.87,0,0,0,82,122.22a84.9,84.9,0,0,0-.78,9.61c-.08,1.6-1.65,11.2-2.5,15.74a20.79,20.79,0,0,0,0,9.47c.56,2.25.29,4,1.41,5.83s4.3,4.1,5.07,3.74S88.65,165,92,163.07s5.69-5.16,7.88-10.78c0,0,1.56-4.19,2-4.86s2.72-1.73,3.66-2.93.47-1.61,1.17-2.05a7.94,7.94,0,0,1,3.81-1c1.79-.06,5.74-.29,6.38-.38s1.12-.29,1.35-1.52c0,0,0-.75-.86-.75s-6-.07-7.68-.15a21.87,21.87,0,0,1-2.81-.29s5.36-.12,7.84-.07a20.26,20.26,0,0,0,5.18-.24c1-.32,1.07-.88,1.16-1.62a.89.89,0,0,0-.59-1,1.5,1.5,0,0,0,1.26-1.1,1.75,1.75,0,0,0-1.71-2.18,8.29,8.29,0,0,0-1.57-.18s1.13,0,1.2-.95-.51-1.67-3.23-2.34-4.85-1.69-5.29-1.72a21,21,0,0,0-4.34.32c-1.68.35-3.36.57-4.08,1.43a21.06,21.06,0,0,0-1.47,2.65,5.29,5.29,0,0,0-1,2.91A10.8,10.8,0,0,1,99,138.45c-.56.94-4.35,3.91-4.35,3.91a48.19,48.19,0,0,0,1.7-5.41c.27-1.6.43-9,.66-11.6S107.71,97.4,107.71,97.4Z"/><path class="cls-6" d="M169.17,153.16s-2.07-5.35-3.78-6.8-4.5-1.79-8-5A81,81,0,0,1,150,134.1c-1.14-1.41-4-8.18-4.43-8.93s-1.08-.44-2.35-.94-.51-1.54-2-1.65-2.85-.84-4.65-1a20,20,0,0,0-5.12.66,15.37,15.37,0,0,0-3.82,2c-.94.56-1.49,1.23-.94,1.79s1.46.63,2.75.34c0,0-1.54,1.42-2.24,1.89s-1.18,1-1,1.34a2.36,2.36,0,0,0,1.78,1.24,2.38,2.38,0,0,0,1.21-.3s-1.06.81-1,1.16a2.42,2.42,0,0,0,2.33,1.21,6.18,6.18,0,0,0,2.71-1.12,14.08,14.08,0,0,1,2.79-.78l1.86-.35,1.33.28S135,132,134.8,132a22.81,22.81,0,0,0-3,1.13c-.27.23-.39,1.53,1.23,1.64s3.87-.05,4.26,0,2.52,2.09,4.08,3.37,3.21.89,5.08,3.94,6.25,12.57,8.2,15.31,7.58,4.84,8.6,4.92,3.67-1,5.15-3.13S169.17,153.16,169.17,153.16Z"/><path class="cls-11" d="M137,134.79s4.54-.46,5.36-.37.82,1.35,1.11,2,.12-1.7.56-1.75.73,2.9,1.38,4.54,1,2.94,1,2.94a9.63,9.63,0,0,0-2.65-2.64,21.41,21.41,0,0,1-4.22-2.85C138.57,135.74,137.69,134.63,137,134.79Z"/><path class="cls-11" d="M105.35,130.48a4.4,4.4,0,0,0,1.91.29c1.14-.06,3.09-.1,3.73-.06s2.7.43,4,.68,3.46.64,3.46.64a1.35,1.35,0,0,0,.83-.26,8.31,8.31,0,0,1-2.34-.32,30.08,30.08,0,0,1-5.17-1.35c-.29-.25-.44-.6-.52-.56s.17.76,0,.81-2.53.12-3.55.09a14.38,14.38,0,0,1-2.38-.48C105,129.94,104.83,130.31,105.35,130.48Z"/><path class="cls-11" d="M121.06,135.25a13.72,13.72,0,0,1-2.42,0c-1-.13-3.52-.51-4.53-.6s-2.72-.45-3.37-.45-5.1-.09-5.45-.1-.28.09.12.14a28.5,28.5,0,0,0,2.88.21c.77,0,2.86.09,3,.1s3,.44,4.12.54l4.35.41a5.08,5.08,0,0,0,.61,0A2.66,2.66,0,0,0,121.06,135.25Z"/><path class="cls-11" d="M103.53,137.76a21.5,21.5,0,0,0,3,.22c1.57,0,6.58.33,6.58.33l-6.24.08,1.38.19s-2.86-.09-3.37-.18A4.39,4.39,0,0,1,103.53,137.76Z"/><g class="cls-10"><path class="cls-11" d="M97.09,140.17s1.11,5.65,1.14,5.85,2.23,4,2.54,3.85l-.66,1.75a7,7,0,0,1-2.52-3.37C97,146.17,97.09,140.17,97.09,140.17Z"/></g><path class="cls-11" d="M139.57,123.81s-3.81-.06-4.26,0-2.89,1.42-3.3,1.58-3,1.28-3,1.28l.4-.36s2.07-1.14,2.74-1.45,2.95-1.23,3.12-1.35S139.57,123.81,139.57,123.81Z"/><path class="cls-11" d="M141.59,126.6s-4.23-.13-4.4,0-2.46,1.18-2.76,1.38-2.26.93-2.67,1.18-3.09,1.67-3.09,1.67l.41-.35s2.49-1.52,3-1.9a29.59,29.59,0,0,1,3.23-1.45,18.27,18.27,0,0,0,1.89-.81c.15-.16.27,0,.25,0A29,29,0,0,1,141.59,126.6Z"/><path class="cls-11" d="M137.79,130.6a4.23,4.23,0,0,0,1-.24,3,3,0,0,0,.58-.4s-.29.43,0,.46a25.87,25.87,0,0,0,3.31-.35c.37-.12,1.15-.31,1.15-.31a.61.61,0,0,1-.44.49c-.41.13-4.23.63-4.23.63Z"/><path class="cls-3" d="M107.71,97.4a63.78,63.78,0,0,0-8.42,2.6c-2.29,1.11-3.66.82-6.62,2.75s-3.81,1.79-6.16,5.25-3.11,6.14-4.75,12.62-.94,12.35-2.34,19a73.4,73.4,0,0,0-1.65,15.07c.08,2.27,1.65,8.6,2.58,9.69a6.57,6.57,0,0,0,7,2.28c4-1,9.77-6.66,12-9.55s2.5-4.29,2.5-4.29-3-2-3.52-3.75A78.43,78.43,0,0,1,97,138.58l-.75.48s3.19-9.88,5.27-16.56S107.71,97.4,107.71,97.4Z"/><path class="cls-18" d="M151.19,133.56s-.7-6.65-.75-8.09.64-4,1.11-6.93.16-5.81.77-6.53.89,5.37-.5,9.42.56,3.1,1.56,1.77,2-6.15,3.66-6.15-1.17,5.87-3.3,9.31-1.58,3.89-1.7,4.58,2.67.68,5.5-.87,4.71-3.21,4.82-2.72-2.39,3.17-4.33,3.78S151.19,133.56,151.19,133.56Z"/><path class="cls-19" d="M151.68,133.43s9,3.73,9.68,4.33a14.72,14.72,0,0,0,2.35,1.38s-4.07-4.3-6-5-4.76-2.19-4.76-2.19Z"/><g class="cls-20"><path class="cls-11" d="M138.45,57.52a14.75,14.75,0,0,0-1.88-4.76c-1.54-2.39-4.52-3.9-7.16-4.81a19.88,19.88,0,0,0-4.94-1,.26.26,0,0,0-.13.08s0,.37,0,.87c-1.24-.74-4.38-.64-6.77-.19a14.4,14.4,0,0,0-3.74,1.87c-1.59,1.69-3,4.42-4.83,6.6a22.64,22.64,0,0,0-.68,4.19,60.16,60.16,0,0,0,1.19,15.34,8.53,8.53,0,0,1,2.27-3.15c3.16-2.78,2-7.07,4.37-10.7s3.59-2.7,6.4-4.92c2-1.59,2.33-5.07,2.36-7,0,.07.1.15.16.22.83,1,5.27,1.46,6.07,3.81s1.26,3.28,2.61,4,4.33,1.58,4.57,3.87a7.29,7.29,0,0,0,.61,2.29A25.83,25.83,0,0,0,138.45,57.52Z"/></g><path class="cls-3" d="M151.34,132.75a52.49,52.49,0,0,1-.76,6.27c-.47,1.87-3.2,9.25-3.2,9.25s5.9,8.28,8.71,10.9,6.33,4.61,8.24,3.48a12.65,12.65,0,0,0,5.82-7.12c1.17-3.82,0-8-.23-9.17s-3.64-9.38-3.64-9.38Z"/><path class="cls-18" d="M97.21,131.34s-3.17-7.68-2.76-8.59,3,5.43,3.52,5-.41-8,1.52-8.2-.41,8.38-.76,9.67.81-1.7,1.52-1.65-2.52,6.53-2.75,7.64a22.89,22.89,0,0,1-1,2.94A32.81,32.81,0,0,0,97.21,131.34Z"/><path class="cls-18" d="M97,138.58s-6.91,5.87-7.58,6.3a14,14,0,0,0-3.71,5c-.66,2-1.44,4.65-2.11,5.11s.71-1.68.9-4a9.49,9.49,0,0,1,1.92-4.45,28.23,28.23,0,0,0-3.83,2.22,2.4,2.4,0,0,1-2.46.2,12.09,12.09,0,0,1,2.65-1.84,49.13,49.13,0,0,0,5.47-2.81C89.3,143.51,97,138.58,97,138.58Z"/><path class="cls-9" d="M137.46,51c-2.81-5-12.94-6.5-13.24-5.8a6.15,6.15,0,0,0,0,.86c-1.58-.94-6.26-.52-8.52.25-2.74.94-4.58,5.72-7.5,8.79s-1,10.08-.52,14.18.52,8.67.52,8.67c.65-.94.28-4.45,3.45-7.23s2-7.07,4.37-10.7,3.6-2.69,6.41-4.92c2-1.58,2.33-5.07,2.36-7a1.07,1.07,0,0,0,.15.22c.83,1.06,5.27,1.47,6.07,3.81s1.26,3.28,2.61,4S138,57.76,138.22,60s1.48,4.34,3.07,4.34S140.27,56,137.46,51Z"/><g class="cls-10"><path class="cls-11" d="M150.91,137.15l-3.4,6.85.84,1.61S150.93,138.87,150.91,137.15Z"/></g><g class="cls-10"><path class="cls-11" d="M112.62,205l-1.46.72a27.13,27.13,0,0,0,1.26,5.29,69.6,69.6,0,0,1,2.21,8.11c3.24-.46,6-.76,6-.76S114,205.54,112.62,205Z"/></g><path class="cls-14" d="M117.8,201.5s5.54,7.77,6.15,9.29,2.67,7.5,2.52,8-5,1.64-5.71,1.67-2.34-1.83-2.34-1.83-2.61-8.28-4.69-10.36-2.18-2.78-2.18-2.78a2.51,2.51,0,0,1,1.39-2.64A29.57,29.57,0,0,1,117.8,201.5Z"/><g class="cls-8"><path class="cls-7" d="M69.73,204.25s1.4,2.22,1.25,7.22-2.19,8.58-3.28,9-7.66-2-9.53-4.55-1.72-6.26.47-8.22S68.56,203.19,69.73,204.25Z"/></g><path class="cls-18" d="M126.07,167.25s1.47-.18,4-.36,6.8,0,8.68-.68,4.53-1.45,5-2.39-4.54.78-10,1.1-7.27.94-12.35,1.29-9.64.7-14.27.17A20.87,20.87,0,0,0,98,167.75s8.21-.18,10.87-.18S126.07,167.25,126.07,167.25Z"/><g class="cls-8"><path class="cls-7" d="M73,220.26l-.57-1.7c1-.36,4-1.61,5-3.13.7-1-1.18-4.46-2.8-6.55l1.41-1.1c.78,1,4.58,6.15,2.87,8.66C77.39,218.76,73.2,220.2,73,220.26Z"/></g><g class="cls-8"><path class="cls-7" d="M75.24,221l-1.57-.86a24.22,24.22,0,0,0,2.17-12l1.79-.13A25.48,25.48,0,0,1,75.24,221Z"/></g><g class="cls-8"><path class="cls-7" d="M77.39,220.45l-.57-1.69c1.05-.36,4-1.61,5-3.13.7-1-1.18-4.46-2.8-6.55l1.41-1.1c.78,1,4.58,6.15,2.87,8.66C81.76,219,77.57,220.4,77.39,220.45Z"/></g><g class="cls-8"><path class="cls-7" d="M79.61,221.16,78,220.31a24,24,0,0,0,2.18-12l1.78-.13A25.33,25.33,0,0,1,79.61,221.16Z"/></g><g class="cls-8"><path class="cls-7" d="M82.69,221.05l-.58-1.7c1-.35,4-1.61,5-3.12.69-1-1.19-4.46-2.81-6.56l1.41-1.09c.78,1,4.59,6.14,2.88,8.65C87.05,219.55,82.86,221,82.69,221.05Z"/></g><g class="cls-8"><path class="cls-7" d="M84.9,221.76l-1.57-.85a24,24,0,0,0,2.17-12l1.79-.13A25.43,25.43,0,0,1,84.9,221.76Z"/></g></g></g></svg>