<svg xmlns="http://www.w3.org/2000/svg" viewBox="0 0 250 250"><defs><style>.cls-1{fill:#fff;}.cls-2{fill:#e5e5e5;}.cls-3{fill:#afb4b4;}.cls-4{fill:#cdcdcd;}.cls-5{opacity:0.44;}.cls-6{fill:#333;}.cls-7{opacity:0.22;}.cls-8{opacity:0.3;}.cls-9{fill:#b3b3b3;}.cls-10{fill:#545454;}.cls-11{fill:gray;}.cls-12{fill:#efefef;}.cls-13{fill:#878787;}</style></defs><g id="OBJECTS"><path class="cls-1" d="M125,239.65c-2.36,0-4.73-.07-7-.22A113.74,113.74,0,0,1,53.4,214.54l-1.34-1.09c-.79-.65-1.59-1.32-2.42-2A114.67,114.67,0,0,1,10.35,125c0-.68,0-1.35,0-2,0-1.38.07-2.78.14-4.12A113.74,113.74,0,0,1,33.79,55.53l-1-3.77a4.86,4.86,0,0,1,4.71-6h.12l4.43.11A114.66,114.66,0,0,1,186.34,28.13l8.58-4.56A4.85,4.85,0,0,1,197.2,23a4.87,4.87,0,0,1,4.74,3.77l3.9,16.94a114.76,114.76,0,0,1,27.46,119l3.25,14.05a4.87,4.87,0,0,1-4.61,5.95l-8,.21A114.79,114.79,0,0,1,125,239.65Z"/><path class="cls-2" d="M234.79,125a109.62,109.62,0,0,1-6.54,37.41c-1,2.69-2.05,5.34-3.23,7.93-.29.64-.58,1.27-.89,1.91q-1.42,3-3,5.87A109.78,109.78,0,0,1,125,234.79q-3.41,0-6.75-.21c-23.32-1.41-19.52-36.22-36.67-50-.43-.34-22.9,14.57-23.32,14.22-.79-.64-4.66,9.56-5.43,8.89A109.55,109.55,0,0,1,15.21,125c0-.64,0-1.28,0-1.91s6.17-.92,6.18-1.5c0-.74-6.09-1.73-6.05-2.46A109.32,109.32,0,0,1,39.08,56.64q2.43-3,5.06-5.91a109.81,109.81,0,0,1,142-17q2.06,1.36,4,2.84c1.09.79,2.16,1.61,3.21,2.45q4.23,3.36,8.1,7.12A109.5,109.5,0,0,1,234.79,125Z"/><path class="cls-3" d="M121.39,123.09H15.23c0-1.33.06-2.65.13-4A25,25,0,0,1,34.45,117c4.58,1.4,9.43,4.16,13.86,2.73.18-.06.35-.12.53-.2l.25-.1.17-.08a17.5,17.5,0,0,0,3.33-2.3c.51-.4,1-.78,1.54-1.15,1-.73,2-1.41,3-2q1-.66,2.13-1.26c.6-.34,1.2-.66,1.81-1l.61-.3.31-.16a54,54,0,0,1,30-5.08,63.42,63.42,0,0,1,6.73,1.15c9.55,2.22,15.45,6.62,22.43,15.54C121.25,122.9,121.32,123,121.39,123.09Z"/><path class="cls-3" d="M184.48,41.77c-8.6-11.05-15.49-15.27-29.39-17a54,54,0,0,0-39.42,11,17.1,17.1,0,0,1-3.49,2.38c-4.65,2.07-9.79-.94-14.65-2.43a25,25,0,0,0-24.4,6.05Z"/><path class="cls-3" d="M188.94,213c-8.59-11.06-15.49-15.27-29.38-17a54,54,0,0,0-39.42,11,17.57,17.57,0,0,1-3.5,2.38c-4.64,2.07-9.79-.95-14.65-2.43A24.94,24.94,0,0,0,77.59,213Z"/><polygon class="cls-1" points="37.54 50.57 80.71 220.65 126.49 200.55 178.59 199.06 202.41 178.59 231.81 177.85 197.2 27.86 161.47 46.84 123.51 35.18 82.2 51.68 37.54 50.57"/><polygon class="cls-4" points="44.98 56.21 84.85 213.26 127.12 194.7 176.11 192.24 200.18 171.89 225.49 172.26 192.41 35.25 163.21 52.55 125.5 40.39 86.22 57.24 44.98 56.21"/><g class="cls-5"><path class="cls-6" d="M184.06,126.86c-1.43,2.18-2.61,5.14-5.2,5.42-1.27.14-2.5-.47-3.78-.54-3.78-.19-6.19,4.17-9.79,5.35-2.86.93-6-.35-8.33-2.32s-3.92-4.55-5.84-6.87c-3.39-4.08-7.88-7.42-13.05-8.57-2.76-.61-5.86-.51-8.12,1.17-2.57,1.92-3.43,5.38-3.6,8.59s.15,6.48-.8,9.55-3.69,5.92-6.88,5.61c-1.86-.17-3.72-1.37-5.46-.71-2.77,1.05-2.2,5.29-4.06,7.59-1.35,1.67-3.69,2-5.71,2.74a15.36,15.36,0,0,0-9.14,9.81,19.62,19.62,0,0,0,.92,13.57,15.23,15.23,0,0,0,4.68,6.26,14.78,14.78,0,0,0,10.4,2.41,35.68,35.68,0,0,0,10.41-3.2,8.69,8.69,0,0,1,3.55-1c2.58,0,4.57,2.25,7,3,3.31,1.07,7-.74,9.25-3.38s3.5-6,4.95-9.16,3.3-6.36,6.3-8.13a6.24,6.24,0,0,1,5.31-.74,8.41,8.41,0,0,1,3.49,3.16c2.29,3.1,4.37,6.45,7.3,9s7,4.09,10.7,2.91,6.09-4.82,8.37-8,5.33-6.54,9.27-6.58c1.26,0,2.49.32,3.75.32a8.81,8.81,0,0,0,6.69-3.59,16.59,16.59,0,0,0,3-7.2c1.67-8.62-.93-20-5.76-27.45C199.4,118.92,188.3,120.43,184.06,126.86Z"/></g><g class="cls-7"><path class="cls-6" d="M66.26,68.38a8,8,0,0,1,7.22-2.59c3,.62,5.85,3.26,8.65,2.07,1.89-.8,3.12-3.24,5.18-3.11.87.06,1.67.6,2.54.57,1.12,0,2-1,2.72-1.79,2.91-3.07,7.08-5.35,11.26-4.69S111.58,64,110.18,68a3,3,0,0,0-.32,2,2.13,2.13,0,0,0,1.44,1.07c3.76,1.24,7.85.21,11.8.33s8.57,2.28,8.85,6.23c.23,3.14-2.55,5.81-5.55,6.76s-6.23.63-9.37.69a11,11,0,0,0-5.79,1.35c-1.68,1.09-2.8,3.29-2.07,5.16s3.06,2.76,5.11,2.67,4-.84,6-1.13a13,13,0,0,1,5.31.35,3.63,3.63,0,0,1,1.21.53c1.28,1,.87,3.15-.3,4.27s-2.8,1.6-4.23,2.36-2.81,2.11-2.69,3.72,1.43,2.55,2.74,3.22a12.74,12.74,0,0,1,3.78,2.21,6.18,6.18,0,0,1,1.3,5c-.73,5.94-7.48,10.34-13.21,8.61-2-.61-4.18-1.85-6.11-1s-2.41,3.2-3.24,5.09a11.5,11.5,0,0,1-5.65,5.73,5.37,5.37,0,0,1-2.56.59c-2.1-.14-3.56-2-5-3.62-1.9-2.13-4.35-4-7.18-4.29-4.72-.5-9.24,3.36-13.88,2.36-2.25-.48-4.09-2-5.81-3.56a30,30,0,0,1-5.68-6.23c-2.58-4.16-2.91-9-3.79-13.63-.65-3.44-1.89-6.71-2.65-10.11-.57-2.55-.88-5.12.53-7.45,2.12-3.49,6.47-3.28,8.82-6C65.06,78,62.81,72.16,66.26,68.38Z"/></g><path class="cls-6" d="M126.49,201a.5.5,0,0,1-.47-.35L81.74,51.82a.48.48,0,0,1,.32-.6.49.49,0,0,1,.61.32L127,200.41a.5.5,0,0,1-.33.61Z"/><path class="cls-6" d="M178.59,199.55a.49.49,0,0,1-.46-.33L123.05,35.34a.49.49,0,0,1,.31-.62A.48.48,0,0,1,124,35l55.08,163.88a.48.48,0,0,1-.3.61A.45.45,0,0,1,178.59,199.55Z"/><path class="cls-6" d="M202.41,179.08a.48.48,0,0,1-.46-.34L161,47a.49.49,0,0,1,.93-.29l40.94,131.75a.5.5,0,0,1-.32.61Z"/><g class="cls-8"><path class="cls-6" d="M163.69,67.2c-1.75,1.24-4.13.78-6.25,1.11a9.65,9.65,0,0,0-6.64,4.9,15,15,0,0,0-1.64,8.26c.18,2.66,1,5.43,3,7.2,2.38,2.12,6.15,2.5,8,5.12,1.47,2.11,1.15,5,.28,7.42s-2.23,4.69-2.7,7.21a10.94,10.94,0,0,0,2.76,9.4,5.79,5.79,0,0,0,2.92,1.82c2.09.43,4.19-.92,5.44-2.64a36.71,36.71,0,0,0,2.82-5.73c2-4.11,5.84-7.75,10.41-7.79,2.65,0,5.19,1.14,7.84,1.18,5.52.07,10.3-5.77,9.14-11.17-.59-2.74-2.38-5-3.83-7.45s-2.63-5.27-1.84-8c.32-1.1.95-2.08,1.36-3.15,2.71-7-4.53-16.56-11.49-17.87-3.34-.62-7.08.47-10.22,1.51a12.13,12.13,0,0,0-5.52,3.17C166,63.37,165.53,65.91,163.69,67.2Z"/></g><path class="cls-9" d="M92,189.67l-34.73,8.77-2-4.51C52,186.42,45.55,171.6,43.37,166c-2.9-7.41-8.19-15.4-2.81-19l.45-.28s-4.92-9.14,1.7-12.28c0,0-.05-.18-.11-.48s-.14-.7-.2-1.18h0c-.24-2-.24-5.26,2-7l4.21-3.37L49,122l0-.48L47,90.93l0-.5a4.81,4.81,0,0,1,.62-.36c1.55-.77,5.71-2.07,9.14,4,4.3,7.61,5.29,20.34,5.29,20.34l4.3,9.93s0,0,0-.11h0c.18-1.48,2.33-17.26,11-12.39.15.09-.86,1-.71,1.14,0,0,1.19-.68,1.25-.31.21,1.29.82,4.75,2.06,10.2,0,.22-1.09.06-1,.28s1.24.61,1.27.72c.08.37.17.75.26,1.14,2,8.44,10.42,28.62,9.6,36.89s-3.81,11.74-3.81,11.74l2.53,7Z"/><path class="cls-6" d="M71.86,137.47,62.54,115c-.14-1.27-1.81-15.66-6-22.3-1.51-2.39-3.27-3.73-5.22-4a6.13,6.13,0,0,0-4.61,1.42s0,0,0,.05a.86.86,0,0,0-.07.1l0,.08s0,0,0,.07v.09c.06,1.15,1.54,27.37,1.94,31.28-1.58.8-8.27,4.73-5.73,12.21a.51.51,0,0,0-.24,0,7.19,7.19,0,0,0-3.58,5.59c-.51,3.95,3.6,11.74,3.77,12.07a.49.49,0,0,0,.43.26.46.46,0,0,0,.23-.06.47.47,0,0,0,.2-.65c0-.08-4.14-7.85-3.67-11.5a6.24,6.24,0,0,1,3-4.83.53.53,0,0,0,.11-.09c2.7,7.56,3.73,9.26,3.77,9.33a.51.51,0,0,0,.42.23.45.45,0,0,0,.25-.07.49.49,0,0,0,.16-.67s-1.08-1.79-3.92-9.83c-2.33-6.59,3.15-10.1,4.94-11,.82,3.21,4.52,13.23,4.69,13.69a.47.47,0,0,0,.62.28.49.49,0,0,0,.29-.62C54.2,136,49.8,124,49.48,122c-.17-1.08-.68-9.31-1.15-17.09l.13,0a.47.47,0,0,0,.28-.09,9.93,9.93,0,0,0,3.8-8.63,6.61,6.61,0,0,0-4.38-5.93,4.93,4.93,0,0,1,3-.63c1.65.23,3.17,1.43,4.52,3.56,4.19,6.61,5.86,21.8,5.88,22l0,.13L71,137.84a.49.49,0,0,0,.45.3.39.39,0,0,0,.18,0A.48.48,0,0,0,71.86,137.47ZM51.57,96.26a9.12,9.12,0,0,1-3.29,7.67c-.34-5.75-.65-11.08-.75-12.88A5.59,5.59,0,0,1,51.57,96.26Z"/><path class="cls-6" d="M80.16,123.86c-1.68-.17-5.31-1-6-4.39-.8-4,2.45-7,3.17-7.64l.45.27.09.56c-.78.71-3.41,3.37-2.76,6.62.52,2.63,3.27,3.37,4.82,3.58C80,123.19,80.08,123.52,80.16,123.86Z"/><path class="cls-10" d="M118.25,234.58a109.18,109.18,0,0,1-61.81-23.83c-.15-.11,2.08-1.71,1.94-1.83s-2.94,1-3.22.79c-.79-.64-1.56-1.3-2.33-2l-4.5-11,7-2.76,33.45-13.31,4.5-1.79,5.59,12.45-2.18,1.94,2.78-.61Z"/><path class="cls-11" d="M99.43,192.62l-43,18.13-1.28-1,43.67-18.42Z"/><path class="cls-12" d="M93.41,188.23a2.26,2.26,0,1,1-2.24-2.61A2.44,2.44,0,0,1,93.41,188.23Z"/><path class="cls-13" d="M89.74,78.22a12.32,12.32,0,1,0-22.53,10c.05.11.1.22.16.33l0,.07a9.88,9.88,0,0,0,.8,1.34c.24.35.48.7.75,1,1.75,2.27,5.22,5.94,11.57,10a53,53,0,0,0,8.25-10.86A12.28,12.28,0,0,0,89.74,78.22Z"/><path class="cls-12" d="M85.85,80a8.07,8.07,0,1,1-10.64-4.11A8.06,8.06,0,0,1,85.85,80Z"/><path class="cls-13" d="M161.94,141.49a12.32,12.32,0,1,0-22.53,10,3.54,3.54,0,0,0,.16.34l0,.07a9.88,9.88,0,0,0,.8,1.34c.24.35.48.69.75,1,1.75,2.27,5.22,5.94,11.58,9.95a53.06,53.06,0,0,0,8.24-10.87A12.26,12.26,0,0,0,161.94,141.49Z"/><path class="cls-12" d="M158.05,143.21a8.06,8.06,0,1,1-10.64-4.1A8.07,8.07,0,0,1,158.05,143.21Z"/><path class="cls-13" d="M185.76,70a12.32,12.32,0,1,0-22.53,10l.16.34,0,.06a9.88,9.88,0,0,0,.8,1.34,9.56,9.56,0,0,0,.75,1c1.75,2.27,5.22,5.94,11.57,10a52.72,52.72,0,0,0,8.25-10.86A12.28,12.28,0,0,0,185.76,70Z"/><path class="cls-12" d="M181.87,71.76a8.07,8.07,0,1,1-10.64-4.11A8.07,8.07,0,0,1,181.87,71.76Z"/></g></svg>