<svg xmlns="http://www.w3.org/2000/svg" viewBox="0 0 348.23 240"><defs><style>.cls-1{fill:#e5e5e5;}.cls-2{fill:#fff;stroke:#802f90;stroke-linejoin:round;stroke-width:0.85px;}.cls-3{fill:#682272;}.cls-4,.cls-5{fill:#802f90;}.cls-5{opacity:0.5;}.cls-6{fill:none;stroke:#682272;stroke-miterlimit:10;stroke-width:2px;}</style></defs><g id="OBJECTS"><path class="cls-1" d="M102.59,154.45a30.17,30.17,0,0,0-5.89.58,26,26,0,0,0-49.83,10.28c0,.48,0,.95,0,1.43l-.51,0a24.09,24.09,0,0,0,0,48.17h56.19a30.22,30.22,0,1,0,0-60.44Z"/><path class="cls-1" d="M295.69,40.22a30.19,30.19,0,0,0-5.9.58A26,26,0,0,0,240,51.08c0,.48,0,1,0,1.43h-.51a24.08,24.08,0,1,0,0,48.16h56.19a30.22,30.22,0,1,0,0-60.44Z"/><path class="cls-1" d="M224.56,182.25a8.25,8.25,0,0,0-3.68.88,14.5,14.5,0,1,0-14.45,15.44h18.13a8.16,8.16,0,0,0,0-16.32Z"/><path class="cls-2" d="M132.6,124.52l73.24-12.27c9.2-1.54,30.28,1.34,31.66,9.55s-17.24,12-27.42,13.71-56.77,7.82-64.65,9.14-32.08,0-37.84-8.17S92.35,110,92.35,110s10.56-3.46,17.41,3.16S128.66,125.18,132.6,124.52Z"/><path class="cls-3" d="M94.68,138c.27,1.64,15.36.47,17.9,0s4.37-2.09,4.1-3.72-2.55-2.61-5.09-2.19S94.4,136.33,94.68,138Z"/><path class="cls-4" d="M226.18,113.73l-10.83,1.82,3.72,4.1,15.11-2.53"/><path class="cls-5" d="M200.3,122.46a2.33,2.33,0,1,0,1.91-2.68A2.33,2.33,0,0,0,200.3,122.46Z"/><path class="cls-5" d="M190.55,124.09a2.33,2.33,0,1,0,1.92-2.68A2.35,2.35,0,0,0,190.55,124.09Z"/><path class="cls-5" d="M180.81,125.73a2.33,2.33,0,1,0,1.91-2.69A2.32,2.32,0,0,0,180.81,125.73Z"/><path class="cls-5" d="M171.07,127.36a2.33,2.33,0,1,0,1.91-2.68A2.32,2.32,0,0,0,171.07,127.36Z"/><path class="cls-5" d="M161.32,129a2.33,2.33,0,1,0,1.92-2.68A2.34,2.34,0,0,0,161.32,129Z"/><path class="cls-5" d="M151.58,130.62a2.33,2.33,0,1,0,1.91-2.68A2.33,2.33,0,0,0,151.58,130.62Z"/><path class="cls-5" d="M141.83,132.26a2.33,2.33,0,1,0,1.92-2.69A2.34,2.34,0,0,0,141.83,132.26Z"/><path class="cls-4" d="M115.7,141.7c9.62,3.46,24,3.92,29.73,3,7.88-1.32,54.47-7.43,64.65-9.14s28.79-5.5,27.42-13.71c0-.17-.08-.33-.12-.49Z"/><path class="cls-3" d="M152.38,144.84c.28,1.63,30.12-2,35.18-2.86s10.78-3,10.5-4.63-6.43-2.13-11.49-1.28S152.11,143.21,152.38,144.84Z"/><path class="cls-6" d="M132.6,124.52l73.24-12.27c9.2-1.54,30.28,1.34,31.66,9.55s-17.24,12-27.42,13.71-56.77,7.82-64.65,9.14-32.08,0-37.84-8.17S92.35,110,92.35,110s10.56-3.46,17.41,3.16S128.66,125.18,132.6,124.52Z"/></g></svg>