<svg id="Capa_1" data-name="Capa 1" xmlns="http://www.w3.org/2000/svg" viewBox="0 0 95 100"><defs><style>.cls-1{fill:#9333e9;}.cls-2{fill:#153766;}.cls-3{fill:#fff;}</style></defs><path class="cls-1" d="M87.48,50.13A40,40,0,1,0,47.35,90.07,40,40,0,0,0,87.48,50.13Z"/><path class="cls-2" d="M68.59,46.68a10.74,10.74,0,0,0-7.21-10.61,10.59,10.59,0,0,0-11.89,3.81c-1.34,1.83-2.66,1.81-4,0a10.32,10.32,0,0,0-8.6-4.33A10.54,10.54,0,0,0,26.36,46a8.54,8.54,0,0,0,1.86,6A205.21,205.21,0,0,0,46.87,70.76c.49.43.76.42,1.25,0A222.67,222.67,0,0,0,66,52.84,9.57,9.57,0,0,0,68.59,46.68Z"/><path class="cls-3" d="M68.59,46.68A9.57,9.57,0,0,1,66,52.84,222.67,222.67,0,0,1,48.12,70.75c-.49.43-.76.44-1.25,0A205.21,205.21,0,0,1,28.22,52a8.54,8.54,0,0,1-1.86-6,10.54,10.54,0,0,1,10.5-10.49,10.32,10.32,0,0,1,8.6,4.33c1.37,1.83,2.69,1.85,4,0a10.59,10.59,0,0,1,11.89-3.81A10.74,10.74,0,0,1,68.59,46.68Z"/></svg>