<?xml version="1.0" encoding="utf-8"?>
<!-- Generator: Adobe Illustrator 28.0.0, SVG Export Plug-In . SVG Version: 6.00 Build 0)  -->
<svg version="1.1" id="Capa_1" xmlns="http://www.w3.org/2000/svg" xmlns:xlink="http://www.w3.org/1999/xlink" x="0px" y="0px"
	 viewBox="0 0 150 150" style="enable-background:new 0 0 150 150;" xml:space="preserve">
<style type="text/css">
	.st0{fill:none;}
	.st1{fill:#080703;}
	.st2{fill:#FCDD80;}
	.st3{fill:#E3E3E3;}
	.st4{fill:#6A342E;}
	.st5{fill:#8BEFEA;}
	.st6{fill:#C4CA49;}
	.st7{fill:#EEAF6D;}
	.st8{fill:#EDAF6D;}
	.st9{fill:#19CDB9;}
	.st10{fill:#C79C8C;}
	.st11{fill:#212121;}
	.st12{fill:#F6F6F6;}
	.st13{fill:#9333E9;}
	.st14{fill:#F2E8FD;}
	.st15{fill:#ECFCE8;}
	.st16{fill:#FBFCFC;}
	.st17{fill:#FBFBFB;}
	.st18{fill:#FFFFFF;}
	.st19{fill:none;stroke:#606060;stroke-width:0.25;stroke-miterlimit:10;}
	.st20{fill:#606060;}
	.st21{fill:#8FC8F5;}
	.st22{fill:#8FC8F4;}
	.st23{fill:#0A0906;}
	.st24{fill:#0B0A07;}
	.st25{fill:#0A0907;}
	.st26{clip-path:url(#SVGID_00000096053752663898045610000006772316231775565742_);}
	.st27{clip-path:url(#SVGID_00000113324477627559180600000005336725556452676798_);}
	.st28{fill:#E9E9E9;}
	.st29{fill:#848484;}
	.st30{opacity:0.5;fill:#060909;}
	.st31{fill:#FEFEFE;}
	.st32{fill:#070707;}
	.st33{fill:#040404;}
	.st34{fill:#060606;}
	.st35{fill:#050505;}
	.st36{fill:#FFFFFF;stroke:#333333;stroke-width:0.25;stroke-miterlimit:10;}
	.st37{fill:none;stroke:#606060;stroke-width:2;stroke-linecap:round;stroke-linejoin:round;stroke-miterlimit:10;}
	.st38{clip-path:url(#SVGID_00000168823383908595549780000000857482999170441862_);}
	.st39{clip-path:url(#SVGID_00000165233881525993209540000002315948821244888196_);}
	.st40{opacity:0.5;fill:#A5A5A5;}
	.st41{fill:none;stroke:#9333E9;stroke-miterlimit:10;}
	.st42{fill:#7A207A;}
	.st43{fill:#DBEAFF;}
	.st44{fill:#FDDB56;}
</style>
<g>
	<path class="st13" d="M74.5,36.6c16.3,0,28.6,13.2,27.3,29c-0.4,5.2-2.6,9.8-5.2,14.2c-4.2,7-9.1,13.5-13.1,20.6
		c-2.1,3.7-4.2,7.5-6.3,11.3c-1.2,2.2-3.6,2.3-4.8,0c-5.6-11.1-12.5-21.5-19.1-32c-2.6-4.2-4.5-8.7-5-13.6
		C46.9,52.6,56,39.2,70.8,36.9C72.1,36.7,73.5,36.5,74.5,36.6z M74.7,103.3c0.2-0.4,0.4-0.6,0.5-0.9c2.8-5,5.9-9.9,9-14.7
		c2.7-4.2,5.6-8.2,7.9-12.6c2.4-4.5,3.8-9.2,3-14.4c-1.3-8.4-7.9-15.4-16.1-16.8c-9.2-1.6-17.8,2.3-22,10.1
		c-3.8,7.1-3.3,14.2,0.6,21.1C63.1,84.6,69.6,93.4,74.7,103.3z"/>
	<path class="st13" d="M91.6,66.2c0,9.1-7.5,16.5-16.6,16.5c-9.2,0-16.6-7.5-16.6-16.7c0-9.1,7.5-16.6,16.6-16.6
		C84.2,49.4,91.6,56.8,91.6,66.2z M85.3,66c0-5.7-4.6-10.3-10.3-10.3c-5.6,0-10.3,4.6-10.3,10.2c0,5.6,4.6,10.3,10.2,10.4
		C80.6,76.3,85.2,71.7,85.3,66z"/>
</g>
</svg>
