<?xml version="1.0" encoding="utf-8"?>
<!-- Generator: Adobe Illustrator 28.0.0, SVG Export Plug-In . SVG Version: 6.00 Build 0)  -->
<svg version="1.1" id="Capa_1" xmlns="http://www.w3.org/2000/svg" xmlns:xlink="http://www.w3.org/1999/xlink" x="0px" y="0px"
	 viewBox="0 0 150 150" style="enable-background:new 0 0 150 150;" xml:space="preserve">
<style type="text/css">
	.st0{fill:none;}
	.st1{fill:#080703;}
	.st2{fill:#FCDD80;}
	.st3{fill:#E3E3E3;}
	.st4{fill:#6A342E;}
	.st5{fill:#8BEFEA;}
	.st6{fill:#C4CA49;}
	.st7{fill:#EEAF6D;}
	.st8{fill:#EDAF6D;}
	.st9{fill:#19CDB9;}
	.st10{fill:#C79C8C;}
	.st11{fill:#212121;}
	.st12{fill:#F6F6F6;}
	.st13{fill:#9333E9;}
	.st14{fill:#F2E8FD;}
	.st15{fill:#ECFCE8;}
	.st16{fill:#FBFCFC;}
	.st17{fill:#FBFBFB;}
	.st18{fill:#FFFFFF;}
	.st19{fill:none;stroke:#606060;stroke-width:0.25;stroke-miterlimit:10;}
	.st20{fill:#606060;}
	.st21{fill:#8FC8F5;}
	.st22{fill:#8FC8F4;}
	.st23{fill:#0A0906;}
	.st24{fill:#0B0A07;}
	.st25{fill:#0A0907;}
	.st26{clip-path:url(#SVGID_00000064348804142015982670000014500772879723340464_);}
	.st27{clip-path:url(#SVGID_00000183230502687009850390000015788995664986799772_);}
	.st28{fill:#E9E9E9;}
	.st29{fill:#848484;}
	.st30{opacity:0.5;fill:#060909;}
	.st31{fill:#FEFEFE;}
	.st32{fill:#070707;}
	.st33{fill:#040404;}
	.st34{fill:#060606;}
	.st35{fill:#050505;}
	.st36{fill:#FFFFFF;stroke:#333333;stroke-width:0.25;stroke-miterlimit:10;}
	.st37{fill:none;stroke:#606060;stroke-width:2;stroke-linecap:round;stroke-linejoin:round;stroke-miterlimit:10;}
	.st38{clip-path:url(#SVGID_00000011741878257061275890000003071536679553137060_);}
	.st39{clip-path:url(#SVGID_00000036223216429276769490000008170445038963801221_);}
	.st40{opacity:0.5;fill:#A5A5A5;}
	.st41{fill:none;stroke:#9333E9;stroke-miterlimit:10;}
	.st42{fill:#7A207A;}
	.st43{fill:#DBEAFF;}
	.st44{fill:#FDDB56;}
</style>
<g>
	<path class="st13" d="M116,71.8c0,2.2,0,4.4,0,6.6c-0.3,0.1-0.1,0.3-0.2,0.5c-0.2,1.5-0.4,3-0.7,4.5c-3.7,17.4-17.8,30.2-35.3,32.4
		c-0.6,0.1-1.2-0.1-1.7,0.3c-2.1,0-4.3,0-6.4,0c-0.6-0.3-1.4-0.3-2.1-0.4c-5-0.7-9.8-2.2-14.3-4.7c-0.5-0.3-0.9-0.3-1.4-0.1
		c-2.7,0.9-5.5,1.8-8.3,2.7c-2.6,0.8-5.2,1.7-7.7,2.5c-0.5,0-1,0-1.4,0c-1.1-0.5-1.9-1.3-2.4-2.4c0-0.5,0-1.1,0-1.6
		c0.1,0,0.1-0.1,0.2-0.2c1.7-5.3,3.4-10.6,5.1-15.9c0.1-0.4,0-0.6-0.1-0.9c-2.4-4.4-4-9.1-4.8-14.1c-0.1-0.8,0-1.7-0.4-2.4
		c0-2.2,0-4.5,0-6.7c0.3-0.1,0.1-0.3,0.2-0.5c0.2-1.5,0.4-3,0.7-4.5C38.5,49.7,52,37,69.1,34.4c0.8-0.1,1.7-0.1,2.5-0.4
		c2.1,0,4.3,0,6.4,0c0.1,0.2,0.2,0.1,0.4,0.2c4.5,0.3,8.8,1.4,12.9,3.2c13.7,6.3,21.8,16.9,24.3,31.8C115.7,70,115.6,71,116,71.8z
		 M44.3,105.6c0.3-0.1,0.5-0.1,0.7-0.2c2.8-0.9,5.7-1.7,8.5-2.8c2.2-0.8,3.9-0.5,5.9,0.6c6.9,3.9,14.4,5,22.2,3.4
		c8.2-1.7,14.7-6,19.6-12.8c5.5-7.6,7.3-16.2,5.4-25.4c-1.6-8.1-6-14.6-12.6-19.5c-7.7-5.6-16.2-7.4-25.5-5.5
		C60.4,45,53.9,49.2,49,55.9c-5.7,7.7-7.5,16.4-5.7,25.7c0.7,3.5,2,6.8,3.9,9.9c0.8,1.3,1,2.5,0.4,3.9c-0.4,1-0.7,2.1-1,3.1
		C45.9,100.8,45.1,103.2,44.3,105.6z"/>
	<path class="st13" d="M34,113.6c0.5,1.1,1.3,1.9,2.4,2.4c-0.7,0-1.4,0-2.1,0c-0.3,0-0.3,0-0.3-0.3C34,115,34,114.3,34,113.6z"/>
</g>
</svg>
