<svg id="Capa_1" data-name="Capa 1" xmlns="http://www.w3.org/2000/svg" viewBox="0 0 95 100"><defs><style>.cls-1{fill:#9333e9;}.cls-2{fill:#fff;}</style></defs><path class="cls-1" d="M87.48,50.13A40,40,0,1,0,47.35,90.07,40,40,0,0,0,87.48,50.13Z"/><path class="cls-2" d="M64.16,43.22c0-2.09,0-3.72,0-5.34,0-.59-.16-.79-.72-.93-.72-.18-1.45-.34-2.18-.53a52.23,52.23,0,0,1-13.34-5,.79.79,0,0,0-.88,0,45,45,0,0,1-9.59,4q-2.89.89-5.85,1.54c-.57.13-.77.34-.76.85.05,3.52-.15,7.05.18,10.57a28.8,28.8,0,0,0,2.39,9.53,18.26,18.26,0,0,0,11.78,10.4,6.22,6.22,0,0,0,3,.39,17.6,17.6,0,0,0,10.59-6.15,22.94,22.94,0,0,0,4.79-10.94A42.83,42.83,0,0,0,64.16,43.22Z"/><path class="cls-1" d="M37.36,49.93A10.14,10.14,0,1,1,47.5,60.07,10.16,10.16,0,0,1,37.36,49.93ZM54,47a.73.73,0,0,0-.51-.65.82.82,0,0,0-.89.32L46.5,53c-.22.22-.32.21-.51,0-1.21-1.38-2.44-2.75-3.66-4.12a.73.73,0,0,0-1.11-.15.72.72,0,0,0,0,1.09l4.37,4.92a.72.72,0,0,0,1.2,0q3.48-3.54,7-7.1A.9.9,0,0,0,54,47Z"/></svg>