<?xml version="1.0" encoding="utf-8"?>
<!-- Generator: Adobe Illustrator 28.0.0, SVG Export Plug-In . SVG Version: 6.00 Build 0)  -->
<svg version="1.1" id="Capa_1" xmlns="http://www.w3.org/2000/svg" xmlns:xlink="http://www.w3.org/1999/xlink" x="0px" y="0px"
	 viewBox="0 0 150 150" style="enable-background:new 0 0 150 150;" xml:space="preserve">
<style type="text/css">
	.st0{fill:none;}
	.st1{fill:#080703;}
	.st2{fill:#FCDD80;}
	.st3{fill:#E3E3E3;}
	.st4{fill:#6A342E;}
	.st5{fill:#8BEFEA;}
	.st6{fill:#C4CA49;}
	.st7{fill:#EEAF6D;}
	.st8{fill:#EDAF6D;}
	.st9{fill:#19CDB9;}
	.st10{fill:#C79C8C;}
	.st11{fill:#212121;}
	.st12{fill:#F6F6F6;}
	.st13{fill:#9333E9;}
	.st14{fill:#F2E8FD;}
	.st15{fill:#ECFCE8;}
	.st16{fill:#FBFCFC;}
	.st17{fill:#FBFBFB;}
	.st18{fill:#FFFFFF;}
	.st19{fill:none;stroke:#606060;stroke-width:0.25;stroke-miterlimit:10;}
	.st20{fill:#606060;}
	.st21{fill:#8FC8F5;}
	.st22{fill:#8FC8F4;}
	.st23{fill:#0A0906;}
	.st24{fill:#0B0A07;}
	.st25{fill:#0A0907;}
	.st26{clip-path:url(#SVGID_00000020398944437871271160000005485191242838895522_);}
	.st27{clip-path:url(#SVGID_00000098909382124130103660000007573409425029264024_);}
	.st28{fill:#E9E9E9;}
	.st29{fill:#848484;}
	.st30{opacity:0.5;fill:#060909;}
	.st31{fill:#FEFEFE;}
	.st32{fill:#070707;}
	.st33{fill:#040404;}
	.st34{fill:#060606;}
	.st35{fill:#050505;}
	.st36{fill:#FFFFFF;stroke:#333333;stroke-width:0.25;stroke-miterlimit:10;}
	.st37{fill:none;stroke:#606060;stroke-width:2;stroke-linecap:round;stroke-linejoin:round;stroke-miterlimit:10;}
	.st38{clip-path:url(#SVGID_00000000912338210941873810000007685585221169711002_);}
	.st39{clip-path:url(#SVGID_00000164507095381335716660000000054658231535015847_);}
	.st40{opacity:0.5;fill:#A5A5A5;}
	.st41{fill:none;stroke:#9333E9;stroke-miterlimit:10;}
	.st42{fill:#7A207A;}
	.st43{fill:#DBEAFF;}
	.st44{fill:#FDDB56;}
</style>
<g>
	<g>
		<path class="st13" d="M62,60.8c0,2.2-1.9,4-4.1,4c-2.2,0-3.9-1.9-3.9-4c0-2.2,1.9-4,4.1-4C60.2,56.8,62,58.6,62,60.8z"/>
		<path class="st13" d="M74,64.7c-2.2,0-4-1.9-4-4.1c0-2.2,1.9-3.9,4-3.9c2.2,0,4,1.9,4,4.1C78,63,76.2,64.8,74,64.7z"/>
		<path class="st13" d="M90,56.8c2.2,0,4,1.8,4,4c0,2.2-1.8,4-4,4c-2.2,0-4-1.8-4-4C86,58.6,87.8,56.8,90,56.8z"/>
	</g>
	<g>
		<path class="st13" d="M62,88.9c0,2.2-1.9,4-4.1,4c-2.2,0-3.9-1.9-3.9-4c0-2.2,1.9-4,4.1-4C60.2,84.9,62,86.7,62,88.9z"/>
		<path class="st13" d="M74,92.8c-2.2,0-4-1.9-4-4.1c0-2.2,1.9-3.9,4-3.9c2.2,0,4,1.9,4,4.1C78,91.1,76.2,92.9,74,92.8z"/>
		<path class="st13" d="M90,84.8c2.2,0,4,1.8,4,4c0,2.2-1.8,4-4,4c-2.2,0-4-1.8-4-4C86,86.7,87.8,84.9,90,84.8z"/>
	</g>
	<path class="st13" d="M132,45c0,2.6-2.1,4.7-4.7,4.7c-27.8,0-55.5,0-83.3,0c-7.6,0-12.6,6.6-10.2,13.4c1.5,4.2,5.3,6.8,10.2,6.8
		c21.4,0,42.8,0,64.2,0c6.6,0,13.2,2.8,17.1,8.2c4.8,6.6,5.5,13.9,1.9,21.2c-3.4,6.8-10.6,11-18.3,11.1c-28.4,0.2-56.8,0.1-85.2,0.1
		c-3.4,0-5.7-2.2-5.6-5.2c0.1-3,2.3-4.9,5.8-4.9c28.2,0,56.3,0,84.5,0c6,0,10.5-3.9,10.8-9.4c0.4-6.1-4.2-10.8-10.7-10.8
		c-21.2,0-42.5,0-63.7,0c-1.7,0-3.4,0-5-0.3c-10.4-2-17.6-11.3-16.6-21.7c1-10.3,9.6-18.3,20.1-18.3c28-0.1,56.1,0,84.1,0
		c2.6,0,4.7,2.1,4.7,4.7V45z"/>
</g>
</svg>
