<?xml version="1.0" encoding="utf-8"?>
<!-- Generator: Adobe Illustrator 28.0.0, SVG Export Plug-In . SVG Version: 6.00 Build 0)  -->
<svg version="1.1" id="Capa_1" xmlns="http://www.w3.org/2000/svg" xmlns:xlink="http://www.w3.org/1999/xlink" x="0px" y="0px"
	 viewBox="0 0 150 150" style="enable-background:new 0 0 150 150;" xml:space="preserve">
<style type="text/css">
	.st0{fill:none;}
	.st1{fill:#080703;}
	.st2{fill:#FCDD80;}
	.st3{fill:#E3E3E3;}
	.st4{fill:#6A342E;}
	.st5{fill:#8BEFEA;}
	.st6{fill:#C4CA49;}
	.st7{fill:#EEAF6D;}
	.st8{fill:#EDAF6D;}
	.st9{fill:#19CDB9;}
	.st10{fill:#C79C8C;}
	.st11{fill:#212121;}
	.st12{fill:#F6F6F6;}
	.st13{fill:#9333E9;}
	.st14{fill:#F2E8FD;}
	.st15{fill:#ECFCE8;}
	.st16{fill:#FBFCFC;}
	.st17{fill:#FBFBFB;}
	.st18{fill:#FFFFFF;}
	.st19{fill:none;stroke:#606060;stroke-width:0.25;stroke-miterlimit:10;}
	.st20{fill:#606060;}
	.st21{fill:#8FC8F5;}
	.st22{fill:#8FC8F4;}
	.st23{fill:#0A0906;}
	.st24{fill:#0B0A07;}
	.st25{fill:#0A0907;}
	.st26{clip-path:url(#SVGID_00000065763117742655457740000010702429874457224608_);}
	.st27{clip-path:url(#SVGID_00000103255705564522380550000008580981016164629421_);}
	.st28{fill:#E9E9E9;}
	.st29{fill:#848484;}
	.st30{opacity:0.5;fill:#060909;}
	.st31{fill:#FEFEFE;}
	.st32{fill:#070707;}
	.st33{fill:#040404;}
	.st34{fill:#060606;}
	.st35{fill:#050505;}
	.st36{fill:#FFFFFF;stroke:#333333;stroke-width:0.25;stroke-miterlimit:10;}
	.st37{fill:none;stroke:#606060;stroke-width:2;stroke-linecap:round;stroke-linejoin:round;stroke-miterlimit:10;}
	.st38{clip-path:url(#SVGID_00000049910771177239002010000002348902578540206745_);}
	.st39{clip-path:url(#SVGID_00000152943005892896379400000003576705921545631657_);}
	.st40{opacity:0.5;fill:#A5A5A5;}
	.st41{fill:none;stroke:#9333E9;stroke-miterlimit:10;}
	.st42{fill:#7A207A;}
	.st43{fill:#DBEAFF;}
	.st44{fill:#FDDB56;}
</style>
<g>
	<g>
		<path d="M113,67.6c-0.1,6.1-1.8,13.4-4.5,20.5c-3.2,8.5-7.4,16.3-13.5,23.2c-2.6,2.9-5.4,5.5-8.8,7.5c-7.6,4.6-15.2,4.5-22.8-0.2
			c-5.2-3.2-9.3-7.7-12.7-12.6c-6.7-9.7-11-20.3-13.1-31.9c-1.7-9.5-0.6-18.7,4.4-27.1c6.7-11.2,16.6-17.7,29.7-18.8
			c17.8-1.6,34,9.4,39.4,26.4C112.4,58.2,113,62.1,113,67.6z M75,89.3c13,0,23.4-10.5,23.4-23.5c0-12.9-10.6-23.3-23.4-23.3
			C62,42.6,51.6,53,51.7,66.1C51.7,78.9,62.2,89.3,75,89.3z"/>
		<path d="M65.2,57.6c0.9,0,1.9,0,2.8,0c0.7,0,1.1-0.3,1.3-1c0.5-1.7,1.1-3.4,1.6-5.1c0.7-2.1,2.1-3.2,4.1-3.2c1.9,0,3.4,1.1,4,3.2
			c0.5,1.5,1,3,1.5,4.5c0.5,1.5,0.5,1.5,2,1.5c1.5,0,3,0,4.6,0c2.2,0,3.7,1.1,4.3,2.9c0.6,1.8,0,3.5-1.8,4.9
			c-1.4,1.1-2.8,2.1-4.2,3.1c-0.6,0.4-0.8,0.9-0.5,1.6c0.6,1.7,1.1,3.3,1.6,5c0.7,2.1,0.2,3.9-1.4,5c-1.6,1.2-3.4,1.1-5.2-0.2
			c-1.4-1-2.8-2.1-4.2-3.1c-0.5-0.4-1-0.4-1.6,0c-1.4,1.1-2.8,2.1-4.2,3.1c-1.8,1.3-3.7,1.4-5.2,0.3c-1.5-1.1-2-2.9-1.4-5
			c0.5-1.6,1-3.2,1.6-4.7c0.3-0.9,0.2-1.6-0.7-2.1c-1.4-0.9-2.7-2-4.1-3c-1.7-1.3-2.3-3-1.7-4.8c0.6-1.8,2.1-2.9,4.2-2.9
			C63.4,57.6,64.3,57.6,65.2,57.6z"/>
	</g>
</g>
</svg>
