<?xml version="1.0" encoding="utf-8"?>
<!-- Generator: Adobe Illustrator 28.0.0, SVG Export Plug-In . SVG Version: 6.00 Build 0)  -->
<svg version="1.1" id="Capa_1" xmlns="http://www.w3.org/2000/svg" xmlns:xlink="http://www.w3.org/1999/xlink" x="0px" y="0px"
	 viewBox="0 0 150 150" style="enable-background:new 0 0 150 150;" xml:space="preserve">
<style type="text/css">
	.st0{fill:none;}
	.st1{fill:#080703;}
	.st2{fill:#FCDD80;}
	.st3{fill:#E3E3E3;}
	.st4{fill:#6A342E;}
	.st5{fill:#8BEFEA;}
	.st6{fill:#C4CA49;}
	.st7{fill:#EEAF6D;}
	.st8{fill:#EDAF6D;}
	.st9{fill:#19CDB9;}
	.st10{fill:#C79C8C;}
	.st11{fill:#212121;}
	.st12{fill:#F6F6F6;}
	.st13{fill:#9333E9;}
	.st14{fill:#F2E8FD;}
	.st15{fill:#ECFCE8;}
	.st16{fill:#FBFCFC;}
	.st17{fill:#FBFBFB;}
	.st18{fill:#FFFFFF;}
	.st19{fill:none;stroke:#606060;stroke-width:0.25;stroke-miterlimit:10;}
	.st20{fill:#606060;}
	.st21{fill:#8FC8F5;}
	.st22{fill:#8FC8F4;}
	.st23{fill:#0A0906;}
	.st24{fill:#0B0A07;}
	.st25{fill:#0A0907;}
	.st26{clip-path:url(#SVGID_00000088827167314103982540000002791656800081314493_);}
	.st27{clip-path:url(#SVGID_00000008854238623024825260000010886105655342808220_);}
	.st28{fill:#E9E9E9;}
	.st29{fill:#848484;}
	.st30{opacity:0.5;fill:#060909;}
	.st31{fill:#FEFEFE;}
	.st32{fill:#070707;}
	.st33{fill:#040404;}
	.st34{fill:#060606;}
	.st35{fill:#050505;}
	.st36{fill:#FFFFFF;stroke:#333333;stroke-width:0.25;stroke-miterlimit:10;}
	.st37{fill:none;stroke:#606060;stroke-width:2;stroke-linecap:round;stroke-linejoin:round;stroke-miterlimit:10;}
	.st38{clip-path:url(#SVGID_00000107577635739793103050000011543390207712257958_);}
	.st39{clip-path:url(#SVGID_00000150066925161447652670000015899857470502546561_);}
	.st40{opacity:0.5;fill:#A5A5A5;}
	.st41{fill:none;stroke:#9333E9;stroke-miterlimit:10;}
	.st42{fill:#7A207A;}
	.st43{fill:#DBEAFF;}
	.st44{fill:#FDDB56;}
</style>
<g>
	<circle class="st13" cx="75" cy="75" r="46.6"/>
	<g>
		<path class="st18" d="M63.3,92.2c-1,0-1.7-0.1-2.2-0.3c-0.4-0.2-0.7-0.5-0.7-0.8c0-0.2,0-0.4,0.1-0.6c0.1-0.2,0.2-0.4,0.4-0.6
			l10.6-15.3l-9.8-14.5c-0.2-0.2-0.3-0.4-0.4-0.6c-0.1-0.2-0.1-0.4-0.1-0.6c0-0.3,0.2-0.6,0.7-0.8c0.5-0.2,1.2-0.3,2.3-0.3h0.6
			c0.7,0,1.3,0.1,1.7,0.2c0.5,0.1,0.8,0.4,1.1,0.8l7.6,11.6l7.6-11.7c0.2-0.3,0.6-0.6,1.1-0.7c0.5-0.1,1.1-0.2,1.8-0.2h0.3
			c1,0,1.7,0.1,2.1,0.3c0.4,0.2,0.6,0.5,0.6,0.8c0,0.2,0,0.4-0.1,0.6c-0.1,0.2-0.2,0.4-0.4,0.6l-9.9,14.4L89,89.9
			c0.2,0.2,0.3,0.4,0.4,0.6c0.1,0.2,0.1,0.4,0.1,0.6c0,0.3-0.2,0.6-0.7,0.8c-0.4,0.2-1.2,0.3-2.3,0.3h-0.6c-0.7,0-1.3-0.1-1.7-0.2
			c-0.5-0.1-0.8-0.4-1.1-0.8l-8.3-12.7l-8.4,12.7c-0.3,0.3-0.7,0.6-1.2,0.7c-0.5,0.1-1.1,0.2-1.8,0.2H63.3z"/>
	</g>
</g>
</svg>
