<?xml version="1.0" encoding="utf-8"?>
<!-- Generator: Adobe Illustrator 28.0.0, SVG Export Plug-In . SVG Version: 6.00 Build 0)  -->
<svg version="1.1" id="Capa_1" xmlns="http://www.w3.org/2000/svg" xmlns:xlink="http://www.w3.org/1999/xlink" x="0px" y="0px"
	 viewBox="0 0 150 150" style="enable-background:new 0 0 150 150;" xml:space="preserve">
<style type="text/css">
	.st0{fill:none;}
	.st1{fill:#080703;}
	.st2{fill:#FCDD80;}
	.st3{fill:#E3E3E3;}
	.st4{fill:#6A342E;}
	.st5{fill:#8BEFEA;}
	.st6{fill:#C4CA49;}
	.st7{fill:#EEAF6D;}
	.st8{fill:#EDAF6D;}
	.st9{fill:#19CDB9;}
	.st10{fill:#C79C8C;}
	.st11{fill:#212121;}
	.st12{fill:#F6F6F6;}
	.st13{fill:#9333E9;}
	.st14{fill:#F2E8FD;}
	.st15{fill:#ECFCE8;}
	.st16{fill:#FBFCFC;}
	.st17{fill:#FBFBFB;}
	.st18{fill:#FFFFFF;}
	.st19{fill:none;stroke:#606060;stroke-width:0.25;stroke-miterlimit:10;}
	.st20{fill:#606060;}
	.st21{fill:#8FC8F5;}
	.st22{fill:#8FC8F4;}
	.st23{fill:#0A0906;}
	.st24{fill:#0B0A07;}
	.st25{fill:#0A0907;}
	.st26{clip-path:url(#SVGID_00000049930146842988007310000010766282881277862017_);}
	.st27{clip-path:url(#SVGID_00000007429260095366392200000005326933469445374353_);}
	.st28{fill:#E9E9E9;}
	.st29{fill:#848484;}
	.st30{opacity:0.5;fill:#060909;}
	.st31{fill:#FEFEFE;}
	.st32{fill:#070707;}
	.st33{fill:#040404;}
	.st34{fill:#060606;}
	.st35{fill:#050505;}
	.st36{fill:#FFFFFF;stroke:#333333;stroke-width:0.25;stroke-miterlimit:10;}
	.st37{fill:none;stroke:#606060;stroke-width:2;stroke-linecap:round;stroke-linejoin:round;stroke-miterlimit:10;}
	.st38{clip-path:url(#SVGID_00000158013477981346890330000017813739912659735432_);}
	.st39{clip-path:url(#SVGID_00000002363562142798180120000005374683827277516204_);}
	.st40{opacity:0.5;fill:#A5A5A5;}
	.st41{fill:none;stroke:#9333E9;stroke-miterlimit:10;}
	.st42{fill:#7A207A;}
	.st43{fill:#DBEAFF;}
	.st44{fill:#FDDB56;}
</style>
<g>
	<path class="st13" d="M113.5,75.1c0,21.2-17.3,38.4-38.6,38.4c-21,0.1-38.4-17.5-38.4-38.7c0-21.2,17.4-38.4,38.7-38.4
		C96.4,36.6,113.5,53.8,113.5,75.1z M74.8,106.5c17.7,0,31.8-14.1,31.8-31.6c0-17.5-14.2-31.6-31.8-31.5
		C57.5,43.5,43.3,57.6,43.4,75C43.4,92.3,57.6,106.6,74.8,106.5z"/>
	<path class="st13" d="M62,75.6c-0.3-6-0.5-12-0.9-18c-0.1-1.7,0.2-3.1,1.8-4c1.6-0.9,2.9-0.3,4.3,0.7c10,7,20,14,30,20.9
		c0.2,0.2,0.5,0.4,0.7,0.5c1.5,1,2,2.4,1.5,4C99,81.3,97.7,82,96,82.1c-4.7,0.2-9.4,0.6-14.1,0.7c-1.4,0-2.4,0.5-3.3,1.6
		c-2.9,4-6,7.9-9,11.8c-1.4,1.8-2.8,2.5-4.4,1.9c-1.8-0.7-2.3-2.2-2.4-4C62.7,88,62.3,81.8,62,75.6z M85.5,75.8c0-0.1,0-0.3,0-0.4
		c-5.6-3.9-11.3-7.8-17.2-12c0.4,7.4,0.7,14.4,1.1,21.8c2-2.6,3.7-4.7,5.3-6.9c1.1-1.5,2.4-2.2,4.2-2.2
		C81.1,76.1,83.3,75.9,85.5,75.8z"/>
</g>
</svg>
