<?xml version="1.0" encoding="utf-8"?>
<!-- Generator: Adobe Illustrator 28.0.0, SVG Export Plug-In . SVG Version: 6.00 Build 0)  -->
<svg version="1.1" id="Capa_1" xmlns="http://www.w3.org/2000/svg" xmlns:xlink="http://www.w3.org/1999/xlink" x="0px" y="0px"
	 viewBox="0 0 150 150" style="enable-background:new 0 0 150 150;" xml:space="preserve">
<style type="text/css">
	.st0{fill:none;}
	.st1{fill:#080703;}
	.st2{fill:#FCDD80;}
	.st3{fill:#E3E3E3;}
	.st4{fill:#6A342E;}
	.st5{fill:#8BEFEA;}
	.st6{fill:#C4CA49;}
	.st7{fill:#EEAF6D;}
	.st8{fill:#EDAF6D;}
	.st9{fill:#19CDB9;}
	.st10{fill:#C79C8C;}
	.st11{fill:#212121;}
	.st12{fill:#F6F6F6;}
	.st13{fill:#9333E9;}
	.st14{fill:#F2E8FD;}
	.st15{fill:#ECFCE8;}
	.st16{fill:#FBFCFC;}
	.st17{fill:#FBFBFB;}
	.st18{fill:#FFFFFF;}
	.st19{fill:none;stroke:#606060;stroke-width:0.25;stroke-miterlimit:10;}
	.st20{fill:#606060;}
	.st21{fill:#8FC8F5;}
	.st22{fill:#8FC8F4;}
	.st23{fill:#0A0906;}
	.st24{fill:#0B0A07;}
	.st25{fill:#0A0907;}
	.st26{clip-path:url(#SVGID_00000172439088688281453340000010640125972951019401_);}
	.st27{clip-path:url(#SVGID_00000051366779056845486760000003586865314080288417_);}
	.st28{fill:#E9E9E9;}
	.st29{fill:#848484;}
	.st30{opacity:0.5;fill:#060909;}
	.st31{fill:#FEFEFE;}
	.st32{fill:#070707;}
	.st33{fill:#040404;}
	.st34{fill:#060606;}
	.st35{fill:#050505;}
	.st36{fill:#FFFFFF;stroke:#333333;stroke-width:0.25;stroke-miterlimit:10;}
	.st37{fill:none;stroke:#606060;stroke-width:2;stroke-linecap:round;stroke-linejoin:round;stroke-miterlimit:10;}
	.st38{clip-path:url(#SVGID_00000057847775488351400130000005950194665595247751_);}
	.st39{clip-path:url(#SVGID_00000106116535541762711680000012605027523791757188_);}
	.st40{opacity:0.5;fill:#A5A5A5;}
	.st41{fill:none;stroke:#9333E9;stroke-miterlimit:10;}
	.st42{fill:#7A207A;}
	.st43{fill:#DBEAFF;}
	.st44{fill:#FDDB56;}
</style>
<g>
	<path class="st13" d="M75.5,116c-8.4-0.1-16.7-0.7-24.9-3.1c-2.3-0.7-4.5-1.6-6.5-2.9c-2.9-2-4.2-4.6-3.8-8.2
		c1.6-12.6,8-22,19.3-27.7c13.5-6.9,30.5-3.7,40.7,7.5c5.4,5.9,8.3,12.7,9.2,20.6c0.3,3.2-0.8,5.6-3.3,7.5c-2.9,2.2-6.2,3.2-9.7,4.1
		c-6.5,1.5-13.1,2-19.7,2.1C76.5,116,76,116,75.5,116z M74.9,107.7c3.7,0,6.7-0.1,9.7-0.5c3.5-0.4,7-0.9,10.3-2.1
		c1.3-0.5,2.6-1,3.6-2c0.5-0.5,0.7-1,0.7-1.8c-0.1-1-0.2-2-0.4-2.9C96.2,85.5,84,77,70.9,79.2C60.1,81,51.7,90.1,50.8,101
		c-0.1,1.2,0.3,1.9,1.2,2.5c1.4,1,3,1.5,4.6,2C62.8,107.2,69.2,107.6,74.9,107.7z"/>
	<path class="st13" d="M74.9,64.9c-8.5,0-15.4-6.8-15.4-15.3C59.4,41,66.3,34,74.9,34c8.5,0,15.4,6.9,15.4,15.4
		C90.3,57.9,83.4,64.8,74.9,64.9z M83.7,49.4c0-4.9-4-8.8-8.9-8.8c-4.9,0-8.8,4-8.8,8.8c0,4.9,4,8.8,8.8,8.9
		C79.7,58.3,83.7,54.3,83.7,49.4z"/>
</g>
</svg>
