<svg id="Capa_1" data-name="Capa 1" xmlns="http://www.w3.org/2000/svg" viewBox="0 0 95 100"><defs><style>.cls-1{fill:#9333e9;}.cls-2{fill:#040303;}.cls-3{fill:#fff;}</style></defs><path class="cls-1" d="M87.48,50.13A40,40,0,1,0,47.35,90.07,40,40,0,0,0,87.48,50.13Z"/><path class="cls-2" d="M69.63,50.28c.58-1.59,1.16-3.07,1.66-4.59a2.72,2.72,0,0,0-5.12-1.84c-.29.68-.51,1.38-.78,2.06a.41.41,0,0,0,.11.5Z"/><path class="cls-2" d="M25.34,50.28l4.09-3.84a.42.42,0,0,0,.14-.53c-.27-.69-.49-1.39-.77-2.06a2.74,2.74,0,0,0-3.42-1.52,2.7,2.7,0,0,0-1.72,3.31C24.15,47.18,24.75,48.68,25.34,50.28Z"/><path class="cls-2" d="M32.79,37.29a2.34,2.34,0,0,0,1.67-.84c1.69-2,3.4-3.93,5.06-5.93a3.2,3.2,0,0,0-.35-4.44,3.24,3.24,0,0,0-4.41.12c-.35.33-.69.69-1,1a1.47,1.47,0,0,1-2.36,0l-.49-.46c-.17-.18-.32-.37-.5-.53a3.22,3.22,0,0,0-4.74,4.35c1.65,2,3.32,3.91,5,5.85A2.34,2.34,0,0,0,32.79,37.29Z"/><path class="cls-3" d="M25.53,71.22a10.82,10.82,0,0,0,2.72,2.27,9.58,9.58,0,0,0,10.46-.68,25,25,0,0,1-4.06-2.06,23.69,23.69,0,0,1-4.34-3.37,21,21,0,0,1-5.93-11,11.71,11.71,0,0,1-.31-2.56,10.35,10.35,0,0,0-1.86,1.88,9.65,9.65,0,0,0,.34,12.11Z"/><path class="cls-3" d="M53.07,70.1,51,68.28a2.35,2.35,0,0,1-.29-3.42,2.32,2.32,0,0,1,3.42,0c.47.46.93.94,1.4,1.4s1.06.65,1.46.24.3-.88-.28-1.46c-.87-.87-1.75-1.72-2.59-2.61a2.18,2.18,0,0,1-.44-2.51,2.11,2.11,0,0,1,2.06-1.39,1.64,1.64,0,0,0,0,.23,14.72,14.72,0,0,0,5.43,8.07A21.19,21.19,0,0,0,66,69.61a23.77,23.77,0,0,0,3.67,1.27A9.65,9.65,0,0,1,56.42,73Z"/><path class="cls-3" d="M65.26,35.35c-.34.4-.67.81-1,1.19a2.15,2.15,0,0,1-1.42.72,5.78,5.78,0,0,1-1.05-1.45,11.48,11.48,0,0,1-1.83-5.25,7,7,0,0,1,.79-3.8c.24.22.46.44.7.65a1.41,1.41,0,0,0,2,0c.42-.38.8-.8,1.21-1.19a3.22,3.22,0,0,1,4.76,4.33c-.38.48-.8.95-1.21,1.42Z"/><path class="cls-3" d="M69.7,70.88A23.77,23.77,0,0,1,66,69.61a21.19,21.19,0,0,1-4.85-2.82,14.72,14.72,0,0,1-5.43-8.07,1.64,1.64,0,0,1,0-.23,2.07,2.07,0,0,1,1.77.7l2.68,2.68a.87.87,0,0,0,1.52-.31,1,1,0,0,0-.37-1c-1.27-1.27-2.55-2.52-3.79-3.81a2.32,2.32,0,0,1,1-3.89,2.28,2.28,0,0,1,2.37.67l3.68,3.68a1.06,1.06,0,0,0,.76.43.81.81,0,0,0,.75-.43.75.75,0,0,0,0-.85,3.06,3.06,0,0,0-.42-.46Q60.84,51.08,56,46.22a2.35,2.35,0,0,1-.25-3.3,2.29,2.29,0,0,1,3.41-.15c2.06,1.91,4.1,3.84,6.15,5.76l6.18,5.8a9.6,9.6,0,0,1,.69,13.82Z"/><path class="cls-3" d="M69.63,50.28,65.5,46.41a.41.41,0,0,1-.11-.5c.27-.68.49-1.38.78-2.06a2.72,2.72,0,0,1,5.12,1.84C70.79,47.21,70.21,48.69,69.63,50.28Z"/><path class="cls-3" d="M38.71,72.81a25,25,0,0,1-4.06-2.06,23.69,23.69,0,0,1-4.34-3.37,21,21,0,0,1-5.93-11,11.71,11.71,0,0,1-.31-2.56c1.2-1.15,2.39-2.29,3.6-3.43l8.08-7.59a2.34,2.34,0,0,1,3.5,3.11c-.18.22-.39.41-.59.61L29.18,56c-.25.26-.52.52-.43.92a.83.83,0,0,0,.59.69.87.87,0,0,0,.92-.28c1.25-1.26,2.51-2.51,3.75-3.77a2.34,2.34,0,1,1,3.4,3.22c-1.14,1.18-2.31,2.33-3.47,3.49-.77.77-.89,1.22-.44,1.66s.87.31,1.62-.44,1.54-1.56,2.32-2.32a2.34,2.34,0,1,1,3.31,3.29c-.86.88-1.73,1.73-2.6,2.61-.48.49-.53,1-.13,1.38s.86.29,1.34-.18,1-1,1.48-1.48A2.34,2.34,0,1,1,44,68.27q-2.25,2-4.51,4C39.23,72.43,39,72.61,38.71,72.81Z"/><path class="cls-3" d="M25.34,50.28c-.59-1.6-1.19-3.1-1.68-4.64a2.7,2.7,0,0,1,1.72-3.31,2.74,2.74,0,0,1,3.42,1.52c.28.67.5,1.37.77,2.06a.42.42,0,0,1-.14.53Z"/><path class="cls-3" d="M30.87,26.76l.49.46a1.47,1.47,0,0,0,2.36,0c.35-.34.69-.7,1-1a3.24,3.24,0,0,1,4.41-.12,3.2,3.2,0,0,1,.35,4.44c-1.66,2-3.37,4-5.06,5.93a2.34,2.34,0,0,1-1.67.84,21.54,21.54,0,0,1-2.06-3.73C29.92,31.27,29.65,29,30.87,26.76Z"/><path class="cls-3" d="M30.87,26.76c-1.22,2.24-.95,4.51-.14,6.8a21.54,21.54,0,0,0,2.06,3.73,2.34,2.34,0,0,1-2.16-.86c-1.68-1.94-3.35-3.88-5-5.85a3.22,3.22,0,0,1,4.74-4.35C30.55,26.39,30.7,26.58,30.87,26.76Z"/><path class="cls-3" d="M60.72,26.76a7,7,0,0,0-.79,3.8,11.48,11.48,0,0,0,1.83,5.25,5.78,5.78,0,0,0,1.05,1.45,2.31,2.31,0,0,1-2.32-.84c-1.68-1.93-3.36-3.87-5-5.84a3.18,3.18,0,0,1,.29-4.48,3.23,3.23,0,0,1,4.45.12C60.4,26.39,60.56,26.58,60.72,26.76Z"/></svg>