<svg id="Capa_1" data-name="Capa 1" xmlns="http://www.w3.org/2000/svg" viewBox="0 0 95 100"><defs><style>.cls-1{fill:#9333e9;}.cls-2{fill:#fff;}.cls-3{fill:#080604;}</style></defs><path class="cls-1" d="M87.48,50.13A40,40,0,1,0,47.35,90.07,40,40,0,0,0,87.48,50.13Z"/><path class="cls-2" d="M49.65,53.79c0,1.64.16,3.27.25,4.9,0,.51.16.72.74.56q8.58-2.32,17.16-4.6c.6-.16.5-.39.3-.79-.76-1.47-1.46-3-2.27-4.43A20.5,20.5,0,0,0,61.7,44a6.86,6.86,0,0,0-3.76-1.86c-.58-.07-.84.07-1,.67-.39,1.71-1,2.24-2.75,2.36a4.72,4.72,0,0,1-1.68,0c-.94-.29-1.32.11-1.66.9A20,20,0,0,0,49.65,53.79ZM45.36,54c0-.62,0-1.13,0-1.63A16.75,16.75,0,0,0,44,45.79c-.26-.59-.54-.89-1.27-.69a6.34,6.34,0,0,1-2.3.06,2.47,2.47,0,0,1-2.33-2c-.32-1.15-.45-1.2-1.64-.92a8.75,8.75,0,0,0-4.58,3.22A38.36,38.36,0,0,0,27,53.78c-.32.66-.12.74.46.9q8.44,2.25,16.89,4.56c.67.19.81,0,.83-.63C45.2,57,45.42,55.47,45.36,54ZM50.17,68.4l.48-.14,15.26-4.07,6.34-1.7c.34-.09.73-.14.83-.57s-.34-.57-.54-.84c-1.13-1.58-2.55-1.7-4.18-.91l-.09,0L51,64.84c-.29.08-.68,0-.75.49a13,13,0,0,1-.68,2.2C49.33,68,49.5,68.41,50.17,68.4Zm-5.32,0c.55,0,.79-.24.66-.8a10.08,10.08,0,0,1-.35-1c-.12-1.38-1-1.79-2.22-2.1-6-1.55-12-3.21-18-4.8-.3-.08-.66-.4-1,0a16,16,0,0,1-1.76,1.64c-.45.39-.35.78.22,1,.19.07.39.11.6.17l15.61,4.22Zm-.22-4.58a23.06,23.06,0,0,1,.25-2.45c.15-.67-.1-.85-.69-1C39,59,33.79,57.57,28.58,56.17c-.77-.21-1.65-.72-2.28-.51s-.72,1.34-1.09,2c0,0-.05.11-.08.16-.42.54-.13.7.4.84q5.19,1.36,10.38,2.76Zm5.51-2.48c.08.78.19,1.36.2,2s.22.49.6.38c1.23-.35,2.46-.67,3.69-1,4.94-1.32,9.88-2.66,14.82-4,.56-.15.81-.32.42-.91a5.83,5.83,0,0,1-.62-1.37c-.23-.73-.57-.89-1.34-.67Q59.48,58.08,51,60.3C50.31,60.49,49.87,60.68,50.14,61.33Zm-6-20.54c0-.53,0-1.07,0-1.6,0-.3,0-.49-.31-.63a7.09,7.09,0,0,0-3.54-.69,1.12,1.12,0,0,0-1,.83,7,7,0,0,0,0,4.37,1.2,1.2,0,0,0,1,.88,6.71,6.71,0,0,0,3-.1c.68-.15,1.22-.34.93-1.28A6.21,6.21,0,0,1,44.18,40.79Zm6.68,0c0,.53,0,1.07,0,1.6-.05,1.23,0,1.31,1.24,1.52l.35,0c2.81.45,3.66-.24,3.61-3.1-.06-3-.71-3.46-3.66-2.76-1.55.36-1.53.42-1.53,2Zm-1.2.16c0-.44,0-.89,0-1.33.06-.78-.3-1.07-1-1s-1.54,0-2.31,0-1,.26-1,.95c0,.51,0,1,0,1.52,0,2.27-.23,2.13,2.08,2.12C50,43.19,49.64,43.42,49.66,41Zm-2.18-7.08c-2.56,0-2.78.22-2.77,2.8v.54c0,.39.16.48.57.4a14.88,14.88,0,0,1,4.42,0c.31,0,.47.08.55-.3C50.76,34.74,50.06,33.88,47.48,33.88Zm-3.9,3.22c0-.56,0-1.09,0-1.62a2.69,2.69,0,0,1,2.73-2.78q1.2,0,2.4,0a2.71,2.71,0,0,1,2.71,2.73c0,.55,0,1.11,0,1.68,1.08-.22,1.08-.22,1.15-.57a4,4,0,0,0-3.86-5c-.71,0-1.43,0-2.14,0-2.64,0-4.12,1.56-4.2,4.23C42.34,36.66,42.59,37.07,43.58,37.1ZM59.7,67A2,2,0,0,0,62,68.41a2.17,2.17,0,0,0,1.79-1.84c.08-.48,0-.67-.54-.51C62.1,66.41,60.9,66.71,59.7,67ZM35.36,67c-1.2-.32-2.4-.61-3.57-1-.54-.16-.61,0-.56.49A2.19,2.19,0,0,0,33,68.4,2.07,2.07,0,0,0,35.36,67Z"/><path class="cls-2" d="M49.65,53.79A20,20,0,0,1,50.88,46c.34-.79.72-1.19,1.66-.9a4.72,4.72,0,0,0,1.68,0C56,45,56.58,44.51,57,42.8c.13-.6.39-.74,1-.67A6.86,6.86,0,0,1,61.7,44a20.5,20.5,0,0,1,4.13,5.44c.81,1.45,1.51,3,2.27,4.43.2.4.3.63-.3.79q-8.59,2.26-17.16,4.6c-.58.16-.71,0-.74-.56C49.81,57.06,49.63,55.43,49.65,53.79Zm11.94-4.74c0-1.77-.59-2.76-1.77-3.19a2.47,2.47,0,0,0-3,1c-.3.39-.48.15-.73.05a2.6,2.6,0,0,0-3.49,3.14,4.8,4.8,0,0,0,1.51,2.27,23.6,23.6,0,0,0,4,2.69.73.73,0,0,0,1.17-.33c.34-.62.7-1.24,1-1.87A10.2,10.2,0,0,0,61.59,49.05Z"/><path class="cls-2" d="M45.36,54c.06,1.46-.16,3-.22,4.6,0,.6-.16.82-.83.63q-8.43-2.31-16.89-4.56c-.58-.16-.78-.24-.46-.9a38.36,38.36,0,0,1,4.95-8.31,8.75,8.75,0,0,1,4.58-3.22c1.19-.28,1.32-.23,1.64.92a2.47,2.47,0,0,0,2.33,2,6.34,6.34,0,0,0,2.3-.06c.73-.2,1,.1,1.27.69a16.75,16.75,0,0,1,1.32,6.59C45.37,52.88,45.36,53.39,45.36,54Zm-2.82-4.69a2.62,2.62,0,0,0-2.16-2.56c-.65-.1-1.24.31-1.79.29s-.78-.91-1.43-1.17A2.75,2.75,0,0,0,33.49,49c.25,2.19,1.43,4,2.46,5.85a.61.61,0,0,0,.92.23,18.79,18.79,0,0,0,4.48-3.18A3.65,3.65,0,0,0,42.54,49.32Z"/><path class="cls-2" d="M50.17,68.4c-.67,0-.84-.36-.65-.87a13,13,0,0,0,.68-2.2c.07-.44.46-.41.75-.49l17.32-4.65.09,0c1.63-.79,3-.67,4.18.91.2.27.63.4.54.84s-.49.48-.83.57l-6.34,1.7L50.65,68.26Z"/><path class="cls-2" d="M44.85,68.39l-6.23-1.67L23,62.5c-.21-.06-.41-.1-.6-.17-.57-.23-.67-.62-.22-1A16,16,0,0,0,24,59.68c.32-.4.68-.08,1,0,6,1.59,12,3.25,18,4.8,1.23.31,2.1.72,2.22,2.1a10.08,10.08,0,0,0,.35,1C45.64,68.15,45.4,68.44,44.85,68.39Z"/><path class="cls-2" d="M44.63,63.81l-8.72-2.35q-5.19-1.4-10.38-2.76c-.53-.14-.82-.3-.4-.84,0,0,.05-.11.08-.16.37-.7.44-1.81,1.09-2s1.51.3,2.28.51C33.79,57.57,39,59,44.19,60.36c.59.15.84.33.69,1A23.06,23.06,0,0,0,44.63,63.81Z"/><path class="cls-2" d="M50.14,61.33c-.27-.65.17-.84.89-1q8.46-2.22,16.88-4.55c.77-.22,1.11-.06,1.34.67a5.83,5.83,0,0,0,.62,1.37c.39.59.14.76-.42.91-4.94,1.31-9.88,2.65-14.82,4-1.23.33-2.46.65-3.69,1-.38.11-.59.13-.6-.38S50.22,62.11,50.14,61.33Z"/><path class="cls-2" d="M44.18,40.79a6.21,6.21,0,0,0,0,1.78c.29.94-.25,1.13-.93,1.28a6.71,6.71,0,0,1-3,.1,1.2,1.2,0,0,1-1-.88,7,7,0,0,1,0-4.37,1.12,1.12,0,0,1,1-.83,7.09,7.09,0,0,1,3.54.69c.32.14.33.33.31.63C44.16,39.72,44.18,40.26,44.18,40.79Z"/><path class="cls-2" d="M50.86,40.8v-.71c0-1.56,0-1.62,1.53-2,3-.7,3.6-.29,3.66,2.76.05,2.86-.8,3.55-3.61,3.1l-.35,0c-1.24-.21-1.29-.29-1.24-1.52C50.88,41.87,50.86,41.33,50.86,40.8Z"/><path class="cls-2" d="M49.66,41c0,2.46.29,2.23-2.24,2.23-2.31,0-2.08.15-2.08-2.12,0-.51,0-1,0-1.52,0-.69.31-1,1-.95s1.54,0,2.31,0,1.11.25,1,1C49.63,40.07,49.66,40.52,49.66,41Z"/><path class="cls-2" d="M43.58,37.1c-1,0-1.24-.44-1.21-1.3.08-2.67,1.56-4.21,4.2-4.23.71,0,1.43,0,2.14,0a4,4,0,0,1,3.86,5c-.07.35-.07.35-1.15.57,0-.57,0-1.13,0-1.68a2.71,2.71,0,0,0-2.71-2.73q-1.2,0-2.4,0a2.69,2.69,0,0,0-2.73,2.78C43.57,36,43.58,36.54,43.58,37.1Z"/><path class="cls-2" d="M59.7,67c1.2-.32,2.4-.62,3.58-1,.55-.16.62,0,.54.51A2.17,2.17,0,0,1,62,68.41,2,2,0,0,1,59.7,67Z"/><path class="cls-2" d="M35.36,67A2.07,2.07,0,0,1,33,68.4a2.19,2.19,0,0,1-1.77-1.86c-.05-.47,0-.65.56-.49C33,66.41,34.16,66.7,35.36,67Z"/><path class="cls-3" d="M60.37,49c0-1.34-.41-2-1.22-2.15a1.37,1.37,0,0,0-1.59,1c-.49,1.29-.51,1.3-1.55.43a1.31,1.31,0,0,0-1.78-.12,1.39,1.39,0,0,0-.52,1.73,3.66,3.66,0,0,0,.82,1.26A16,16,0,0,0,58,53.67c.2.12.37.2.51-.06A12.26,12.26,0,0,0,60.37,49Z"/><path class="cls-3" d="M34.61,48.92c.11,1.63,1.06,3.15,1.91,4.71.12.21.28.19.45.08a12.37,12.37,0,0,0,4-3.11,2,2,0,0,0,.45-1.41,1.44,1.44,0,0,0-1-1.19,1.4,1.4,0,0,0-1.59.45c-.76.7-1,.63-1.34-.31s-.86-1.37-1.67-1.24S34.6,47.69,34.61,48.92Z"/><path class="cls-1" d="M60.37,49a12.26,12.26,0,0,1-1.89,4.58c-.14.26-.31.18-.51.06a16,16,0,0,1-3.44-2.5,3.66,3.66,0,0,1-.82-1.26,1.39,1.39,0,0,1,.52-1.73A1.31,1.31,0,0,1,56,48.3c1,.87,1.06.86,1.55-.43a1.37,1.37,0,0,1,1.59-1C60,47,60.4,47.69,60.37,49Z"/><path class="cls-1" d="M34.61,48.92c0-1.23.43-1.89,1.22-2s1.35.28,1.67,1.24.58,1,1.34.31A1.4,1.4,0,0,1,40.43,48a1.44,1.44,0,0,1,1,1.19,2,2,0,0,1-.45,1.41,12.37,12.37,0,0,1-4,3.11c-.17.11-.33.13-.45-.08C35.67,52.07,34.72,50.55,34.61,48.92Z"/></svg>