<svg id="Capa_1" data-name="Capa 1" xmlns="http://www.w3.org/2000/svg" viewBox="0 0 95 100"><defs><style>.cls-1{fill:#040404;}</style></defs><path class="cls-1" d="M88.74,50A41.24,41.24,0,1,1,47.64,8.68,41.34,41.34,0,0,1,88.74,50ZM47.57,14.2a35.8,35.8,0,1,0,35.66,36A35.79,35.79,0,0,0,47.57,14.2Z"/><path d="M47.52,70.66H27.76c-4.16,0-6.37-2.2-6.37-6.32q0-13,0-26c0-4,2.22-6.23,6.29-6.24,2.75,0,5.5-.06,8.24,0,1.11,0,1.39-.32,1.29-1.35a5.94,5.94,0,0,1,2.17-5.66A5.53,5.53,0,0,1,43,23.83c2.92,0,5.84,0,8.76,0a5.76,5.76,0,0,1,6,6c0,2.23,0,2.23,2.25,2.23,2.57,0,5.15,0,7.73,0A5.56,5.56,0,0,1,73.61,38q0,13.42,0,26.85a5.56,5.56,0,0,1-5.82,5.85C61,70.68,54.28,70.66,47.52,70.66Zm11-19.11c0-4.24,0-8.49,0-12.73,0-1-.26-1.24-1.23-1.24q-9.78.08-19.58,0c-1,0-1.23.26-1.23,1.23q.06,12.57,0,25.13c0,1,.26,1.24,1.23,1.23q9.78-.06,19.58,0c1,0,1.24-.25,1.23-1.23C58.46,59.81,58.5,55.68,58.5,51.55Zm-31.62-.17c0,4.19,0,8.37,0,12.56,0,1,.26,1.35,1.24,1.22a4.5,4.5,0,0,1,1.37,0c1.3.23,1.58-.3,1.57-1.57C31,55.85,31,48.1,31,40.36c0-2.79,0-2.73-2.75-2.78-1.13,0-1.42.3-1.4,1.41C26.92,43.12,26.88,47.25,26.88,51.38Zm41.24,0c0-4.19,0-8.38,0-12.56,0-1-.26-1.36-1.23-1.22a4.49,4.49,0,0,1-1.37,0c-1.3-.22-1.59.3-1.58,1.57.07,7.74,0,15.49,0,23.23,0,2.79,0,2.73,2.75,2.79,1.13,0,1.42-.3,1.4-1.42C68.08,59.64,68.12,55.51,68.12,51.38Zm-20.56-22c-1.31,0-2.64.06-4,0s-.85.88-.91,1.5-.22,1.34,1,1.3c2.57-.1,5.15-.06,7.73,0,.78,0,.89-.28,1-1,.12-1.33-.14-2-1.69-1.81A22.74,22.74,0,0,1,47.56,29.34Z"/></svg>