<svg id="Capa_1" data-name="Capa 1" xmlns="http://www.w3.org/2000/svg" viewBox="0 0 95 100"><defs><style>.cls-1{fill:#fff;}.cls-2{fill:#9333e9;}</style></defs><path class="cls-1" d="M39,15.5A25.28,25.28,0,0,0,13.7,40.77C13.7,64.06,39,87.38,39,87.38S64.25,64.06,64.25,40.77A25.27,25.27,0,0,0,39,15.5ZM39,55A14.23,14.23,0,1,1,53.21,40.77,14.23,14.23,0,0,1,39,55Z"/><path class="cls-2" d="M58.31,92.75l-4.78-2.41L33,80a3.12,3.12,0,0,0-1.44-.34c-4.22,0-8.45,0-12.67,0A14.4,14.4,0,0,1,4.29,67a15.12,15.12,0,0,1-.1-2.13q0-14.16,0-28.34A14.43,14.43,0,0,1,16.52,21.89c.68-.12,1.59.24,2-.33s.17-1.32.25-2A14.56,14.56,0,0,1,31,7.43a18.09,18.09,0,0,1,2.2-.16q21.56,0,43.09,0a14.41,14.41,0,0,1,14.27,11.5A14.82,14.82,0,0,1,90.81,22q0,14.22,0,28.43A14.4,14.4,0,0,1,77.08,65.14c-.53,0-.67.15-.7.69a14.42,14.42,0,0,1-14.25,13.8c-1.07,0-2.13,0-3.19,0-.62,0-.8.14-.79.78.08,3.79.11,7.58.16,11.37C58.32,92.06,58.31,92.35,58.31,92.75Zm-7-11.64c0-2.7,0-5.24,0-7.78,0-.68.14-.91.86-.9,3.16,0,6.33,0,9.49,0a7.29,7.29,0,0,0,7.72-7.72q0-14,0-28c0-4.7-3.06-7.76-7.77-7.76H19.17c-4.75,0-7.82,3.08-7.82,7.83V64.62c0,4.75,3.07,7.83,7.81,7.83H33.25a2.66,2.66,0,0,1,1.27.29c2,1,4.06,2,6.09,3.05Zm3.48-66.58c-7.21,0-14.42,0-21.63,0a7.22,7.22,0,0,0-7.21,6.09c-.2,1.11-.17,1.15.93,1.15H61.42a14.63,14.63,0,0,1,2.65.15A14.47,14.47,0,0,1,76.41,36.65V56.9c0,1.17,0,1.17,1.18,1a7.34,7.34,0,0,0,6.06-7.53q0-14,0-28.07c0-4.66-3.07-7.73-7.71-7.73Z"/><path class="cls-2" d="M29.44,50.73c0,1,0,2.06,0,3.1,0,.37-.1.51-.49.51-2.07,0-4.13,0-6.2,0-.44,0-.54-.16-.54-.57q0-3.09,0-6.2c0-.38.13-.51.51-.51q3.11,0,6.19,0c.45,0,.54.16.53.56C29.42,48.66,29.44,49.69,29.44,50.73Z"/><path class="cls-2" d="M36.68,50.65c0-.95,0-1.9,0-2.85,0-.54.09-.76.7-.75,2,.05,3.9,0,5.86,0,.51,0,.72.09.71.67,0,2,0,4,0,6,0,.49-.11.67-.63.66q-3,0-6,0c-.46,0-.62-.11-.6-.58C36.7,52.72,36.68,51.68,36.68,50.65Z"/><path class="cls-2" d="M54.59,54.33c-1,0-2,0-2.92,0-.47,0-.61-.13-.6-.6,0-2,0-4.09,0-6.13,0-.44.14-.55.56-.55q3.1,0,6.21,0c.4,0,.49.13.49.51,0,2.07,0,4.15,0,6.22,0,.42-.11.56-.54.55C56.72,54.31,55.66,54.33,54.59,54.33Z"/></svg>