<svg id="Capa_1" data-name="Capa 1" xmlns="http://www.w3.org/2000/svg" viewBox="0 0 95 100"><defs><style>.cls-1{fill:#212121;}</style></defs><path class="cls-1" d="M24.68,50.82l-.6.21A29,29,0,0,0,4.46,77.55c-.12,2.3.56,3,2.9,3H54.43c1.88,0,3.76,0,5.63,0a2.1,2.1,0,0,0,2.31-2.4A24.51,24.51,0,0,0,62,74C60,62.85,53.59,55.25,43,51.12c-.24-.09-.62,0-.73-.39a16.9,16.9,0,1,0-21.2-26A17,17,0,0,0,24.68,50.82ZM72.87,26.58H58.3c-1.95,0-3.43,1.26-3.44,2.9a3.15,3.15,0,0,0,3.42,3.14q14.43,0,28.85,0c2,0,3.42-1.23,3.42-2.9a3.11,3.11,0,0,0-3.41-3.14ZM75.27,53H87.13c2,0,3.42-1.25,3.42-2.92a3.11,3.11,0,0,0-3.42-3.13H63.41c-2,0-3.41,1.24-3.41,2.91A3.1,3.1,0,0,0,63.41,53ZM80.5,67.3H73.37a3,3,0,1,0,0,6q7,0,14,0a3,3,0,1,0,0-6Z"/><path class="cls-1" d="M24.68,50.82A16.9,16.9,0,1,1,45.87,24.93a17,17,0,0,1-3.57,25.8c.11.36.49.3.73.39C53.59,55.25,60,62.85,62,74a24.51,24.51,0,0,1,.33,4.11,2.1,2.1,0,0,1-2.31,2.4c-1.87,0-3.75,0-5.63,0H7.36c-2.34,0-3-.71-2.9-3A29,29,0,0,1,24.08,51Z"/><path class="cls-1" d="M72.87,26.58H87.14a3.11,3.11,0,0,1,3.41,3.14c0,1.67-1.45,2.9-3.42,2.9q-14.43,0-28.85,0a3.15,3.15,0,0,1-3.42-3.14c0-1.64,1.49-2.9,3.44-2.9Z"/><path class="cls-1" d="M75.27,53H63.41A3.1,3.1,0,0,1,60,49.85c0-1.67,1.43-2.91,3.41-2.91H87.13a3.11,3.11,0,0,1,3.42,3.13c0,1.67-1.45,2.91-3.42,2.92Z"/><path class="cls-1" d="M80.5,67.3h6.83a3,3,0,1,1,0,6q-7,0-14,0a3,3,0,1,1,0-6Z"/></svg>