<svg id="Capa_1" data-name="Capa 1" xmlns="http://www.w3.org/2000/svg" viewBox="0 0 95 100"><defs><style>.cls-1{fill:#fff;}.cls-2{fill:#080703;}.cls-3{fill:#8fc8f5;}.cls-4{fill:#fcdd80;}.cls-5{fill:#8fc8f4;}.cls-6{fill:#0a0906;}.cls-7{fill:#0b0a07;}.cls-8{fill:#0a0907;}</style></defs><path class="cls-1" d="M47.42,81.24A31.3,31.3,0,1,1,78.79,50,31.33,31.33,0,0,1,47.42,81.24Z"/><path class="cls-2" d="M47.46,5.43A44.57,44.57,0,1,1,2.93,50.21,44.67,44.67,0,0,1,47.46,5.43ZM16.16,48.84a35.49,35.49,0,0,0,1.52,10.82c.26.83.63,1,1.39.72a23.9,23.9,0,0,0,4.44-2.14,9.52,9.52,0,0,1,8.84-.54l5.54,2.4a8,8,0,0,0,6.54,0c1.39-.6,2.79-1.16,4.14-1.84a11.23,11.23,0,0,1,10.69,0c.85.44,1.77.75,2.62,1.2a9.52,9.52,0,0,0,9.81-.14,15.46,15.46,0,0,1,5.17-2.15c1.06-.16,1.39-.75,1.52-1.68a34.53,34.53,0,0,0,.07-10.15A31.4,31.4,0,0,0,43.82,18.91C28.14,20.75,16.18,34.22,16.16,48.84ZM77.5,58.92a29.19,29.19,0,0,0-6.15,2.62,10,10,0,0,1-8.89.18c-1.58-.73-3.2-1.36-4.78-2.08a8.49,8.49,0,0,0-7.44,0c-1.83.84-3.68,1.62-5.55,2.39a9,9,0,0,1-7.09,0c-1.86-.76-3.72-1.54-5.55-2.38a8.05,8.05,0,0,0-7.88.42,16.84,16.84,0,0,1-4.59,2.14c-.83.19-.77.51-.47,1.12a33.74,33.74,0,0,0,4.45,6.92c1.68,2,1.67,2,4,1,1-.43,1.94-.83,2.9-1.25A10.31,10.31,0,0,1,39,70c1.51.65,3,1.3,4.52,2a9,9,0,0,0,8,0c.91-.42,1.87-.77,2.75-1.25a12.62,12.62,0,0,1,12.48,0c3.09,1.58,3.17,1.48,5.32-1.22A30.29,30.29,0,0,0,77.5,58.92Zm-29.1,29c0,1.1.07,2.21,0,3.31s.2,1.5,1.42,1.41a44.29,44.29,0,0,0,6.8-.92A42.63,42.63,0,0,0,83.44,73c.42-.64.42-.92-.3-1.32-2.21-1.2-4.39-2.45-6.54-3.77-.7-.43-.95-.25-1.36.34C69,77.35,60.36,82.39,49.29,83.14c-.76,0-.92.34-.9,1C48.42,85.39,48.4,86.63,48.4,87.87ZM46.6,12.22c0-1.28,0-2.57,0-3.86,0-.74-.25-.93-1-.9A42.62,42.62,0,0,0,11.52,27.18c-.42.63-.29.86.31,1.2,2.17,1.2,4.32,2.43,6.43,3.71.72.44,1.07.4,1.58-.34,6.23-9.07,14.83-14.07,25.85-14.82.72-.05,1-.29.93-1C46.58,14.7,46.6,13.46,46.6,12.22Zm3.82-4.67a5.69,5.69,0,0,1-.83-.07c-1-.2-1.24.26-1.21,1.2q.09,3.51,0,7c0,1,.33,1.24,1.26,1.24a22,22,0,0,1,5,.69A32.81,32.81,0,0,1,75.19,31.78c.45.68.75.8,1.47.36,2.15-1.31,4.33-2.56,6.54-3.77.67-.37.65-.64.27-1.22C75.6,15.31,64.55,8.83,50.42,7.55ZM46.6,87.9c0-1.24,0-2.48,0-3.72,0-.77-.23-1.05-1-1a22.41,22.41,0,0,1-5.16-.69A32.71,32.71,0,0,1,19.8,68.25c-.49-.73-.82-.7-1.48-.3-2,1.22-4.09,2.44-6.2,3.55-.92.48-1,.83-.43,1.69a43.52,43.52,0,0,0,11.9,12.1A42,42,0,0,0,45.45,92.6c.93,0,1.23-.2,1.17-1.12C46.55,90.29,46.6,89.09,46.6,87.9ZM10.34,29.67c-.54,0-.53.52-.71.84A41.21,41.21,0,0,0,4.86,49.93a42,42,0,0,0,4.77,19.7c.42.81.71.81,1.41.39,2.08-1.27,4.17-2.5,6.31-3.65.79-.43.85-.76.46-1.54a31.66,31.66,0,0,1-3.46-13.32A32.44,32.44,0,0,1,17.9,35c.26-.5.38-.83-.25-1.18-2.33-1.29-4.62-2.64-6.92-4ZM90.14,50a42.76,42.76,0,0,0-4.7-19.39c-.47-.92-.79-.93-1.59-.44-2.07,1.27-4.19,2.47-6.32,3.64-.65.36-.73.67-.4,1.35A32.67,32.67,0,0,1,77.1,65c-.3.62-.27.92.37,1.27,2.17,1.19,4.34,2.39,6.43,3.7.91.57,1.16.27,1.56-.52A42.66,42.66,0,0,0,90.14,50ZM26.9,73.5c12.73,11.44,31.75,9.3,41,0-4.21-2.6-8.52-3.73-13.15-.92-4.85,2.93-9.71,2.75-14.59-.05A12.87,12.87,0,0,0,35.75,71C32.45,70.47,29.86,72.31,26.9,73.5Z"/><path class="cls-3" d="M77.5,58.92A30.29,30.29,0,0,1,72,69.51c-2.15,2.7-2.23,2.8-5.32,1.22a12.62,12.62,0,0,0-12.48,0c-.88.48-1.84.83-2.75,1.25a9,9,0,0,1-8,0c-1.49-.7-3-1.35-4.52-2a10.31,10.31,0,0,0-8.54-.08c-1,.42-1.94.82-2.9,1.25-2.3,1-2.29,1-4-1a33.74,33.74,0,0,1-4.45-6.92c-.3-.61-.36-.93.47-1.12A16.84,16.84,0,0,0,24.17,60a8.05,8.05,0,0,1,7.88-.42c1.83.84,3.69,1.62,5.55,2.38a9,9,0,0,0,7.09,0c1.87-.77,3.72-1.55,5.55-2.39a8.49,8.49,0,0,1,7.44,0c1.58.72,3.2,1.35,4.78,2.08a10,10,0,0,0,8.89-.18A29.19,29.19,0,0,1,77.5,58.92Z"/><path class="cls-4" d="M48.4,87.87c0-1.24,0-2.48,0-3.72,0-.67.14-1,.9-1,11.07-.75,19.7-5.79,25.95-14.92.41-.59.66-.77,1.36-.34,2.15,1.32,4.33,2.57,6.54,3.77.72.4.72.68.3,1.32A42.63,42.63,0,0,1,56.6,91.67a44.29,44.29,0,0,1-6.8.92c-1.22.09-1.51-.29-1.42-1.41S48.4,89,48.4,87.87Z"/><path class="cls-4" d="M46.6,12.22c0,1.24,0,2.48,0,3.72,0,.7-.21.94-.93,1-11,.75-19.62,5.75-25.85,14.82-.51.74-.86.78-1.58.34-2.11-1.28-4.26-2.51-6.43-3.71-.6-.34-.73-.57-.31-1.2A42.62,42.62,0,0,1,45.65,7.46c.72,0,1,.16,1,.9C46.57,9.65,46.6,10.94,46.6,12.22Z"/><path class="cls-4" d="M50.42,7.55c14.13,1.28,25.18,7.76,33.05,19.6.38.58.4.85-.27,1.22-2.21,1.21-4.39,2.46-6.54,3.77-.72.44-1,.32-1.47-.36A32.81,32.81,0,0,0,54.66,17.63a22,22,0,0,0-5-.69c-.93,0-1.29-.24-1.26-1.24q.1-3.51,0-7c0-.94.21-1.4,1.21-1.2A5.69,5.69,0,0,0,50.42,7.55Z"/><path class="cls-4" d="M46.6,87.9c0,1.19-.05,2.39,0,3.58.06.92-.24,1.16-1.17,1.12a42,42,0,0,1-21.86-7.31,43.52,43.52,0,0,1-11.9-12.1c-.57-.86-.49-1.21.43-1.69,2.11-1.11,4.16-2.33,6.2-3.55.66-.4,1-.43,1.48.3a32.71,32.71,0,0,0,20.64,14.2,22.41,22.41,0,0,0,5.16.69c.79,0,1,.27,1,1C46.57,85.42,46.6,86.66,46.6,87.9Z"/><path class="cls-4" d="M10.34,29.67l.39.22c2.3,1.33,4.59,2.68,6.92,4,.63.35.51.68.25,1.18a32.44,32.44,0,0,0-3.55,16.47,31.66,31.66,0,0,0,3.46,13.32c.39.78.33,1.11-.46,1.54C15.21,67.52,13.12,68.75,11,70c-.7.42-1,.42-1.41-.39a42,42,0,0,1-4.77-19.7A41.21,41.21,0,0,1,9.63,30.51C9.81,30.19,9.8,29.67,10.34,29.67Z"/><path class="cls-4" d="M90.14,50a42.66,42.66,0,0,1-4.68,19.5c-.4.79-.65,1.09-1.56.52-2.09-1.31-4.26-2.51-6.43-3.7-.64-.35-.67-.65-.37-1.27a32.67,32.67,0,0,0,0-29.89c-.33-.68-.25-1,.4-1.35,2.13-1.17,4.25-2.37,6.32-3.64.8-.49,1.12-.48,1.59.44A42.76,42.76,0,0,1,90.14,50Z"/><path class="cls-5" d="M26.9,73.5c3-1.19,5.55-3,8.85-2.51a12.87,12.87,0,0,1,4.37,1.58c4.88,2.8,9.74,3,14.59.05,4.63-2.81,8.94-1.68,13.15.92C58.65,82.8,39.63,84.94,26.9,73.5Z"/><path class="cls-6" d="M28.81,45.18c1.55,0,3,.94,4.36,1s2.79-1,4.33-.93c.73,0,1.47.06,2.2.13s1.24.33,1.15,1.08-.76,1-1.46.81a4.9,4.9,0,0,0-3.65.14c-1.85,1.16-3.37,1-5.17,0a5,5,0,0,0-3.52-.14c-.71.18-1.38.07-1.51-.74s.5-1.09,1.21-1.14Z"/><path class="cls-7" d="M51.92,27.06a5.85,5.85,0,0,0-4.25,1.18.86.86,0,0,1-1.24.06C44.91,27,43.09,27,41.24,27.12l-.55,0c-.67.09-1.25,0-1.32-.81s.45-1,1-1.05a10.15,10.15,0,0,1,5.67.53,1.88,1.88,0,0,0,1.85,0,9.78,9.78,0,0,1,5.66-.57c.61.08,1.21.33,1.1,1.13s-.76.79-1.38.74Z"/><path class="cls-8" d="M58.53,38.69a7.57,7.57,0,0,1,4.3.84c.54.32.91.1,1.36-.12A10.33,10.33,0,0,1,70,38.79c.62.06,1.19.36,1.08,1.14s-.64.81-1.25.75c-2.12-.22-4.22-.33-6,1.23-.3.27-.69.14-1-.13-1.48-1.29-3.25-1.31-5.06-1.16l-1.1.06a.79.79,0,0,1-.88-.69.87.87,0,0,1,.62-1.07A6.74,6.74,0,0,1,58.53,38.69Z"/></svg>